<svg id="Layer_1" data-name="Layer 1" xmlns="http://www.w3.org/2000/svg" viewBox="0 0 500.81 45.96"><defs><style>.cls-1{fill:#6a0f1d;}</style></defs><title>Artboard 43</title><path class="cls-1" d="M14.16,44.28a14,14,0,0,0,4.74-.78A11.62,11.62,0,0,1,11.34,46C3,46,0,40.8,0,36.48V12.3A8.66,8.66,0,0,1,2.22,6.48a8.56,8.56,0,0,0-.54,3V33.72C1.68,38.94,5.52,44.28,14.16,44.28Zm11-31.62H17.58V9.48A3.71,3.71,0,0,0,14.16,6a3.63,3.63,0,0,0-3.72,3.48V33.6a3.63,3.63,0,0,0,3.72,3.48,3.71,3.71,0,0,0,3.42-3.48V30.42h7.56v3.24c0,4.32-3.42,9.42-11,9.42-8.34,0-11.34-5.1-11.34-9.42V9.42C2.82,5.1,5.82,0,14.16,0c7.56,0,11,5.1,11,9.42Zm-2.82,2.88H14.76V12.36a3.65,3.65,0,0,0-3.12-3.48A2.61,2.61,0,0,1,14.16,7.2a2.53,2.53,0,0,1,2.28,2.34v4.32H24Zm-7.56,17.7,1.68-1.68v2.1a2.76,2.76,0,0,1-1.68,2.28Z"/><path class="cls-1" d="M30.12,43.74h5.82v1.68h-7.5v-42h1.68Zm24-43.2v42h-7.5V22.86H38.7V42.54H31.2V.54h7.5V16.86h7.92V.54Zm-8.64,43.2H51.3v1.68H43.8V25.68h-4V24h5.64Zm0-28H43.8V3.42h1.68Z"/><path class="cls-1" d="M66.24,43.68l-1.68,1.68h-7l8.58-42L67.5,2,58.92,43.68Zm9.84-10.92H68.82l-1.44,9.78H60.3l8.64-42h7.5l8.64,42h-7.5Zm7.86,10.92-1.68,1.68h-7.5l-1.44-9.72H69.54L69.78,34h5.4l1.38,9.72ZM74.88,26.76,72.6,11.7h-.18L70.08,26.76Zm-2.4-8.22,1.08,7.2h-2.1l-.06-.42Z"/><path class="cls-1" d="M90.24,43.74H96v1.68H88.5v-42h1.74Zm31-43.2v42h-7.5V16.62L108.9,42.54h-5.22L98.94,16.62h-.12V42.54h-7.5V.54h10.14l4.8,25.14h.12L111.18.54Zm-18.48,43.2h3.66l-.3,1.68h-5.28l-1-5.22V28.26Zm3.54-23.52-.6-3,2.64-13.8h1.14Zm6.36,23.52h5.82v1.68H111V37.5l1.68-9.24Z"/><path class="cls-1" d="M127.74,43.68h5.82v1.74h-7.5v-42h1.68ZM151.2,12.54c0,8.7-5.28,13.14-10.8,13.14-.48,0-3.54,0-4-.06V42.54h-7.5V.54h11.7C147.78.54,151.2,5.82,151.2,12.54Zm-7.14,0c0-3.36-.78-5.94-3.72-5.94h-4V19.26h1.5C142.68,19.26,144.06,18.72,144.06,12.54Zm-1.14.06c0,3.66-.36,4.92-1.8,5.34a15.34,15.34,0,0,0,.12-2.52c0-3.36-.72-6-3.72-6l-.06-1.74h2.88C141.66,7.68,142.92,8.34,142.92,12.6Zm1.14,13.62a10.27,10.27,0,0,1-6.6,2.28V26.82C141.48,26.82,141.78,26.88,144.06,26.22Z"/><path class="cls-1" d="M157.92,43.68l-1.68,1.68h-7l8.58-42L159.18,2,150.6,43.68Zm9.84-10.92H160.5l-1.44,9.78H152l8.64-42h7.5l8.64,42h-7.5Zm7.86,10.92-1.68,1.68h-7.5L165,35.64h-3.78l.24-1.68h5.4l1.38,9.72Zm-9.06-16.92L164.28,11.7h-.18l-2.34,15.06Zm-2.4-8.22,1.08,7.2h-2.1l-.06-.42Z"/><path class="cls-1" d="M192.54,44.22a14.51,14.51,0,0,0,4.5-.66,11.26,11.26,0,0,1-7.32,2.4c-8.34,0-11.34-5.16-11.34-9.48V12.3a9,9,0,0,1,2.1-5.88,13.42,13.42,0,0,0-.42,3.06V33.72C180.06,38.94,183.9,44.22,192.54,44.22Zm10.92-31.56H195.9V9.48A3.65,3.65,0,0,0,192.54,6a3.75,3.75,0,0,0-3.84,3.48V33.6a3.75,3.75,0,0,0,3.84,3.48c2.76,0,4.2-2,4.2-5.46V25.26h-4.2v-6h10.92v13c0,5.64-3.42,10.86-10.92,10.86-8.34,0-11.4-5.1-11.4-9.42V9.42c0-4.32,3.06-9.42,11.4-9.42,7.5,0,10.92,5.1,10.92,9.42ZM194,34.5V28.14h-4.14v-6h1.62v4.32h4.2v5.22c0,2.22-.6,3.54-1.8,4.08A8.17,8.17,0,0,0,194,34.5Zm-.84-19V12.36A3.77,3.77,0,0,0,190,8.88a2.61,2.61,0,0,1,2.58-1.74,2.58,2.58,0,0,1,2.28,2.4v4.32h5.88v1.68Z"/><path class="cls-1" d="M209.64,43.74h5.82v1.68H208v-42h1.68ZM233.22.54v42h-7.5l-7.38-24h-.12v24h-7.5V.54h7.92l7,23.34h.12V.54Zm-8.34,43.2h5.58v1.68H223l-3.6-11.7v-8.1Zm-.24-26.82L223,11.22V3.42h1.68Z"/><path class="cls-1" d="M239.7,43.68H257v1.74H238v-42h1.68Zm20.1-7.2v6.06h-19V.54H259V6.6H248.34V16.86h7.56v6h-7.56V36.48ZM249.42,9.42V7.68h6.72V9.42Zm0,16.26V24h3.72v1.68Z"/><path class="cls-1" d="M287.16,44.28a14,14,0,0,0,4.74-.78A11.62,11.62,0,0,1,284.34,46C276,46,273,40.8,273,36.48V12.3a8.66,8.66,0,0,1,2.22-5.82,8.56,8.56,0,0,0-.54,3V33.72C274.68,38.94,278.52,44.28,287.16,44.28Zm11-31.62h-7.56V9.48A3.71,3.71,0,0,0,287.16,6a3.63,3.63,0,0,0-3.72,3.48V33.6a3.63,3.63,0,0,0,3.72,3.48,3.71,3.71,0,0,0,3.42-3.48V30.42h7.56v3.24c0,4.32-3.42,9.42-11,9.42-8.34,0-11.34-5.1-11.34-9.42V9.42c0-4.32,3-9.42,11.34-9.42,7.56,0,11,5.1,11,9.42Zm-2.82,2.88h-7.56V12.36a3.65,3.65,0,0,0-3.12-3.48,2.61,2.61,0,0,1,2.52-1.68,2.53,2.53,0,0,1,2.28,2.34v4.32H297Zm-7.56,17.7,1.68-1.68v2.1a2.76,2.76,0,0,1-1.68,2.28Z"/><path class="cls-1" d="M314.28,44.28a16.71,16.71,0,0,0,4.74-.72,11.55,11.55,0,0,1-7.5,2.4c-8.34,0-11.28-5.16-11.28-9.42V12.3a9,9,0,0,1,2.1-5.94,13.93,13.93,0,0,0-.42,3.12V33.72C301.92,38.94,305.7,44.28,314.28,44.28ZM325.14,9.42V33.66c0,4.26-3.36,9.42-10.86,9.42-8.28,0-11.22-5.16-11.22-9.36V9.42C303.06,5.16,306,0,314.28,0,321.78,0,325.14,5.16,325.14,9.42Zm-7.5,0a3.54,3.54,0,0,0-7.08-.06V33.54a3.6,3.6,0,0,0,3.72,3.54c2.16,0,3.36-2.28,3.36-3.54Zm-1.08.06V33.6a2.88,2.88,0,0,1-1.68,2.34V12.3a3.76,3.76,0,0,0-3.12-3.48,2.63,2.63,0,0,1,2.52-1.68A2.53,2.53,0,0,1,316.56,9.48Z"/><path class="cls-1" d="M343.5,44.28a14,14,0,0,0,4.74-.78A11.62,11.62,0,0,1,340.68,46c-8.34,0-11.34-5.16-11.34-9.48V12.3a8.66,8.66,0,0,1,2.22-5.82,8.56,8.56,0,0,0-.54,3V33.72C331,38.94,334.86,44.28,343.5,44.28Zm11-31.62h-7.56V9.48A3.71,3.71,0,0,0,343.5,6a3.63,3.63,0,0,0-3.72,3.48V33.6a3.63,3.63,0,0,0,3.72,3.48,3.71,3.71,0,0,0,3.42-3.48V30.42h7.56v3.24c0,4.32-3.42,9.42-11,9.42-8.34,0-11.34-5.1-11.34-9.42V9.42c0-4.32,3-9.42,11.34-9.42,7.56,0,11,5.1,11,9.42Zm-2.82,2.88H344.1V12.36A3.65,3.65,0,0,0,341,8.88,2.61,2.61,0,0,1,343.5,7.2a2.53,2.53,0,0,1,2.28,2.34v4.32h7.56Zm-7.56,17.7,1.68-1.68v2.1a2.76,2.76,0,0,1-1.68,2.28Z"/><path class="cls-1" d="M359.46,43.74h5.82v1.68h-7.5v-42h1.68Zm16.85-1.2-7.67-16.08h-.36l-.24.3V42.54h-7.5V.54H368v15h.18l7.32-15h7.13L372.6,19.26,385,42.54Zm4.92,1.2.9,1.68h-8.57l-4.38-9.12V30.18l6.42,13.56Z"/><path class="cls-1" d="M393.84,43.68h5.76v1.68h-7.5v-36h-7.68v-6h1.68V7.68h7.74ZM410.15.54v6h-7.73v36h-7.5v-36h-7.68v-6Zm-6.59,7.14h3.77V9.36h-3.77Z"/><path class="cls-1" d="M415.38,43.68l-1.68,1.68h-7l8.58-42L416.64,2l-8.58,41.64Zm9.83-10.92H418l-1.44,9.78h-7.08l8.64-42h7.5l8.63,42h-7.5Zm7.86,10.92-1.68,1.68H423.9l-1.44-9.72h-3.78l.24-1.68h5.39l1.38,9.72ZM424,26.76,421.74,11.7h-.18l-2.34,15.06Zm-2.4-8.22,1.08,7.2h-2.1l-.06-.42Z"/><path class="cls-1" d="M439.32,43.68h5.81v1.74h-7.49v-42h1.68ZM447.9.54v42h-7.5V.54Z"/><path class="cls-1" d="M454.38,43.74H470v1.68H452.69v-42h1.69Zm18.41-7.2v6H455.45V.54H463v36Z"/><path class="cls-1" d="M481.49,24c-4.32-4.32-5.57-6-5.57-11.7A9.06,9.06,0,0,1,478,6.36a12.65,12.65,0,0,0-.42,3.12c0,6,1.62,8.22,5.94,12.54l6.18,6.24a6.72,6.72,0,0,1,2.22,5,2.43,2.43,0,0,1-1.68,2.64,8.66,8.66,0,0,0-2.4-5.58l-.48-.42V28.2h-1.68Zm8.16,20.28a15.77,15.77,0,0,0,5.16-.84A12.75,12.75,0,0,1,486.89,46C480.83,46,476,42.6,476,36.48V32.16h1.74v1.56C477.71,40,482.51,44.28,489.65,44.28Zm11.16-10.62c0,6.06-5.16,9.42-11.16,9.42s-10.86-3.36-10.86-9.42V29.28h7.44v4c0,2.52,1.56,3.84,3.42,3.84S493,35.64,493,33.24a7.62,7.62,0,0,0-2.4-5.76l-6.3-6.3c-4.32-4.32-5.58-6.06-5.58-11.76S483.29,0,489.65,0s10.86,3.78,10.86,9.42V12.3H493V10.62c0-3-1.56-4.68-3.36-4.68a3.36,3.36,0,0,0-3.42,3.3c0,1.92.48,3.24,2.22,5.22L496,23.1C499,26.46,500.81,28.74,500.81,33.66ZM490.25,14.94v-1.5c0-2.64-1.26-4.26-2.82-4.56a2.26,2.26,0,0,1,2.22-1.74c1.38,0,2.28,1.38,2.28,3.54v2.76h5.82v1.68h-7.32Z"/></svg>