<svg id="Layer_1" data-name="Layer 1" xmlns="http://www.w3.org/2000/svg" viewBox="0 0 262.02 45.96"><defs><style>.cls-1{fill:#6a0f1d;}</style></defs><title>Artboard 26</title><path class="cls-1" d="M8.7,43.68,7,45.36H0l8.58-42L10,2,1.38,43.68Zm9.84-10.92H11.28L9.84,42.54H2.76L11.4.54h7.5l8.64,42H20ZM26.4,43.68l-1.68,1.68h-7.5l-1.44-9.72H12L12.24,34h5.4L19,43.68ZM17.34,26.76,15.06,11.7h-.18L12.54,26.76Zm-2.4-8.22L16,25.74h-2.1l-.06-.42Z"/><path class="cls-1" d="M32.64,43.68h5.82v1.74H31v-42h1.68ZM56.1,12.54c0,8.7-5.28,13.14-10.8,13.14-.48,0-3.54,0-4-.06V42.54h-7.5V.54h11.7C52.68.54,56.1,5.82,56.1,12.54Zm-7.14,0c0-3.36-.78-5.94-3.72-5.94h-4V19.26h1.5C47.58,19.26,49,18.72,49,12.54Zm-1.14.06c0,3.66-.36,4.92-1.8,5.34a15.34,15.34,0,0,0,.12-2.52c0-3.36-.72-6-3.72-6l-.06-1.74h2.88C46.56,7.68,47.82,8.34,47.82,12.6ZM49,26.22a10.27,10.27,0,0,1-6.6,2.28V26.82C46.38,26.82,46.68,26.88,49,26.22Z"/><path class="cls-1" d="M61.38,43.68H67.2v1.74H59.7v-42h1.68ZM84.84,12.54c0,8.7-5.28,13.14-10.8,13.14-.48,0-3.54,0-4-.06V42.54h-7.5V.54h11.7C81.42.54,84.84,5.82,84.84,12.54Zm-7.14,0c0-3.36-.78-5.94-3.72-5.94H70V19.26h1.5C76.32,19.26,77.7,18.72,77.7,12.54Zm-1.14.06c0,3.66-.36,4.92-1.8,5.34a15.34,15.34,0,0,0,.12-2.52c0-3.36-.72-6-3.72-6L71.1,7.68H74C75.3,7.68,76.56,8.34,76.56,12.6ZM77.7,26.22a10.27,10.27,0,0,1-6.6,2.28V26.82C75.12,26.82,75.42,26.88,77.7,26.22Z"/><path class="cls-1" d="M90.12,43.68H107.4v1.74h-19v-42h1.68Zm20.1-7.2v6.06h-19V.54h18.12V6.6H98.76V16.86h7.56v6H98.76V36.48ZM99.84,9.42V7.68h6.72V9.42Zm0,16.26V24h3.72v1.68Z"/><path class="cls-1" d="M120.66,43.68h5.76v1.68h-7.5v-36h-7.68v-6h1.68V7.68h7.74ZM137,.54v6h-7.74v36h-7.5v-36h-7.68v-6Zm-6.6,7.14h3.78V9.36h-3.78Z"/><path class="cls-1" d="M141.06,43.68h5.82v1.74h-7.5v-42h1.68ZM149.64.54v42h-7.5V.54Z"/><path class="cls-1" d="M154.74,43.74H176v1.68H153.06V37.86l1.68-3.12Zm-.3-34.38V3.42h1.68V7.68h13.2l-.9,1.68ZM179.58,6.9,163.5,36.54h15.24v6H155.88V35L171.12,6.54H157.26v-6h22.32Z"/><path class="cls-1" d="M184.68,43.68H202v1.74H183v-42h1.68Zm20.1-7.2v6.06h-19V.54h18.12V6.6H193.32V16.86h7.56v6h-7.56V36.48ZM194.4,9.42V7.68h6.72V9.42Zm0,16.26V24h3.72v1.68Z"/><path class="cls-1" d="M208.86,43.68h5.82v1.74h-7.5v-42h1.68Zm11-18c-1.08,0-2-.06-2.34-.06V42.54H210V.54h12.54c7.2,0,10.62,5.28,10.62,12,0,6.24-2.7,10.26-6.3,12.06l7.92,17.94H227Zm0-6.42c4.8,0,6.18-.54,6.18-6.72,0-3.36-.78-5.94-3.72-5.94h-4.8V19.26Zm5-6.66c0,3.66-.36,4.92-1.8,5.34a15.34,15.34,0,0,0,.12-2.52c0-3.36-.72-6-3.72-6h-.9V7.68h3.72C223.62,7.68,224.88,8.34,224.88,12.6Zm6.36,31.14.72,1.68h-7.74l-5.64-13.2v-5.4h.54l7.14,16.92Z"/><path class="cls-1" d="M242.7,24c-4.32-4.32-5.58-6-5.58-11.7a9.07,9.07,0,0,1,2.1-5.94,12.65,12.65,0,0,0-.42,3.12c0,6,1.62,8.22,5.94,12.54l6.18,6.24a6.72,6.72,0,0,1,2.22,5,2.43,2.43,0,0,1-1.68,2.64,8.66,8.66,0,0,0-2.4-5.58l-.48-.42V28.2H246.9Zm8.16,20.28a15.77,15.77,0,0,0,5.16-.84A12.75,12.75,0,0,1,248.1,46c-6.06,0-10.92-3.36-10.92-9.48V32.16h1.74v1.56C238.92,40,243.72,44.28,250.86,44.28ZM262,33.66c0,6.06-5.16,9.42-11.16,9.42S240,39.72,240,33.66V29.28h7.44v4c0,2.52,1.56,3.84,3.42,3.84s3.36-1.44,3.36-3.84a7.62,7.62,0,0,0-2.4-5.76l-6.3-6.3c-4.32-4.32-5.58-6.06-5.58-11.76S244.5,0,250.86,0s10.86,3.78,10.86,9.42V12.3h-7.5V10.62c0-3-1.56-4.68-3.36-4.68a3.36,3.36,0,0,0-3.42,3.3c0,1.92.48,3.24,2.22,5.22l7.5,8.64C260.16,26.46,262,28.74,262,33.66ZM251.46,14.94v-1.5c0-2.64-1.26-4.26-2.82-4.56a2.26,2.26,0,0,1,2.22-1.74c1.38,0,2.28,1.38,2.28,3.54v2.76H259v1.68h-7.32Z"/></svg>