<svg id="Layer_1" data-name="Layer 1" xmlns="http://www.w3.org/2000/svg" viewBox="0 0 47.24 94.5"><defs><style>.cls-1{fill:#212a59;}</style></defs><title>Artboard 15</title><path class="cls-1" d="M12.57,94.5V47.27H0V31.53H12.58v-.48c0-3,0-5.94,0-8.91a25.59,25.59,0,0,1,2.17-10.87A18.21,18.21,0,0,1,26.82,1a27.56,27.56,0,0,1,7.62-1H47.21V15.76h-.4c-2.74,0-5.49,0-8.23,0a17.6,17.6,0,0,0-3.39.38,4.18,4.18,0,0,0-3.62,4.19c-.06.63-.08,1.26-.09,1.89V31.5H47.24C46.6,36.77,46,42,45.34,47.26H31.49V94.5Z"/></svg>