<svg id="Layer_1" data-name="Layer 1" xmlns="http://www.w3.org/2000/svg" viewBox="0 0 147.18 45.96"><defs><style>.cls-1{fill:#6a0f1d;}</style></defs><title>Artboard 48</title><path class="cls-1" d="M11.22,43.68H17.7l-.42,1.68h-8L0,3.36H2.28ZM29.76.54l-9.66,42h-8L2.82.54h8L16.2,31.62h.12L21.78.54ZM16.32,25.68l-.66-3.48L19,3.36h1.2Z"/><path class="cls-1" d="M44.82,44.28a16.71,16.71,0,0,0,4.74-.72,11.55,11.55,0,0,1-7.5,2.4c-8.34,0-11.28-5.16-11.28-9.42V12.3a9,9,0,0,1,2.1-5.94,13.93,13.93,0,0,0-.42,3.12V33.72C32.46,38.94,36.24,44.28,44.82,44.28ZM55.68,9.42V33.66c0,4.26-3.36,9.42-10.86,9.42-8.28,0-11.22-5.16-11.22-9.36V9.42C33.6,5.16,36.54,0,44.82,0,52.32,0,55.68,5.16,55.68,9.42Zm-7.5,0a3.54,3.54,0,0,0-7.08-.06V33.54a3.6,3.6,0,0,0,3.72,3.54c2.16,0,3.36-2.28,3.36-3.54Zm-1.08.06V33.6a2.88,2.88,0,0,1-1.68,2.34V12.3A3.76,3.76,0,0,0,42.3,8.82a2.63,2.63,0,0,1,2.52-1.68A2.53,2.53,0,0,1,47.1,9.48Z"/><path class="cls-1" d="M76.5,43.68a10.12,10.12,0,0,0,3-.48,8.77,8.77,0,0,1-5.82,2.22H60.18v-42h1.68V43.68H76.5Zm9.3-31.14v18c0,6.42-2.82,12-9.3,12H63V.54H76.5a9,9,0,0,1,8.76,7A22.62,22.62,0,0,1,85.8,12.54Zm-7.08,0c0-3.36-.72-5.94-3.78-5.94H70.5V36.48h4.44c3.06,0,3.78-2.58,3.78-5.94Zm-1.14.06v18c0,3.36-.78,4.44-1.8,4.8.06-.66.12-1.32.12-2V15.42c0-3.42-.72-6-3.72-6h-.6V7.68h3.36C76.38,7.68,77.58,8.34,77.58,12.6Z"/><path class="cls-1" d="M92,43.74H97.8v1.68H90.3v-42H92Zm16.86-1.2-7.68-16.08h-.36l-.24.3V42.54h-7.5V.54h7.5v15h.18l7.32-15h7.14L105.12,19.26l12.36,23.28Zm4.92,1.2.9,1.68h-8.58L101.7,36.3V30.18l6.42,13.56Z"/><path class="cls-1" d="M128.34,43.68l-1.68,1.68h-7l8.58-42L129.6,2,121,43.68Zm9.84-10.92h-7.26l-1.44,9.78H122.4L131,.54h7.5l8.64,42h-7.5ZM146,43.68l-1.68,1.68h-7.5l-1.44-9.72h-3.78l.24-1.68h5.4l1.38,9.72ZM137,26.76,134.7,11.7h-.18l-2.34,15.06Zm-2.4-8.22,1.08,7.2h-2.1l-.06-.42Z"/></svg>