<svg id="Layer_1" data-name="Layer 1" xmlns="http://www.w3.org/2000/svg" viewBox="0 0 966.55 19.14"><defs><style>.cls-1{fill:#212a59;}</style></defs><title>Artboard 5</title><path class="cls-1" d="M14.92.59V16.87A8.25,8.25,0,0,1,10,18.55a8.25,8.25,0,0,1-4.89-1.68V.59h9.78M15.51,0h-11V17.15a8.68,8.68,0,0,0,5.48,2,8.68,8.68,0,0,0,5.48-2V0Z"/><path class="cls-1" d="M35.08.59V16.87a8,8,0,0,1-9.78,0V.59h9.78M35.67,0h-11V17.15a8.54,8.54,0,0,0,11,0V0Z"/><path class="cls-1" d="M55.24.59V16.87a8,8,0,0,1-9.78,0V.59h9.78M55.83,0h-11V17.15a8.54,8.54,0,0,0,11,0V0Z"/><path class="cls-1" d="M75.4.59V16.87a8,8,0,0,1-9.79,0V.59H75.4M76,0H65V17.15a8.55,8.55,0,0,0,11,0V0Z"/><path class="cls-1" d="M95.56.59V16.87a8,8,0,0,1-9.79,0V.59h9.79M96.15,0h-11V17.15a8.55,8.55,0,0,0,11,0V0Z"/><path class="cls-1" d="M115.72.59V16.87a8,8,0,0,1-9.79,0V.59h9.79m.59-.59h-11V17.15a8.55,8.55,0,0,0,11,0V0Z"/><path class="cls-1" d="M135.87.59V16.87a8,8,0,0,1-9.78,0V.59h9.78m.59-.59h-11V17.15a8.54,8.54,0,0,0,11,0V0Z"/><path class="cls-1" d="M156,.59V16.87a8,8,0,0,1-9.78,0V.59H156m.59-.59h-11V17.15a8.54,8.54,0,0,0,11,0V0Z"/><path class="cls-1" d="M176.19.59V16.87a8,8,0,0,1-9.78,0V.59h9.78m.59-.59h-11V17.15a8.54,8.54,0,0,0,11,0V0Z"/><path class="cls-1" d="M196.35.59V16.87a8,8,0,0,1-9.78,0V.59h9.78m.59-.59H186V17.15a8.55,8.55,0,0,0,11,0V0Z"/><path class="cls-1" d="M216.51.59V16.87a8,8,0,0,1-9.79,0V.59h9.79M217.1,0h-11V17.15a8.55,8.55,0,0,0,11,0V0Z"/><path class="cls-1" d="M236.67.59V16.87a8,8,0,0,1-9.79,0V.59h9.79m.59-.59h-11V17.15a8.55,8.55,0,0,0,11,0V0Z"/><path class="cls-1" d="M256.82.59V16.87a8,8,0,0,1-9.78,0V.59h9.78m.59-.59h-11V17.15a8.54,8.54,0,0,0,11,0V0Z"/><path class="cls-1" d="M277,.59V16.87a8,8,0,0,1-9.78,0V.59H277m.59-.59h-11V17.15a8.54,8.54,0,0,0,11,0V0Z"/><path class="cls-1" d="M297.14.59V16.87a8,8,0,0,1-9.78,0V.59h9.78m.59-.59h-11V17.15a8.54,8.54,0,0,0,11,0V0Z"/><path class="cls-1" d="M317.3.59V16.87a8,8,0,0,1-9.78,0V.59h9.78m.59-.59h-11V17.15a8.55,8.55,0,0,0,11,0V0Z"/><path class="cls-1" d="M15.51,0V17.15a62.75,62.75,0,0,0,4.6-4.93,62.75,62.75,0,0,0,4.6,4.93V0h-9.2Z"/><path class="cls-1" d="M35.67,0V17.15a62.75,62.75,0,0,0,4.6-4.93,62.75,62.75,0,0,0,4.6,4.93V0h-9.2Z"/><path class="cls-1" d="M55.83,0V17.15a65.14,65.14,0,0,0,4.6-4.93A63.71,63.71,0,0,0,65,17.15V0H55.83Z"/><path class="cls-1" d="M76,0V17.15a65.14,65.14,0,0,0,4.6-4.93,63.71,63.71,0,0,0,4.59,4.93V0H76Z"/><path class="cls-1" d="M96.15,0V17.15a63.71,63.71,0,0,0,4.59-4.93,65.14,65.14,0,0,0,4.6,4.93V0H96.15Z"/><path class="cls-1" d="M116.31,0V17.15a63.71,63.71,0,0,0,4.59-4.93,65.14,65.14,0,0,0,4.6,4.93V0h-9.19Z"/><path class="cls-1" d="M136.46,0V17.15a62.75,62.75,0,0,0,4.6-4.93,62.75,62.75,0,0,0,4.6,4.93V0h-9.2Z"/><path class="cls-1" d="M156.62,0V17.15a62.75,62.75,0,0,0,4.6-4.93,62.75,62.75,0,0,0,4.6,4.93V0h-9.2Z"/><path class="cls-1" d="M176.78,0V17.15a65.14,65.14,0,0,0,4.6-4.93A63.71,63.71,0,0,0,186,17.15V0h-9.19Z"/><path class="cls-1" d="M196.94,0V17.15a65.14,65.14,0,0,0,4.6-4.93,63.71,63.71,0,0,0,4.59,4.93V0h-9.19Z"/><path class="cls-1" d="M217.1,0V17.15a63.71,63.71,0,0,0,4.59-4.93,65.14,65.14,0,0,0,4.6,4.93V0H217.1Z"/><path class="cls-1" d="M237.26,0V17.15a63.71,63.71,0,0,0,4.59-4.93,65.14,65.14,0,0,0,4.6,4.93V0h-9.19Z"/><path class="cls-1" d="M257.41,0V17.15a62.75,62.75,0,0,0,4.6-4.93,65.14,65.14,0,0,0,4.6,4.93V0h-9.2Z"/><path class="cls-1" d="M277.57,0V17.15a62.75,62.75,0,0,0,4.6-4.93,62.75,62.75,0,0,0,4.6,4.93V0h-9.2Z"/><path class="cls-1" d="M297.73,0V17.15a65.14,65.14,0,0,0,4.6-4.93,63.71,63.71,0,0,0,4.59,4.93V0h-9.19Z"/><path class="cls-1" d="M317.89,0V17.15a65.14,65.14,0,0,0,4.6-4.93,63.71,63.71,0,0,0,4.59,4.93V0Z"/><path class="cls-1" d="M0,12.22a62.75,62.75,0,0,0,4.6,4.93V0H0Z"/><path class="cls-1" d="M336.5.59V16.87a8,8,0,0,1-9.78,0V.59h9.78m.59-.59h-11V17.15a8.54,8.54,0,0,0,11,0V0Z"/><path class="cls-1" d="M356.66.59V16.87a8,8,0,0,1-9.79,0V.59h9.79m.59-.59h-11V17.15a8.55,8.55,0,0,0,11,0V0Z"/><path class="cls-1" d="M376.82.59V16.87a8,8,0,0,1-9.79,0V.59h9.79m.59-.59h-11V17.15a8.55,8.55,0,0,0,11,0V0Z"/><path class="cls-1" d="M397,.59V16.87a8,8,0,0,1-9.78,0V.59H397m.6-.59h-11V17.15a8.55,8.55,0,0,0,11,0V0Z"/><path class="cls-1" d="M417.13.59V16.87a8,8,0,0,1-9.78,0V.59h9.78m.59-.59h-11V17.15a8.54,8.54,0,0,0,11,0V0Z"/><path class="cls-1" d="M437.29.59V16.87a8,8,0,0,1-9.78,0V.59h9.78m.59-.59h-11V17.15a8.54,8.54,0,0,0,11,0V0Z"/><path class="cls-1" d="M457.45.59V16.87a8,8,0,0,1-9.78,0V.59h9.78M458,0h-11V17.15a8.54,8.54,0,0,0,11,0V0Z"/><path class="cls-1" d="M477.61.59V16.87a8,8,0,0,1-9.78,0V.59h9.78M478.2,0h-11V17.15a8.55,8.55,0,0,0,11,0V0Z"/><path class="cls-1" d="M497.77.59V16.87a8,8,0,0,1-9.79,0V.59h9.79m.59-.59h-11V17.15a8.55,8.55,0,0,0,11,0V0Z"/><path class="cls-1" d="M517.93.59V16.87a8,8,0,0,1-9.79,0V.59h9.79m.59-.59h-11V17.15a8.55,8.55,0,0,0,11,0V0Z"/><path class="cls-1" d="M538.08.59V16.87a8,8,0,0,1-9.78,0V.59h9.78m.59-.59h-11V17.15a8.54,8.54,0,0,0,11,0V0Z"/><path class="cls-1" d="M558.24.59V16.87a8,8,0,0,1-9.78,0V.59h9.78m.59-.59h-11V17.15a8.54,8.54,0,0,0,11,0V0Z"/><path class="cls-1" d="M578.4.59V16.87a8,8,0,0,1-9.78,0V.59h9.78M579,0H568V17.15a8.54,8.54,0,0,0,11,0V0Z"/><path class="cls-1" d="M598.56.59V16.87a8,8,0,0,1-9.78,0V.59h9.78m.59-.59h-11V17.15a8.55,8.55,0,0,0,11,0V0Z"/><path class="cls-1" d="M618.72.59V16.87a8,8,0,0,1-9.79,0V.59h9.79m.59-.59h-11V17.15a8.55,8.55,0,0,0,11,0V0Z"/><path class="cls-1" d="M638.88.59V16.87a8,8,0,0,1-9.79,0V.59h9.79m.59-.59h-11V17.15a8.55,8.55,0,0,0,11,0V0Z"/><path class="cls-1" d="M337.09,0V17.15a65.14,65.14,0,0,0,4.6-4.93,63.71,63.71,0,0,0,4.59,4.93V0h-9.19Z"/><path class="cls-1" d="M357.25,0V17.15a65.14,65.14,0,0,0,4.6-4.93,63.71,63.71,0,0,0,4.59,4.93V0h-9.19Z"/><path class="cls-1" d="M377.41,0V17.15A63.71,63.71,0,0,0,382,12.22a65.14,65.14,0,0,0,4.6,4.93V0h-9.19Z"/><path class="cls-1" d="M397.57,0V17.15a63.71,63.71,0,0,0,4.59-4.93,65.14,65.14,0,0,0,4.6,4.93V0h-9.19Z"/><path class="cls-1" d="M417.72,0V17.15a62.75,62.75,0,0,0,4.6-4.93,62.75,62.75,0,0,0,4.6,4.93V0h-9.2Z"/><path class="cls-1" d="M437.88,0V17.15a62.75,62.75,0,0,0,4.6-4.93,62.75,62.75,0,0,0,4.6,4.93V0h-9.2Z"/><path class="cls-1" d="M458,0V17.15a65.14,65.14,0,0,0,4.6-4.93,63.71,63.71,0,0,0,4.59,4.93V0H458Z"/><path class="cls-1" d="M478.2,0V17.15a65.14,65.14,0,0,0,4.6-4.93,63.71,63.71,0,0,0,4.59,4.93V0H478.2Z"/><path class="cls-1" d="M498.36,0V17.15A63.71,63.71,0,0,0,503,12.22a65.14,65.14,0,0,0,4.6,4.93V0h-9.19Z"/><path class="cls-1" d="M518.52,0V17.15a63.71,63.71,0,0,0,4.59-4.93,65.14,65.14,0,0,0,4.6,4.93V0h-9.19Z"/><path class="cls-1" d="M538.67,0V17.15a62.75,62.75,0,0,0,4.6-4.93,65.14,65.14,0,0,0,4.6,4.93V0h-9.2Z"/><path class="cls-1" d="M558.83,0V17.15a62.75,62.75,0,0,0,4.6-4.93,62.75,62.75,0,0,0,4.6,4.93V0h-9.2Z"/><path class="cls-1" d="M579,0V17.15a65.14,65.14,0,0,0,4.6-4.93,63.71,63.71,0,0,0,4.59,4.93V0H579Z"/><path class="cls-1" d="M599.15,0V17.15a65.14,65.14,0,0,0,4.6-4.93,63.71,63.71,0,0,0,4.59,4.93V0h-9.19Z"/><path class="cls-1" d="M619.31,0V17.15a65.14,65.14,0,0,0,4.6-4.93,63.71,63.71,0,0,0,4.59,4.93V0h-9.19Z"/><path class="cls-1" d="M639.47,0V17.15a63.71,63.71,0,0,0,4.59-4.93,65.14,65.14,0,0,0,4.6,4.93V0Z"/><path class="cls-1" d="M317,0V17.15a65.14,65.14,0,0,0,4.6-4.93,63.71,63.71,0,0,0,4.59,4.93V0H317Z"/><path class="cls-1" d="M659,.59V16.87a8,8,0,0,1-9.79,0V.59H659m.59-.59h-11V17.15a8.55,8.55,0,0,0,11,0V0Z"/><path class="cls-1" d="M679.14.59V16.87a8,8,0,0,1-9.78,0V.59h9.78m.6-.59h-11V17.15a8.55,8.55,0,0,0,11,0V0Z"/><path class="cls-1" d="M699.3.59V16.87a8,8,0,0,1-9.78,0V.59h9.78m.59-.59h-11V17.15a8.54,8.54,0,0,0,11,0V0Z"/><path class="cls-1" d="M719.46.59V16.87a8,8,0,0,1-9.78,0V.59h9.78m.59-.59h-11V17.15a8.54,8.54,0,0,0,11,0V0Z"/><path class="cls-1" d="M739.62.59V16.87a8,8,0,0,1-9.78,0V.59h9.78m.59-.59h-11V17.15a8.54,8.54,0,0,0,11,0V0Z"/><path class="cls-1" d="M759.78.59V16.87a8,8,0,0,1-9.78,0V.59h9.78m.59-.59h-11V17.15a8.55,8.55,0,0,0,11,0V0Z"/><path class="cls-1" d="M779.94.59V16.87a8,8,0,0,1-9.79,0V.59h9.79m.59-.59h-11V17.15a8.55,8.55,0,0,0,11,0V0Z"/><path class="cls-1" d="M800.1.59V16.87a8,8,0,0,1-9.79,0V.59h9.79m.59-.59h-11V17.15a8.55,8.55,0,0,0,11,0V0Z"/><path class="cls-1" d="M820.25.59V16.87a8,8,0,0,1-9.78,0V.59h9.78m.59-.59h-11V17.15a8.54,8.54,0,0,0,11,0V0Z"/><path class="cls-1" d="M840.41.59V16.87a8,8,0,0,1-9.78,0V.59h9.78M841,0H830V17.15a8.54,8.54,0,0,0,11,0V0Z"/><path class="cls-1" d="M860.57.59V16.87a8,8,0,0,1-9.78,0V.59h9.78m.59-.59h-11V17.15a8.54,8.54,0,0,0,11,0V0Z"/><path class="cls-1" d="M880.73.59V16.87a8,8,0,0,1-9.78,0V.59h9.78m.59-.59h-11V17.15a8.55,8.55,0,0,0,11,0V0Z"/><path class="cls-1" d="M900.89.59V16.87a8,8,0,0,1-9.79,0V.59h9.79m.59-.59h-11V17.15a8.55,8.55,0,0,0,11,0V0Z"/><path class="cls-1" d="M921.05.59V16.87a8,8,0,0,1-9.79,0V.59h9.79m.59-.59h-11V17.15a8.55,8.55,0,0,0,11,0V0Z"/><path class="cls-1" d="M941.2.59V16.87a8,8,0,0,1-9.78,0V.59h9.78m.6-.59h-11V17.15a8.55,8.55,0,0,0,11,0V0Z"/><path class="cls-1" d="M961.36.59V16.87a8,8,0,0,1-9.78,0V.59h9.78M962,0H951V17.15a8.54,8.54,0,0,0,11,0V0Z"/><path class="cls-1" d="M659.58,0V17.15a63.71,63.71,0,0,0,4.59-4.93,65.14,65.14,0,0,0,4.6,4.93V0h-9.19Z"/><path class="cls-1" d="M679.74,0V17.15a63.71,63.71,0,0,0,4.59-4.93,65.14,65.14,0,0,0,4.6,4.93V0h-9.19Z"/><path class="cls-1" d="M699.89,0V17.15a62.75,62.75,0,0,0,4.6-4.93,62.75,62.75,0,0,0,4.6,4.93V0h-9.2Z"/><path class="cls-1" d="M720.05,0V17.15a62.75,62.75,0,0,0,4.6-4.93,62.75,62.75,0,0,0,4.6,4.93V0h-9.2Z"/><path class="cls-1" d="M740.21,0V17.15a65.14,65.14,0,0,0,4.6-4.93,63.71,63.71,0,0,0,4.59,4.93V0h-9.19Z"/><path class="cls-1" d="M760.37,0V17.15a65.14,65.14,0,0,0,4.6-4.93,63.71,63.71,0,0,0,4.59,4.93V0h-9.19Z"/><path class="cls-1" d="M780.53,0V17.15a63.71,63.71,0,0,0,4.59-4.93,65.14,65.14,0,0,0,4.6,4.93V0h-9.19Z"/><path class="cls-1" d="M800.69,0V17.15a63.71,63.71,0,0,0,4.59-4.93,65.14,65.14,0,0,0,4.6,4.93V0h-9.19Z"/><path class="cls-1" d="M820.84,0V17.15a62.75,62.75,0,0,0,4.6-4.93,65.14,65.14,0,0,0,4.6,4.93V0h-9.2Z"/><path class="cls-1" d="M841,0V17.15a62.75,62.75,0,0,0,4.6-4.93,62.75,62.75,0,0,0,4.6,4.93V0H841Z"/><path class="cls-1" d="M861.16,0V17.15a65.14,65.14,0,0,0,4.6-4.93,63.71,63.71,0,0,0,4.59,4.93V0h-9.19Z"/><path class="cls-1" d="M881.32,0V17.15a65.14,65.14,0,0,0,4.6-4.93,63.71,63.71,0,0,0,4.59,4.93V0h-9.19Z"/><path class="cls-1" d="M901.48,0V17.15a63.71,63.71,0,0,0,4.59-4.93,65.14,65.14,0,0,0,4.6,4.93V0h-9.19Z"/><path class="cls-1" d="M921.64,0V17.15a63.71,63.71,0,0,0,4.59-4.93,65.14,65.14,0,0,0,4.6,4.93V0h-9.19Z"/><path class="cls-1" d="M941.8,0V17.15a63.71,63.71,0,0,0,4.59-4.93,65.14,65.14,0,0,0,4.6,4.93V0H941.8Z"/><path class="cls-1" d="M962,0V17.15a62.75,62.75,0,0,0,4.6-4.93V0Z"/><path class="cls-1" d="M639.47,0V17.15a63.71,63.71,0,0,0,4.59-4.93,65.14,65.14,0,0,0,4.6,4.93V0h-9.19Z"/></svg>