<svg id="Layer_1" data-name="Layer 1" xmlns="http://www.w3.org/2000/svg" viewBox="0 0 286.68 45.96"><defs><style>.cls-1{fill:#6a0f1d;}</style></defs><title>Artboard 41</title><path class="cls-1" d="M1.68,43.74h15.6v1.68H0v-42H1.68Zm18.42-7.2v6H2.76V.54h7.5v36Z"/><path class="cls-1" d="M25.2,43.68H31v1.74h-7.5v-42H25.2ZM33.78.54v42h-7.5V.54Z"/><path class="cls-1" d="M52.44,44.22a14.51,14.51,0,0,0,4.5-.66A11.26,11.26,0,0,1,49.62,46c-8.34,0-11.34-5.16-11.34-9.48V12.3a9,9,0,0,1,2.1-5.88A13.42,13.42,0,0,0,40,9.48V33.72C40,38.94,43.8,44.22,52.44,44.22ZM63.36,12.66H55.8V9.48A3.65,3.65,0,0,0,52.44,6,3.75,3.75,0,0,0,48.6,9.48V33.6a3.75,3.75,0,0,0,3.84,3.48c2.76,0,4.2-2,4.2-5.46V25.26h-4.2v-6H63.36v13c0,5.64-3.42,10.86-10.92,10.86C44.1,43.08,41,38,41,33.66V9.42C41,5.1,44.1,0,52.44,0c7.5,0,10.92,5.1,10.92,9.42ZM53.88,34.5V28.14H49.74v-6h1.62v4.32h4.2v5.22c0,2.22-.6,3.54-1.8,4.08A8.17,8.17,0,0,0,53.88,34.5Zm-.84-19V12.36a3.77,3.77,0,0,0-3.18-3.48,2.61,2.61,0,0,1,2.58-1.74,2.58,2.58,0,0,1,2.28,2.4v4.32H60.6v1.68Z"/><path class="cls-1" d="M69.54,43.74h5.82v1.68h-7.5v-42h1.68Zm24-43.2v42H86V22.86H78.12V42.54h-7.5V.54h7.5V16.86H86V.54ZM84.9,43.74h5.82v1.68h-7.5V25.68h-4V24H84.9Zm0-28H83.22V3.42H84.9Z"/><path class="cls-1" d="M106.38,43.68h5.76v1.68h-7.5v-36H97v-6h1.68V7.68h7.74ZM122.7.54v6H115v36h-7.5v-36H99.78v-6Zm-6.6,7.14h3.78V9.36H116.1Z"/><path class="cls-1" d="M126.78,43.68h17.28v1.74h-19v-42h1.68Zm20.1-7.2v6.06h-19V.54H146V6.6H135.42V16.86H143v6h-7.56V36.48ZM136.5,9.42V7.68h6.72V9.42Zm0,16.26V24h3.72v1.68Z"/><path class="cls-1" d="M151,43.68h5.82v1.74h-7.5v-42H151Zm11-18c-1.08,0-2-.06-2.34-.06V42.54h-7.5V.54h12.54c7.2,0,10.62,5.28,10.62,12,0,6.24-2.7,10.26-6.3,12.06l7.92,17.94h-7.8Zm0-6.42c4.8,0,6.18-.54,6.18-6.72,0-3.36-.78-5.94-3.72-5.94h-4.8V19.26Zm5-6.66c0,3.66-.36,4.92-1.8,5.34a15.34,15.34,0,0,0,.12-2.52c0-3.36-.72-6-3.72-6h-.9V7.68h3.72C165.72,7.68,167,8.34,167,12.6Zm6.36,31.14.72,1.68h-7.74l-5.64-13.2v-5.4h.54l7.14,16.92Z"/><path class="cls-1" d="M195.9,24c-4.32-4.32-5.58-6-5.58-11.7a9.07,9.07,0,0,1,2.1-5.94A12.65,12.65,0,0,0,192,9.48c0,6,1.62,8.22,5.94,12.54l6.18,6.24a6.72,6.72,0,0,1,2.22,5,2.43,2.43,0,0,1-1.68,2.64,8.66,8.66,0,0,0-2.4-5.58l-.48-.42V28.2H200.1Zm8.16,20.28a15.77,15.77,0,0,0,5.16-.84A12.75,12.75,0,0,1,201.3,46c-6.06,0-10.92-3.36-10.92-9.48V32.16h1.74v1.56C192.12,40,196.92,44.28,204.06,44.28Zm11.16-10.62c0,6.06-5.16,9.42-11.16,9.42s-10.86-3.36-10.86-9.42V29.28h7.44v4c0,2.52,1.56,3.84,3.42,3.84s3.36-1.44,3.36-3.84a7.62,7.62,0,0,0-2.4-5.76l-6.3-6.3c-4.32-4.32-5.58-6.06-5.58-11.76S197.7,0,204.06,0s10.86,3.78,10.86,9.42V12.3h-7.5V10.62c0-3-1.56-4.68-3.36-4.68a3.36,3.36,0,0,0-3.42,3.3c0,1.92.48,3.24,2.22,5.22l7.5,8.64C213.36,26.46,215.22,28.74,215.22,33.66ZM204.66,14.94v-1.5c0-2.64-1.26-4.26-2.82-4.56a2.26,2.26,0,0,1,2.22-1.74c1.38,0,2.28,1.38,2.28,3.54v2.76h5.82v1.68h-7.32Z"/><path class="cls-1" d="M221.4,43.68h5.82v1.74h-7.5v-42h1.68ZM230,.54v42h-7.5V.54Z"/><path class="cls-1" d="M251.1,43.68a10.12,10.12,0,0,0,3-.48,8.77,8.77,0,0,1-5.82,2.22h-13.5v-42h1.68V43.68H251.1Zm9.3-31.14v18c0,6.42-2.82,12-9.3,12H237.6V.54h13.5a9,9,0,0,1,8.76,7A22.62,22.62,0,0,1,260.4,12.54Zm-7.08,0c0-3.36-.72-5.94-3.78-5.94H245.1V36.48h4.44c3.06,0,3.78-2.58,3.78-5.94Zm-1.14.06v18c0,3.36-.78,4.44-1.8,4.8.06-.66.12-1.32.12-2V15.42c0-3.42-.72-6-3.72-6h-.6V7.68h3.36C251,7.68,252.18,8.34,252.18,12.6Z"/><path class="cls-1" d="M266.58,43.68h17.28v1.74h-19v-42h1.68Zm20.1-7.2v6.06h-19V.54h18.12V6.6H275.22V16.86h7.56v6h-7.56V36.48ZM276.3,9.42V7.68H283V9.42Zm0,16.26V24H280v1.68Z"/></svg>