<svg id="Layer_1" data-name="Layer 1" xmlns="http://www.w3.org/2000/svg" viewBox="0 0 69.9 45.96"><defs><style>.cls-1{fill:#6a0f1d;}</style></defs><title>Artboard 47</title><path class="cls-1" d="M14.16,44.22a14.51,14.51,0,0,0,4.5-.66A11.26,11.26,0,0,1,11.34,46C3,46,0,40.8,0,36.48V12.3A9,9,0,0,1,2.1,6.42a13.42,13.42,0,0,0-.42,3.06V33.72C1.68,38.94,5.52,44.22,14.16,44.22ZM25.08,12.66H17.52V9.48A3.65,3.65,0,0,0,14.16,6a3.75,3.75,0,0,0-3.84,3.48V33.6a3.75,3.75,0,0,0,3.84,3.48c2.76,0,4.2-2,4.2-5.46V25.26h-4.2v-6H25.08v13c0,5.64-3.42,10.86-10.92,10.86-8.34,0-11.4-5.1-11.4-9.42V9.42C2.76,5.1,5.82,0,14.16,0c7.5,0,10.92,5.1,10.92,9.42ZM15.6,34.5V28.14H11.46v-6h1.62v4.32h4.2v5.22c0,2.22-.6,3.54-1.8,4.08A8.17,8.17,0,0,0,15.6,34.5Zm-.84-19V12.36a3.77,3.77,0,0,0-3.18-3.48,2.61,2.61,0,0,1,2.58-1.74,2.58,2.58,0,0,1,2.28,2.4v4.32h5.88v1.68Z"/><path class="cls-1" d="M31.26,43.68h5.82v1.74h-7.5v-42h1.68ZM39.84.54v42h-7.5V.54Z"/><path class="cls-1" d="M46.32,43.74h5.82v1.68h-7.5v-42h1.68ZM69.9.54v42H62.4L55,18.54H54.9v24H47.4V.54h7.92l7,23.34h.12V.54Zm-8.34,43.2h5.58v1.68h-7.5L56,33.72v-8.1Zm-.24-26.82-1.68-5.7V3.42h1.68Z"/></svg>