<svg id="Layer_1" data-name="Layer 1" xmlns="http://www.w3.org/2000/svg" viewBox="0 0 94.66 94.51"><defs><style>.cls-1{fill:#212a59;}</style></defs><title>Artboard 17</title><path class="cls-1" d="M64.4,94.51H30.31c-2.3-.22-4.6-.38-6.88-.65C11.53,92.46,3.05,84.56,1,72.78.44,70,.31,67.06,0,64.2V30.1c.11-1.41.27-2.81.34-4.22C1,11.09,11.23.58,26,.22,40.25-.13,54.5,0,68.74.22a25.52,25.52,0,0,1,17,6.51c5.74,5.11,8.3,11.75,8.54,19.19.34,11,.34,22.08.35,33.12A111.24,111.24,0,0,1,94,71.15C92.74,83,84.71,91.48,73,93.56,70.17,94.06,67.27,94.2,64.4,94.51Zm-17-8.36c7.36-.25,14.72-.28,22.06-.81,9.37-.66,15.61-6.72,16.09-16.09.55-10.54.51-21.12.58-31.68,0-4.26-.17-8.52-.54-12.76-.71-8.15-5.47-13.65-13.26-15.4a33,33,0,0,0-6.72-.77c-8.94-.16-17.88-.27-26.81-.25-4.52,0-9,.18-13.55.55-8.74.73-14.44,5.82-15.77,14.48a92,92,0,0,0-.81,14c0,10.62,0,21.25.57,31.84.48,9.37,6.71,15.43,16.09,16.09C32.63,85.87,40,85.9,47.36,86.15Z"/><path class="cls-1" d="M71.69,47.16A24.34,24.34,0,1,1,47.36,22.82,24.21,24.21,0,0,1,71.69,47.16Zm-8.58,0a15.76,15.76,0,1,0-15.8,15.75A15.84,15.84,0,0,0,63.11,47.16Z"/><path class="cls-1" d="M78.34,21.87a5.71,5.71,0,1,1-5.67-5.7A5.66,5.66,0,0,1,78.34,21.87Z"/></svg>