<svg id="Layer_1" data-name="Layer 1" xmlns="http://www.w3.org/2000/svg" viewBox="0 0 317.51 45.96"><defs><style>.cls-1{fill:#6a0f1d;}</style></defs><title>Artboard 28</title><path class="cls-1" d="M1.74,43.74H7.5v1.68H0v-42H1.74Zm31-43.2v42h-7.5V16.62L20.4,42.54H15.18L10.44,16.62h-.12V42.54H2.82V.54H13l4.8,25.14h.12L22.68.54ZM14.28,43.74h3.66l-.3,1.68H12.36l-1-5.22V28.26Zm3.54-23.52-.6-3,2.64-13.8H21Zm6.36,23.52H30v1.68H22.5V37.5l1.68-9.24Z"/><path class="cls-1" d="M44.88,43.68,43.2,45.36h-7l8.58-42L46.14,2,37.56,43.68Zm9.84-10.92H47.46L46,42.54H38.94l8.64-42h7.5l8.64,42h-7.5Zm7.86,10.92L60.9,45.36H53.4L52,35.64H48.18L48.42,34h5.4l1.38,9.72ZM53.52,26.76,51.24,11.7h-.18L48.72,26.76Zm-2.4-8.22,1.08,7.2H50.1L50,25.32Z"/><path class="cls-1" d="M68.82,43.68h5.82v1.74h-7.5v-42h1.68ZM77.4.54v42H69.9V.54Z"/><path class="cls-1" d="M83.88,43.74H89.7v1.68H82.2v-42h1.68ZM107.46.54v42H100l-7.38-24h-.12v24H85V.54h7.92l7,23.34H100V.54Zm-8.34,43.2h5.58v1.68H97.2l-3.6-11.7v-8.1Zm-.24-26.82-1.68-5.7V3.42h1.68Z"/><path class="cls-1" d="M137.22,44.28A14,14,0,0,0,142,43.5,11.62,11.62,0,0,1,134.4,46c-8.34,0-11.34-5.16-11.34-9.48V12.3a8.66,8.66,0,0,1,2.22-5.82,8.56,8.56,0,0,0-.54,3V33.72C124.74,38.94,128.58,44.28,137.22,44.28Zm11-31.62h-7.56V9.48A3.71,3.71,0,0,0,137.22,6a3.63,3.63,0,0,0-3.72,3.48V33.6a3.63,3.63,0,0,0,3.72,3.48,3.71,3.71,0,0,0,3.42-3.48V30.42h7.56v3.24c0,4.32-3.42,9.42-11,9.42-8.34,0-11.34-5.1-11.34-9.42V9.42c0-4.32,3-9.42,11.34-9.42,7.56,0,11,5.1,11,9.42Zm-2.82,2.88h-7.56V12.36a3.65,3.65,0,0,0-3.12-3.48,2.61,2.61,0,0,1,2.52-1.68,2.53,2.53,0,0,1,2.28,2.34v4.32h7.56Zm-7.56,17.7,1.68-1.68v2.1a2.76,2.76,0,0,1-1.68,2.28Z"/><path class="cls-1" d="M164.34,44.28a16.71,16.71,0,0,0,4.74-.72,11.55,11.55,0,0,1-7.5,2.4c-8.34,0-11.28-5.16-11.28-9.42V12.3a9,9,0,0,1,2.1-5.94A13.93,13.93,0,0,0,152,9.48V33.72C152,38.94,155.76,44.28,164.34,44.28ZM175.2,9.42V33.66c0,4.26-3.36,9.42-10.86,9.42-8.28,0-11.22-5.16-11.22-9.36V9.42c0-4.26,2.94-9.42,11.22-9.42C171.84,0,175.2,5.16,175.2,9.42Zm-7.5,0a3.54,3.54,0,0,0-7.08-.06V33.54a3.6,3.6,0,0,0,3.72,3.54c2.16,0,3.36-2.28,3.36-3.54Zm-1.08.06V33.6a2.88,2.88,0,0,1-1.68,2.34V12.3a3.76,3.76,0,0,0-3.12-3.48,2.63,2.63,0,0,1,2.52-1.68A2.53,2.53,0,0,1,166.62,9.48Z"/><path class="cls-1" d="M181.38,33.72c0,5.22,3.78,10.56,12.36,10.56a14.26,14.26,0,0,0,4.74-.78A11.57,11.57,0,0,1,191,46c-8.34,0-11.28-5.1-11.28-9.42V3.42h1.68ZM204.6.54V33.72c0,4.2-3.36,9.36-10.86,9.36-8.28,0-11.22-5.16-11.22-9.36V.54H190V33.66a3.54,3.54,0,0,0,7.08,0V.54Zm-10.26,35.4V3.42H196v30.3A2.72,2.72,0,0,1,194.34,35.94Z"/><path class="cls-1" d="M211.08,43.68h5.82v1.74h-7.5v-42h1.68Zm11-18c-1.08,0-2-.06-2.34-.06V42.54h-7.5V.54h12.54c7.2,0,10.62,5.28,10.62,12,0,6.24-2.7,10.26-6.3,12.06L237,42.54h-7.8Zm0-6.42c4.8,0,6.18-.54,6.18-6.72,0-3.36-.78-5.94-3.72-5.94h-4.8V19.26Zm5-6.66c0,3.66-.36,4.92-1.8,5.34a15.34,15.34,0,0,0,.12-2.52c0-3.36-.72-6-3.72-6h-.9V7.68h3.72C225.84,7.68,227.1,8.34,227.1,12.6Zm6.36,31.14.72,1.68h-7.74l-5.64-13.2v-5.4h.54l7.14,16.92Z"/><path class="cls-1" d="M244.92,24c-4.32-4.32-5.58-6-5.58-11.7a9.07,9.07,0,0,1,2.1-5.94A12.65,12.65,0,0,0,241,9.48c0,6,1.62,8.22,5.94,12.54l6.18,6.24a6.72,6.72,0,0,1,2.22,5,2.43,2.43,0,0,1-1.68,2.64,8.66,8.66,0,0,0-2.4-5.58l-.48-.42V28.2h-1.68Zm8.16,20.28a15.77,15.77,0,0,0,5.16-.84A12.75,12.75,0,0,1,250.32,46c-6.06,0-10.92-3.36-10.92-9.48V32.16h1.74v1.56C241.14,40,245.94,44.28,253.08,44.28Zm11.16-10.62c0,6.06-5.16,9.42-11.16,9.42s-10.86-3.36-10.86-9.42V29.28h7.44v4c0,2.52,1.56,3.84,3.42,3.84s3.36-1.44,3.36-3.84a7.62,7.62,0,0,0-2.4-5.76l-6.3-6.3c-4.32-4.32-5.58-6.06-5.58-11.76S246.72,0,253.08,0s10.86,3.78,10.86,9.42V12.3h-7.5V10.62c0-3-1.56-4.68-3.36-4.68a3.36,3.36,0,0,0-3.42,3.3c0,1.92.48,3.24,2.22,5.22l7.5,8.64C262.38,26.46,264.24,28.74,264.24,33.66ZM253.68,14.94v-1.5c0-2.64-1.26-4.26-2.82-4.56a2.26,2.26,0,0,1,2.22-1.74c1.38,0,2.28,1.38,2.28,3.54v2.76h5.82v1.68h-7.32Z"/><path class="cls-1" d="M270.42,43.68h17.27v1.74H268.74v-42h1.68Zm20.09-7.2v6.06H271.56V.54h18.11V6.6H279.05V16.86h7.56v6h-7.56V36.48ZM280.13,9.42V7.68h6.72V9.42Zm0,16.26V24h3.72v1.68Z"/><path class="cls-1" d="M298.2,24c-4.32-4.32-5.58-6-5.58-11.7a9.07,9.07,0,0,1,2.1-5.94,12.65,12.65,0,0,0-.42,3.12c0,6,1.62,8.22,5.94,12.54l6.18,6.24a6.75,6.75,0,0,1,2.21,5c0,1.44-.65,2.4-1.67,2.64a8.66,8.66,0,0,0-2.4-5.58l-.48-.42V28.2H302.4Zm8.15,20.28a15.73,15.73,0,0,0,5.16-.84A12.74,12.74,0,0,1,303.6,46c-6.06,0-10.92-3.36-10.92-9.48V32.16h1.74v1.56C294.42,40,299.22,44.28,306.35,44.28Zm11.16-10.62c0,6.06-5.16,9.42-11.16,9.42s-10.85-3.36-10.85-9.42V29.28h7.44v4c0,2.52,1.56,3.84,3.41,3.84s3.36-1.44,3.36-3.84a7.58,7.58,0,0,0-2.4-5.76L301,21.18c-4.32-4.32-5.58-6.06-5.58-11.76S300,0,306.35,0s10.86,3.78,10.86,9.42V12.3h-7.5V10.62c0-3-1.56-4.68-3.36-4.68a3.35,3.35,0,0,0-3.41,3.3c0,1.92.48,3.24,2.22,5.22l7.49,8.64C315.65,26.46,317.51,28.74,317.51,33.66ZM307,14.94v-1.5c0-2.64-1.27-4.26-2.82-4.56a2.24,2.24,0,0,1,2.21-1.74c1.38,0,2.28,1.38,2.28,3.54v2.76h5.82v1.68h-7.32Z"/></svg>