<svg id="Layer_1" data-name="Layer 1" xmlns="http://www.w3.org/2000/svg" viewBox="0 0 174.36 45.96"><defs><style>.cls-1{fill:#6a0f1d;}</style></defs><title>Artboard 50</title><path class="cls-1" d="M9.42,43.68h5.76v1.68H7.68v-36H0v-6H1.68V7.68H9.42ZM25.74.54v6H18v36H10.5v-36H2.82v-6Zm-6.6,7.14h3.78V9.36H19.14Z"/><path class="cls-1" d="M29.82,43.68H47.1v1.74h-19v-42h1.68Zm20.1-7.2v6.06H31V.54H49.08V6.6H38.46V16.86H46v6H38.46V36.48ZM39.54,9.42V7.68h6.72V9.42Zm0,16.26V24h3.72v1.68Z"/><path class="cls-1" d="M73.8,43.74l1.14,1.68H68.76l-.6-1.14A11.88,11.88,0,0,1,61.8,46c-8.22,0-11.28-5.16-11.28-9.48V12.3a9.06,9.06,0,0,1,2.22-5.94,9.49,9.49,0,0,0-.54,3.12V33.72c0,5.22,3.84,10.5,12.36,10.5A13.5,13.5,0,0,0,70.5,43l.42.78ZM53.34,33.66V9.42c0-4.32,3-9.42,11.22-9.42,7.5,0,10.86,5.1,10.86,9.42V33.66a8.74,8.74,0,0,1-1,4l3.24,4.92H71.58l-.66-1.14a11.73,11.73,0,0,1-6.36,1.68C56.34,43.08,53.34,38,53.34,33.66Zm7.5-.18a3.65,3.65,0,0,0,3.72,3.6,3.44,3.44,0,0,0,2.88-1.8L65.1,31.2h2.82V9.42a3.54,3.54,0,0,0-7.08-.06ZM62,8.88a2.65,2.65,0,0,1,2.52-1.74c1.5,0,2.22,1.68,2.22,2.4V30.12H65.1V12.36A3.65,3.65,0,0,0,62,8.88ZM62.28,34H65.1V33.6l1,1.68a2,2,0,0,1-1.5.78,2.16,2.16,0,0,1-1.32-.42Z"/><path class="cls-1" d="M81.6,33.72c0,5.22,3.78,10.56,12.36,10.56a14.26,14.26,0,0,0,4.74-.78A11.57,11.57,0,0,1,91.2,46c-8.34,0-11.28-5.1-11.28-9.42V3.42H81.6ZM104.82.54V33.72c0,4.2-3.36,9.36-10.86,9.36-8.28,0-11.22-5.16-11.22-9.36V.54h7.5V33.66a3.54,3.54,0,0,0,7.08,0V.54ZM94.56,35.94V3.42h1.68v30.3A2.72,2.72,0,0,1,94.56,35.94Z"/><path class="cls-1" d="M111.3,43.68h5.82v1.74h-7.5v-42h1.68ZM119.88.54v42h-7.5V.54Z"/><path class="cls-1" d="M126.36,43.74H142v1.68H124.68v-42h1.68Zm18.42-7.2v6H127.44V.54h7.5v36Z"/><path class="cls-1" d="M155.52,43.68l-1.68,1.68h-7l8.58-42L156.78,2,148.2,43.68Zm9.84-10.92H158.1l-1.44,9.78h-7.08l8.64-42h7.5l8.64,42h-7.5Zm7.86,10.92-1.68,1.68H164l-1.44-9.72h-3.78l.24-1.68h5.4l1.38,9.72Zm-9.06-16.92L161.88,11.7h-.18l-2.34,15.06Zm-2.4-8.22,1.08,7.2h-2.1l-.06-.42Z"/></svg>