<svg id="Layer_1" data-name="Layer 1" xmlns="http://www.w3.org/2000/svg" viewBox="0 0 263.4 45.96"><defs><style>.cls-1{fill:#6a0f1d;}</style></defs><title>Artboard 29</title><path class="cls-1" d="M5.58,24C1.26,19.68,0,18,0,12.3A9.07,9.07,0,0,1,2.1,6.36a12.65,12.65,0,0,0-.42,3.12c0,6,1.62,8.22,5.94,12.54l6.18,6.24a6.72,6.72,0,0,1,2.22,5,2.43,2.43,0,0,1-1.68,2.64,8.66,8.66,0,0,0-2.4-5.58l-.48-.42V28.2H9.78Zm8.16,20.28a15.77,15.77,0,0,0,5.16-.84A12.75,12.75,0,0,1,11,46C4.92,46,.06,42.6.06,36.48V32.16H1.8v1.56C1.8,40,6.6,44.28,13.74,44.28ZM24.9,33.66c0,6.06-5.16,9.42-11.16,9.42S2.88,39.72,2.88,33.66V29.28h7.44v4c0,2.52,1.56,3.84,3.42,3.84s3.36-1.44,3.36-3.84a7.62,7.62,0,0,0-2.4-5.76l-6.3-6.3C4.08,16.86,2.82,15.12,2.82,9.42S7.38,0,13.74,0,24.6,3.78,24.6,9.42V12.3H17.1V10.62c0-3-1.56-4.68-3.36-4.68a3.36,3.36,0,0,0-3.42,3.3c0,1.92.48,3.24,2.22,5.22L20,23.1C23,26.46,24.9,28.74,24.9,33.66ZM14.34,14.94v-1.5c0-2.64-1.26-4.26-2.82-4.56a2.26,2.26,0,0,1,2.22-1.74c1.38,0,2.28,1.38,2.28,3.54v2.76h5.82v1.68H14.52Z"/><path class="cls-1" d="M31.08,43.68H36.9v1.74H29.4v-42h1.68ZM39.66.54v42h-7.5V.54Z"/><path class="cls-1" d="M60.78,43.68a10.12,10.12,0,0,0,3-.48A8.77,8.77,0,0,1,58,45.42H44.46v-42h1.68V43.68H60.78Zm9.3-31.14v18c0,6.42-2.82,12-9.3,12H47.28V.54h13.5a9,9,0,0,1,8.76,7A22.62,22.62,0,0,1,70.08,12.54Zm-7.08,0c0-3.36-.72-5.94-3.78-5.94H54.78V36.48h4.44c3.06,0,3.78-2.58,3.78-5.94Zm-1.14.06v18c0,3.36-.78,4.44-1.8,4.8.06-.66.12-1.32.12-2V15.42c0-3.42-.72-6-3.72-6h-.6V7.68h3.36C60.66,7.68,61.86,8.34,61.86,12.6Z"/><path class="cls-1" d="M76.26,43.68H93.54v1.74h-19v-42h1.68Zm20.1-7.2v6.06h-19V.54H95.52V6.6H84.9V16.86h7.56v6H84.9V36.48ZM86,9.42V7.68H92.7V9.42Zm0,16.26V24H89.7v1.68Z"/><path class="cls-1" d="M126.18,43.68a10.12,10.12,0,0,0,3-.48,8.77,8.77,0,0,1-5.82,2.22h-13.5v-42h1.68V43.68h14.64Zm9.3-31.14v18c0,6.42-2.82,12-9.3,12h-13.5V.54h13.5a9,9,0,0,1,8.76,7A22.62,22.62,0,0,1,135.48,12.54Zm-7.08,0c0-3.36-.72-5.94-3.78-5.94h-4.44V36.48h4.44c3.06,0,3.78-2.58,3.78-5.94Zm-1.14.06v18c0,3.36-.78,4.44-1.8,4.8.06-.66.12-1.32.12-2V15.42c0-3.42-.72-6-3.72-6h-.6V7.68h3.36C126.06,7.68,127.26,8.34,127.26,12.6Z"/><path class="cls-1" d="M141.66,43.68h5.82v1.74H140v-42h1.68ZM150.24.54v42h-7.5V.54Z"/><path class="cls-1" d="M160.32,24c-4.32-4.32-5.58-6-5.58-11.7a9.07,9.07,0,0,1,2.1-5.94,12.65,12.65,0,0,0-.42,3.12c0,6,1.62,8.22,5.94,12.54l6.18,6.24a6.72,6.72,0,0,1,2.22,5,2.43,2.43,0,0,1-1.68,2.64,8.66,8.66,0,0,0-2.4-5.58l-.48-.42V28.2h-1.68Zm8.16,20.28a15.77,15.77,0,0,0,5.16-.84A12.75,12.75,0,0,1,165.72,46c-6.06,0-10.92-3.36-10.92-9.48V32.16h1.74v1.56C156.54,40,161.34,44.28,168.48,44.28Zm11.16-10.62c0,6.06-5.16,9.42-11.16,9.42s-10.86-3.36-10.86-9.42V29.28h7.44v4c0,2.52,1.56,3.84,3.42,3.84s3.36-1.44,3.36-3.84a7.62,7.62,0,0,0-2.4-5.76l-6.3-6.3c-4.32-4.32-5.58-6.06-5.58-11.76S162.12,0,168.48,0s10.86,3.78,10.86,9.42V12.3h-7.5V10.62c0-3-1.56-4.68-3.36-4.68a3.36,3.36,0,0,0-3.42,3.3c0,1.92.48,3.24,2.22,5.22l7.5,8.64C177.78,26.46,179.64,28.74,179.64,33.66ZM169.08,14.94v-1.5c0-2.64-1.26-4.26-2.82-4.56a2.26,2.26,0,0,1,2.22-1.74c1.38,0,2.28,1.38,2.28,3.54v2.76h5.82v1.68h-7.32Z"/><path class="cls-1" d="M185.82,43.74h5.82v1.68h-7.5v-42h1.68Zm24-43.2v42h-7.5V22.86H194.4V42.54h-7.5V.54h7.5V16.86h7.92V.54Zm-8.64,43.2H207v1.68h-7.5V25.68h-4V24h5.64Zm0-28H199.5V3.42h1.68Z"/><path class="cls-1" d="M216.3,43.68h17.28v1.74h-19v-42h1.68Zm20.1-7.2v6.06h-19V.54h18.12V6.6H224.94V16.86h7.56v6h-7.56V36.48ZM226,9.42V7.68h6.72V9.42Zm0,16.26V24h3.72v1.68Z"/><path class="cls-1" d="M244.08,24c-4.32-4.32-5.58-6-5.58-11.7a9.07,9.07,0,0,1,2.1-5.94,12.65,12.65,0,0,0-.42,3.12c0,6,1.62,8.22,5.94,12.54l6.18,6.24a6.72,6.72,0,0,1,2.22,5,2.43,2.43,0,0,1-1.68,2.64,8.66,8.66,0,0,0-2.4-5.58l-.48-.42V28.2h-1.68Zm8.16,20.28a15.77,15.77,0,0,0,5.16-.84A12.75,12.75,0,0,1,249.48,46c-6.06,0-10.92-3.36-10.92-9.48V32.16h1.74v1.56C240.3,40,245.1,44.28,252.24,44.28ZM263.4,33.66c0,6.06-5.16,9.42-11.16,9.42s-10.86-3.36-10.86-9.42V29.28h7.44v4c0,2.52,1.56,3.84,3.42,3.84s3.36-1.44,3.36-3.84a7.62,7.62,0,0,0-2.4-5.76l-6.3-6.3c-4.32-4.32-5.58-6.06-5.58-11.76S245.88,0,252.24,0,263.1,3.78,263.1,9.42V12.3h-7.5V10.62c0-3-1.56-4.68-3.36-4.68a3.36,3.36,0,0,0-3.42,3.3c0,1.92.48,3.24,2.22,5.22l7.5,8.64C261.54,26.46,263.4,28.74,263.4,33.66ZM252.84,14.94v-1.5c0-2.64-1.26-4.26-2.82-4.56a2.26,2.26,0,0,1,2.22-1.74c1.38,0,2.28,1.38,2.28,3.54v2.76h5.82v1.68H253Z"/></svg>