<svg id="Layer_1" data-name="Layer 1" xmlns="http://www.w3.org/2000/svg" viewBox="0 0 430.2 45.96"><defs><style>.cls-1{fill:#6a0f1d;}</style></defs><title>Artboard 33</title><path class="cls-1" d="M16.32,43.68a10.12,10.12,0,0,0,3-.48,8.77,8.77,0,0,1-5.82,2.22H0v-42H1.68V43.68H16.32Zm9.3-31.14v18c0,6.42-2.82,12-9.3,12H2.82V.54h13.5a9,9,0,0,1,8.76,7A22.62,22.62,0,0,1,25.62,12.54Zm-7.08,0c0-3.36-.72-5.94-3.78-5.94H10.32V36.48h4.44c3.06,0,3.78-2.58,3.78-5.94Zm-1.14.06v18c0,3.36-.78,4.44-1.8,4.8.06-.66.12-1.32.12-2V15.42c0-3.42-.72-6-3.72-6h-.6V7.68h3.36C16.2,7.68,17.4,8.34,17.4,12.6Z"/><path class="cls-1" d="M31.8,43.68H49.08v1.74h-19v-42H31.8Zm20.1-7.2v6.06h-19V.54H51.06V6.6H40.44V16.86H48v6H40.44V36.48ZM41.52,9.42V7.68h6.72V9.42Zm0,16.26V24h3.72v1.68Z"/><path class="cls-1" d="M59.58,24C55.26,19.68,54,18,54,12.3a9.07,9.07,0,0,1,2.1-5.94,12.65,12.65,0,0,0-.42,3.12c0,6,1.62,8.22,5.94,12.54l6.18,6.24a6.72,6.72,0,0,1,2.22,5,2.43,2.43,0,0,1-1.68,2.64,8.66,8.66,0,0,0-2.4-5.58l-.48-.42V28.2H63.78Zm8.16,20.28a15.77,15.77,0,0,0,5.16-.84A12.75,12.75,0,0,1,65,46c-6.06,0-10.92-3.36-10.92-9.48V32.16H55.8v1.56C55.8,40,60.6,44.28,67.74,44.28ZM78.9,33.66c0,6.06-5.16,9.42-11.16,9.42s-10.86-3.36-10.86-9.42V29.28h7.44v4c0,2.52,1.56,3.84,3.42,3.84s3.36-1.44,3.36-3.84a7.62,7.62,0,0,0-2.4-5.76l-6.3-6.3c-4.32-4.32-5.58-6.06-5.58-11.76S61.38,0,67.74,0,78.6,3.78,78.6,9.42V12.3H71.1V10.62c0-3-1.56-4.68-3.36-4.68a3.36,3.36,0,0,0-3.42,3.3c0,1.92.48,3.24,2.22,5.22L74,23.1C77,26.46,78.9,28.74,78.9,33.66ZM68.34,14.94v-1.5c0-2.64-1.26-4.26-2.82-4.56a2.26,2.26,0,0,1,2.22-1.74c1.38,0,2.28,1.38,2.28,3.54v2.76h5.82v1.68H68.52Z"/><path class="cls-1" d="M87.78,24c-4.32-4.32-5.58-6-5.58-11.7a9.07,9.07,0,0,1,2.1-5.94,12.65,12.65,0,0,0-.42,3.12c0,6,1.62,8.22,5.94,12.54L96,28.26a6.72,6.72,0,0,1,2.22,5,2.43,2.43,0,0,1-1.68,2.64,8.66,8.66,0,0,0-2.4-5.58l-.48-.42V28.2H92Zm8.16,20.28a15.77,15.77,0,0,0,5.16-.84A12.75,12.75,0,0,1,93.18,46c-6.06,0-10.92-3.36-10.92-9.48V32.16H84v1.56C84,40,88.8,44.28,95.94,44.28ZM107.1,33.66c0,6.06-5.16,9.42-11.16,9.42s-10.86-3.36-10.86-9.42V29.28h7.44v4c0,2.52,1.56,3.84,3.42,3.84s3.36-1.44,3.36-3.84a7.62,7.62,0,0,0-2.4-5.76l-6.3-6.3C86.28,16.86,85,15.12,85,9.42S89.58,0,95.94,0,106.8,3.78,106.8,9.42V12.3H99.3V10.62c0-3-1.56-4.68-3.36-4.68a3.36,3.36,0,0,0-3.42,3.3c0,1.92.48,3.24,2.22,5.22l7.5,8.64C105.24,26.46,107.1,28.74,107.1,33.66ZM96.54,14.94v-1.5c0-2.64-1.26-4.26-2.82-4.56a2.26,2.26,0,0,1,2.22-1.74c1.38,0,2.28,1.38,2.28,3.54v2.76H104v1.68H96.72Z"/><path class="cls-1" d="M113.28,43.68h17.28v1.74h-19v-42h1.68Zm20.1-7.2v6.06h-19V.54h18.12V6.6H121.92V16.86h7.56v6h-7.56V36.48ZM123,9.42V7.68h6.72V9.42Zm0,16.26V24h3.72v1.68Z"/><path class="cls-1" d="M137.46,43.68h5.82v1.74h-7.5v-42h1.68Zm11-18c-1.08,0-2-.06-2.34-.06V42.54h-7.5V.54h12.54c7.2,0,10.62,5.28,10.62,12,0,6.24-2.7,10.26-6.3,12.06l7.92,17.94h-7.8Zm0-6.42c4.8,0,6.18-.54,6.18-6.72,0-3.36-.78-5.94-3.72-5.94h-4.8V19.26Zm5-6.66c0,3.66-.36,4.92-1.8,5.34a15.34,15.34,0,0,0,.12-2.52c0-3.36-.72-6-3.72-6h-.9V7.68h3.72C152.22,7.68,153.48,8.34,153.48,12.6Zm6.36,31.14.72,1.68h-7.74l-5.64-13.2v-5.4h.54l7.14,16.92Z"/><path class="cls-1" d="M172.86,43.68h5.76v1.68h-7.5v-36h-7.68v-6h1.68V7.68h7.74ZM189.18.54v6h-7.74v36h-7.5v-36h-7.68v-6Zm-6.6,7.14h3.78V9.36h-3.78Z"/><path class="cls-1" d="M216.54,44.28a14,14,0,0,0,4.74-.78A11.62,11.62,0,0,1,213.72,46c-8.34,0-11.34-5.16-11.34-9.48V12.3a8.66,8.66,0,0,1,2.22-5.82,8.56,8.56,0,0,0-.54,3V33.72C204.06,38.94,207.9,44.28,216.54,44.28Zm11-31.62H220V9.48A3.71,3.71,0,0,0,216.54,6a3.63,3.63,0,0,0-3.72,3.48V33.6a3.63,3.63,0,0,0,3.72,3.48A3.71,3.71,0,0,0,220,33.6V30.42h7.56v3.24c0,4.32-3.42,9.42-11,9.42-8.34,0-11.34-5.1-11.34-9.42V9.42c0-4.32,3-9.42,11.34-9.42,7.56,0,11,5.1,11,9.42Zm-2.82,2.88h-7.56V12.36A3.65,3.65,0,0,0,214,8.88a2.61,2.61,0,0,1,2.52-1.68,2.53,2.53,0,0,1,2.28,2.34v4.32h7.56Zm-7.56,17.7,1.68-1.68v2.1a2.76,2.76,0,0,1-1.68,2.28Z"/><path class="cls-1" d="M243.66,44.28a16.71,16.71,0,0,0,4.74-.72,11.55,11.55,0,0,1-7.5,2.4c-8.34,0-11.28-5.16-11.28-9.42V12.3a9,9,0,0,1,2.1-5.94,13.93,13.93,0,0,0-.42,3.12V33.72C231.3,38.94,235.08,44.28,243.66,44.28ZM254.52,9.42V33.66c0,4.26-3.36,9.42-10.86,9.42-8.28,0-11.22-5.16-11.22-9.36V9.42c0-4.26,2.94-9.42,11.22-9.42C251.16,0,254.52,5.16,254.52,9.42Zm-7.5,0a3.54,3.54,0,0,0-7.08-.06V33.54a3.6,3.6,0,0,0,3.72,3.54c2.16,0,3.36-2.28,3.36-3.54Zm-1.08.06V33.6a2.88,2.88,0,0,1-1.68,2.34V12.3a3.76,3.76,0,0,0-3.12-3.48,2.63,2.63,0,0,1,2.52-1.68A2.53,2.53,0,0,1,245.94,9.48Z"/><path class="cls-1" d="M272.88,44.28a14,14,0,0,0,4.74-.78A11.62,11.62,0,0,1,270.06,46c-8.34,0-11.34-5.16-11.34-9.48V12.3a8.66,8.66,0,0,1,2.22-5.82,8.56,8.56,0,0,0-.54,3V33.72C260.4,38.94,264.24,44.28,272.88,44.28Zm11-31.62H276.3V9.48A3.71,3.71,0,0,0,272.88,6a3.63,3.63,0,0,0-3.72,3.48V33.6a3.63,3.63,0,0,0,3.72,3.48,3.71,3.71,0,0,0,3.42-3.48V30.42h7.56v3.24c0,4.32-3.42,9.42-11,9.42-8.34,0-11.34-5.1-11.34-9.42V9.42c0-4.32,3-9.42,11.34-9.42,7.56,0,11,5.1,11,9.42ZM281,15.54h-7.56V12.36a3.65,3.65,0,0,0-3.12-3.48,2.61,2.61,0,0,1,2.52-1.68,2.53,2.53,0,0,1,2.28,2.34v4.32h7.56Zm-7.56,17.7,1.68-1.68v2.1a2.76,2.76,0,0,1-1.68,2.28Z"/><path class="cls-1" d="M288.84,43.74h5.82v1.68h-7.5v-42h1.68Zm16.86-1.2L298,26.46h-.36l-.24.3V42.54h-7.5V.54h7.5v15h.18l7.32-15h7.14L302,19.26l12.36,23.28Zm4.92,1.2.9,1.68h-8.58l-4.38-9.12V30.18L305,43.74Z"/><path class="cls-1" d="M323.22,43.68H329v1.68h-7.5v-36H313.8v-6h1.68V7.68h7.74ZM339.54.54v6H331.8v36h-7.5v-36h-7.68v-6Zm-6.6,7.14h3.78V9.36h-3.78Z"/><path class="cls-1" d="M344.76,43.68l-1.68,1.68h-7l8.58-42L346,2l-8.58,41.64Zm9.84-10.92h-7.26l-1.44,9.78h-7.08l8.64-42H355l8.64,42h-7.5Zm7.86,10.92-1.68,1.68h-7.5l-1.44-9.72h-3.78L348.3,34h5.4l1.38,9.72ZM353.4,26.76,351.12,11.7h-.18L348.6,26.76ZM351,18.54l1.08,7.2H350l-.06-.42Z"/><path class="cls-1" d="M368.7,43.68h5.82v1.74H367v-42h1.68ZM377.28.54v42h-7.5V.54Z"/><path class="cls-1" d="M383.76,43.74h15.6v1.68H382.08v-42h1.68Zm18.42-7.2v6H384.84V.54h7.5v36Z"/><path class="cls-1" d="M410.88,24c-4.32-4.32-5.58-6-5.58-11.7a9.07,9.07,0,0,1,2.1-5.94A12.65,12.65,0,0,0,407,9.48c0,6,1.62,8.22,5.94,12.54l6.18,6.24a6.72,6.72,0,0,1,2.22,5,2.43,2.43,0,0,1-1.68,2.64,8.66,8.66,0,0,0-2.4-5.58l-.48-.42V28.2h-1.68ZM419,44.28a15.77,15.77,0,0,0,5.16-.84A12.75,12.75,0,0,1,416.28,46c-6.06,0-10.92-3.36-10.92-9.48V32.16h1.74v1.56C407.1,40,411.9,44.28,419,44.28ZM430.2,33.66c0,6.06-5.16,9.42-11.16,9.42s-10.86-3.36-10.86-9.42V29.28h7.44v4c0,2.52,1.56,3.84,3.42,3.84s3.36-1.44,3.36-3.84a7.62,7.62,0,0,0-2.4-5.76l-6.3-6.3c-4.32-4.32-5.58-6.06-5.58-11.76S412.68,0,419,0,429.9,3.78,429.9,9.42V12.3h-7.5V10.62c0-3-1.56-4.68-3.36-4.68a3.36,3.36,0,0,0-3.42,3.3c0,1.92.48,3.24,2.22,5.22l7.5,8.64C428.34,26.46,430.2,28.74,430.2,33.66ZM419.64,14.94v-1.5c0-2.64-1.26-4.26-2.82-4.56A2.26,2.26,0,0,1,419,7.14c1.38,0,2.28,1.38,2.28,3.54v2.76h5.82v1.68h-7.32Z"/></svg>