<svg id="Layer_1" data-name="Layer 1" xmlns="http://www.w3.org/2000/svg" viewBox="0 0 227.82 45.96"><defs><style>.cls-1{fill:#6a0f1d;}</style></defs><title>Artboard 42</title><path class="cls-1" d="M14.16,44.28a14,14,0,0,0,4.74-.78A11.62,11.62,0,0,1,11.34,46C3,46,0,40.8,0,36.48V12.3A8.66,8.66,0,0,1,2.22,6.48a8.56,8.56,0,0,0-.54,3V33.72C1.68,38.94,5.52,44.28,14.16,44.28Zm11-31.62H17.58V9.48A3.71,3.71,0,0,0,14.16,6a3.63,3.63,0,0,0-3.72,3.48V33.6a3.63,3.63,0,0,0,3.72,3.48,3.71,3.71,0,0,0,3.42-3.48V30.42h7.56v3.24c0,4.32-3.42,9.42-11,9.42-8.34,0-11.34-5.1-11.34-9.42V9.42C2.82,5.1,5.82,0,14.16,0c7.56,0,11,5.1,11,9.42Zm-2.82,2.88H14.76V12.36a3.65,3.65,0,0,0-3.12-3.48A2.61,2.61,0,0,1,14.16,7.2a2.53,2.53,0,0,1,2.28,2.34v4.32H24Zm-7.56,17.7,1.68-1.68v2.1a2.76,2.76,0,0,1-1.68,2.28Z"/><path class="cls-1" d="M41.28,44.28A16.71,16.71,0,0,0,46,43.56a11.55,11.55,0,0,1-7.5,2.4c-8.34,0-11.28-5.16-11.28-9.42V12.3a9,9,0,0,1,2.1-5.94,13.93,13.93,0,0,0-.42,3.12V33.72C28.92,38.94,32.7,44.28,41.28,44.28ZM52.14,9.42V33.66c0,4.26-3.36,9.42-10.86,9.42-8.28,0-11.22-5.16-11.22-9.36V9.42C30.06,5.16,33,0,41.28,0,48.78,0,52.14,5.16,52.14,9.42Zm-7.5,0a3.54,3.54,0,0,0-7.08-.06V33.54a3.6,3.6,0,0,0,3.72,3.54c2.16,0,3.36-2.28,3.36-3.54Zm-1.08.06V33.6a2.88,2.88,0,0,1-1.68,2.34V12.3a3.76,3.76,0,0,0-3.12-3.48,2.63,2.63,0,0,1,2.52-1.68A2.53,2.53,0,0,1,43.56,9.48Z"/><path class="cls-1" d="M70.5,44.28a14,14,0,0,0,4.74-.78A11.62,11.62,0,0,1,67.68,46c-8.34,0-11.34-5.16-11.34-9.48V12.3a8.66,8.66,0,0,1,2.22-5.82,8.56,8.56,0,0,0-.54,3V33.72C58,38.94,61.86,44.28,70.5,44.28Zm11-31.62H73.92V9.48A3.71,3.71,0,0,0,70.5,6a3.63,3.63,0,0,0-3.72,3.48V33.6a3.63,3.63,0,0,0,3.72,3.48,3.71,3.71,0,0,0,3.42-3.48V30.42h7.56v3.24c0,4.32-3.42,9.42-11,9.42-8.34,0-11.34-5.1-11.34-9.42V9.42C59.16,5.1,62.16,0,70.5,0c7.56,0,11,5.1,11,9.42Zm-2.82,2.88H71.1V12.36A3.65,3.65,0,0,0,68,8.88,2.61,2.61,0,0,1,70.5,7.2a2.53,2.53,0,0,1,2.28,2.34v4.32h7.56ZM71.1,33.24l1.68-1.68v2.1a2.76,2.76,0,0,1-1.68,2.28Z"/><path class="cls-1" d="M86.46,43.74h5.82v1.68h-7.5v-42h1.68Zm16.86-1.2L95.64,26.46h-.36l-.24.3V42.54h-7.5V.54H95v15h.18l7.32-15h7.14L99.6,19.26,112,42.54Zm4.92,1.2.9,1.68h-8.58L96.18,36.3V30.18l6.42,13.56Z"/><path class="cls-1" d="M120.84,43.68h5.76v1.68h-7.5v-36h-7.68v-6h1.68V7.68h7.74ZM137.16.54v6h-7.74v36h-7.5v-36h-7.68v-6Zm-6.6,7.14h3.78V9.36h-3.78Z"/><path class="cls-1" d="M142.38,43.68l-1.68,1.68h-7l8.58-42L143.64,2l-8.58,41.64Zm9.84-10.92H145l-1.44,9.78h-7.08l8.64-42h7.5l8.64,42h-7.5Zm7.86,10.92-1.68,1.68h-7.5l-1.44-9.72h-3.78l.24-1.68h5.4l1.38,9.72ZM151,26.76,148.74,11.7h-.18l-2.34,15.06Zm-2.4-8.22,1.08,7.2h-2.1l-.06-.42Z"/><path class="cls-1" d="M166.32,43.68h5.82v1.74h-7.5v-42h1.68ZM174.9.54v42h-7.5V.54Z"/><path class="cls-1" d="M181.38,43.74H197v1.68H179.7v-42h1.68Zm18.42-7.2v6H182.46V.54H190v36Z"/><path class="cls-1" d="M208.5,24c-4.32-4.32-5.58-6-5.58-11.7A9.07,9.07,0,0,1,205,6.36a12.65,12.65,0,0,0-.42,3.12c0,6,1.62,8.22,5.94,12.54l6.18,6.24a6.72,6.72,0,0,1,2.22,5,2.43,2.43,0,0,1-1.68,2.64,8.66,8.66,0,0,0-2.4-5.58l-.48-.42V28.2H212.7Zm8.16,20.28a15.77,15.77,0,0,0,5.16-.84A12.75,12.75,0,0,1,213.9,46C207.84,46,203,42.6,203,36.48V32.16h1.74v1.56C204.72,40,209.52,44.28,216.66,44.28Zm11.16-10.62c0,6.06-5.16,9.42-11.16,9.42s-10.86-3.36-10.86-9.42V29.28h7.44v4c0,2.52,1.56,3.84,3.42,3.84S220,35.64,220,33.24a7.62,7.62,0,0,0-2.4-5.76l-6.3-6.3c-4.32-4.32-5.58-6.06-5.58-11.76S210.3,0,216.66,0s10.86,3.78,10.86,9.42V12.3H220V10.62c0-3-1.56-4.68-3.36-4.68a3.36,3.36,0,0,0-3.42,3.3c0,1.92.48,3.24,2.22,5.22L223,23.1C226,26.46,227.82,28.74,227.82,33.66ZM217.26,14.94v-1.5c0-2.64-1.26-4.26-2.82-4.56a2.26,2.26,0,0,1,2.22-1.74c1.38,0,2.28,1.38,2.28,3.54v2.76h5.82v1.68h-7.32Z"/></svg>