<svg id="Layer_1" data-name="Layer 1" xmlns="http://www.w3.org/2000/svg" viewBox="0 0 274.5 45.96"><defs><style>.cls-1{fill:#6a0f1d;}</style></defs><title>Artboard 25</title><path class="cls-1" d="M1.68,43.74H7.5v1.68H0v-42H1.68Zm24-43.2v42h-7.5V22.86H10.26V42.54H2.76V.54h7.5V16.86h7.92V.54ZM17,43.74h5.82v1.68h-7.5V25.68h-4V24H17Zm0-28H15.36V3.42H17Z"/><path class="cls-1" d="M37.8,43.68l-1.68,1.68h-7l8.58-42L39.06,2,30.48,43.68Zm9.84-10.92H40.38l-1.44,9.78H31.86L40.5.54H48l8.64,42h-7.5ZM55.5,43.68l-1.68,1.68h-7.5l-1.44-9.72H41.1L41.34,34h5.4l1.38,9.72ZM46.44,26.76,44.16,11.7H44L41.64,26.76ZM44,18.54l1.08,7.2H43L43,25.32Z"/><path class="cls-1" d="M61.74,43.68h5.82v1.74h-7.5v-42h1.68ZM85.2,12.54c0,8.7-5.28,13.14-10.8,13.14-.48,0-3.54,0-4-.06V42.54h-7.5V.54h11.7C81.78.54,85.2,5.82,85.2,12.54Zm-7.14,0c0-3.36-.78-5.94-3.72-5.94h-4V19.26h1.5C76.68,19.26,78.06,18.72,78.06,12.54Zm-1.14.06c0,3.66-.36,4.92-1.8,5.34a15.34,15.34,0,0,0,.12-2.52c0-3.36-.72-6-3.72-6l-.06-1.74h2.88C75.66,7.68,76.92,8.34,76.92,12.6Zm1.14,13.62a10.27,10.27,0,0,1-6.6,2.28V26.82C75.48,26.82,75.78,26.88,78.06,26.22Z"/><path class="cls-1" d="M90.48,43.68H96.3v1.74H88.8v-42h1.68Zm23.46-31.14c0,8.7-5.28,13.14-10.8,13.14-.48,0-3.54,0-4-.06V42.54h-7.5V.54h11.7C110.52.54,113.94,5.82,113.94,12.54Zm-7.14,0c0-3.36-.78-5.94-3.72-5.94h-4V19.26h1.5C105.42,19.26,106.8,18.72,106.8,12.54Zm-1.14.06c0,3.66-.36,4.92-1.8,5.34a15.34,15.34,0,0,0,.12-2.52c0-3.36-.72-6-3.72-6l-.06-1.74h2.88C104.4,7.68,105.66,8.34,105.66,12.6Zm1.14,13.62a10.27,10.27,0,0,1-6.6,2.28V26.82C104.22,26.82,104.52,26.88,106.8,26.22Z"/><path class="cls-1" d="M125.94,43.74h5.58v1.68h-7.26V29.1l-8.7-25.68h2.58l7.8,23ZM143.1.54l-8.82,25.68V42.54h-7.2V26.22L118.32.54h7.38l5.1,20.22L135.72.54ZM130.8,16.38l-.54-2,2.64-11h1Z"/><path class="cls-1" d="M159.3,43.74h5.82v1.68h-7.5v-42h1.68Zm24-43.2v42h-7.5V22.86h-7.92V42.54h-7.5V.54h7.5V16.86h7.92V.54Zm-8.64,43.2h5.82v1.68H173V25.68h-4V24h5.64Zm0-28H173V3.42h1.68Z"/><path class="cls-1" d="M201.84,44.28a16.71,16.71,0,0,0,4.74-.72,11.55,11.55,0,0,1-7.5,2.4c-8.34,0-11.28-5.16-11.28-9.42V12.3a9,9,0,0,1,2.1-5.94,13.93,13.93,0,0,0-.42,3.12V33.72C189.48,38.94,193.26,44.28,201.84,44.28ZM212.7,9.42V33.66c0,4.26-3.36,9.42-10.86,9.42-8.28,0-11.22-5.16-11.22-9.36V9.42c0-4.26,2.94-9.42,11.22-9.42C209.34,0,212.7,5.16,212.7,9.42Zm-7.5,0a3.54,3.54,0,0,0-7.08-.06V33.54a3.6,3.6,0,0,0,3.72,3.54c2.16,0,3.36-2.28,3.36-3.54Zm-1.08.06V33.6a2.88,2.88,0,0,1-1.68,2.34V12.3a3.76,3.76,0,0,0-3.12-3.48,2.63,2.63,0,0,1,2.52-1.68A2.53,2.53,0,0,1,204.12,9.48Z"/><path class="cls-1" d="M218.88,33.72c0,5.22,3.78,10.56,12.36,10.56A14.26,14.26,0,0,0,236,43.5a11.57,11.57,0,0,1-7.5,2.46c-8.34,0-11.28-5.1-11.28-9.42V3.42h1.68ZM242.1.54V33.72c0,4.2-3.36,9.36-10.86,9.36C223,43.08,220,37.92,220,33.72V.54h7.5V33.66a3.54,3.54,0,0,0,7.08,0V.54Zm-10.26,35.4V3.42h1.68v30.3A2.72,2.72,0,0,1,231.84,35.94Z"/><path class="cls-1" d="M248.58,43.68h5.82v1.74h-7.5v-42h1.68Zm11-18c-1.08,0-2-.06-2.34-.06V42.54h-7.5V.54h12.54c7.2,0,10.62,5.28,10.62,12,0,6.24-2.71,10.26-6.3,12.06l7.92,17.94h-7.8Zm0-6.42c4.8,0,6.18-.54,6.18-6.72,0-3.36-.78-5.94-3.72-5.94h-4.8V19.26Zm5-6.66c0,3.66-.36,4.92-1.8,5.34a15.34,15.34,0,0,0,.12-2.52c0-3.36-.72-6-3.72-6h-.9V7.68H262C263.34,7.68,264.6,8.34,264.6,12.6ZM271,43.74l.71,1.68h-7.73l-5.64-13.2v-5.4h.54L266,43.74Z"/></svg>