<svg id="Layer_1" data-name="Layer 1" xmlns="http://www.w3.org/2000/svg" viewBox="0 0 332.15 45.96"><defs><style>.cls-1{fill:#6a0f1d;}</style></defs><title>Artboard 54</title><path class="cls-1" d="M14,44.28a16.71,16.71,0,0,0,4.74-.72,11.55,11.55,0,0,1-7.5,2.4C2.94,46,0,40.8,0,36.54V12.3A9,9,0,0,1,2.1,6.36a13.93,13.93,0,0,0-.42,3.12V33.72C1.68,38.94,5.46,44.28,14,44.28ZM24.9,9.42V33.66c0,4.26-3.36,9.42-10.86,9.42-8.28,0-11.22-5.16-11.22-9.36V9.42C2.82,5.16,5.76,0,14,0,21.54,0,24.9,5.16,24.9,9.42Zm-7.5,0a3.54,3.54,0,0,0-7.08-.06V33.54A3.6,3.6,0,0,0,14,37.08c2.16,0,3.36-2.28,3.36-3.54Zm-1.08.06V33.6a2.88,2.88,0,0,1-1.68,2.34V12.3a3.76,3.76,0,0,0-3.12-3.48A2.63,2.63,0,0,1,14,7.14,2.53,2.53,0,0,1,16.32,9.48Z"/><path class="cls-1" d="M36.12,43.68h5.76v1.68h-7.5v-36H26.7v-6h1.68V7.68h7.74ZM52.44.54v6H44.7v36H37.2v-36H29.52v-6Zm-6.6,7.14h3.78V9.36H45.84Z"/><path class="cls-1" d="M56.52,43.74h5.82v1.68h-7.5v-42h1.68Zm24-43.2v42H73V22.86H65.1V42.54H57.6V.54h7.5V16.86H73V.54Zm-8.64,43.2H77.7v1.68H70.2V25.68h-4V24h5.64Zm0-28H70.2V3.42h1.68Z"/><path class="cls-1" d="M87,43.68h17.28v1.74h-19v-42H87Zm20.1-7.2v6.06h-19V.54h18.12V6.6H95.64V16.86h7.56v6H95.64V36.48ZM96.72,9.42V7.68h6.72V9.42Zm0,16.26V24h3.72v1.68Z"/><path class="cls-1" d="M111.18,43.68H117v1.74h-7.5v-42h1.68Zm11-18c-1.08,0-2-.06-2.34-.06V42.54h-7.5V.54h12.54c7.2,0,10.62,5.28,10.62,12,0,6.24-2.7,10.26-6.3,12.06l7.92,17.94h-7.8Zm0-6.42c4.8,0,6.18-.54,6.18-6.72,0-3.36-.78-5.94-3.72-5.94h-4.8V19.26Zm5-6.66c0,3.66-.36,4.92-1.8,5.34a15.34,15.34,0,0,0,.12-2.52c0-3.36-.72-6-3.72-6h-.9V7.68h3.72C125.94,7.68,127.2,8.34,127.2,12.6Zm6.36,31.14.72,1.68h-7.74l-5.64-13.2v-5.4h.54l7.14,16.92Z"/><path class="cls-1" d="M152.52,43.74h15.6v1.68H150.84v-42h1.68Zm18.42-7.2v6H153.6V.54h7.5v36Z"/><path class="cls-1" d="M176,43.68h5.82v1.74h-7.5v-42H176ZM184.62.54v42h-7.5V.54Z"/><path class="cls-1" d="M212.4,43.74l1.14,1.68h-6.18l-.6-1.14A11.88,11.88,0,0,1,200.4,46c-8.22,0-11.28-5.16-11.28-9.48V12.3a9.06,9.06,0,0,1,2.22-5.94,9.49,9.49,0,0,0-.54,3.12V33.72c0,5.22,3.84,10.5,12.36,10.5A13.5,13.5,0,0,0,209.1,43l.42.78ZM191.94,33.66V9.42c0-4.32,3-9.42,11.22-9.42C210.66,0,214,5.1,214,9.42V33.66a8.74,8.74,0,0,1-1,4l3.24,4.92h-6.12l-.66-1.14a11.73,11.73,0,0,1-6.36,1.68C194.94,43.08,191.94,38,191.94,33.66Zm7.5-.18a3.65,3.65,0,0,0,3.72,3.6,3.44,3.44,0,0,0,2.88-1.8L203.7,31.2h2.82V9.42a3.54,3.54,0,0,0-7.08-.06Zm1.2-24.6a2.65,2.65,0,0,1,2.52-1.74c1.5,0,2.22,1.68,2.22,2.4V30.12H203.7V12.36A3.65,3.65,0,0,0,200.64,8.88ZM200.88,34h2.82V33.6l1,1.68a2,2,0,0,1-1.5.78,2.16,2.16,0,0,1-1.32-.42Z"/><path class="cls-1" d="M220.2,33.72c0,5.22,3.78,10.56,12.36,10.56a14.26,14.26,0,0,0,4.74-.78A11.57,11.57,0,0,1,229.8,46c-8.34,0-11.28-5.1-11.28-9.42V3.42h1.68ZM243.42.54V33.72c0,4.2-3.36,9.36-10.86,9.36-8.28,0-11.22-5.16-11.22-9.36V.54h7.5V33.66a3.54,3.54,0,0,0,7.08,0V.54Zm-10.26,35.4V3.42h1.68v30.3A2.72,2.72,0,0,1,233.16,35.94Z"/><path class="cls-1" d="M262,44.28a16.71,16.71,0,0,0,4.74-.72,11.55,11.55,0,0,1-7.5,2.4c-8.34,0-11.28-5.16-11.28-9.42V12.3A9,9,0,0,1,250,6.36a13.93,13.93,0,0,0-.42,3.12V33.72C249.6,38.94,253.38,44.28,262,44.28ZM272.82,9.42V33.66c0,4.26-3.36,9.42-10.86,9.42-8.28,0-11.22-5.16-11.22-9.36V9.42C250.74,5.16,253.68,0,262,0,269.46,0,272.82,5.16,272.82,9.42Zm-7.5,0a3.54,3.54,0,0,0-7.08-.06V33.54A3.6,3.6,0,0,0,262,37.08c2.16,0,3.36-2.28,3.36-3.54Zm-1.08.06V33.6a2.88,2.88,0,0,1-1.68,2.34V12.3a3.76,3.76,0,0,0-3.12-3.48A2.63,2.63,0,0,1,262,7.14,2.53,2.53,0,0,1,264.24,9.48Z"/><path class="cls-1" d="M279,43.68h5.82v1.74h-7.5v-42H279Zm11-18c-1.08,0-2-.06-2.34-.06V42.54h-7.5V.54h12.54c7.2,0,10.61,5.28,10.61,12,0,6.24-2.7,10.26-6.29,12.06l7.92,17.94h-7.8Zm0-6.42c4.8,0,6.18-.54,6.18-6.72,0-3.36-.78-5.94-3.72-5.94h-4.8V19.26Zm5-6.66c0,3.66-.36,4.92-1.8,5.34a15.34,15.34,0,0,0,.12-2.52c0-3.36-.72-6-3.72-6h-.9V7.68h3.72C293.76,7.68,295,8.34,295,12.6Zm6.36,31.14.71,1.68h-7.73l-5.64-13.2v-5.4h.54l7.14,16.92Z"/><path class="cls-1" d="M312.84,24c-4.32-4.32-5.58-6-5.58-11.7a9.07,9.07,0,0,1,2.1-5.94,12.65,12.65,0,0,0-.42,3.12c0,6,1.62,8.22,5.94,12.54l6.18,6.24a6.75,6.75,0,0,1,2.21,5c0,1.44-.65,2.4-1.67,2.64a8.66,8.66,0,0,0-2.4-5.58l-.48-.42V28.2H317ZM321,44.28a15.75,15.75,0,0,0,5.15-.84A12.72,12.72,0,0,1,318.24,46c-6.06,0-10.92-3.36-10.92-9.48V32.16h1.74v1.56C309.06,40,313.86,44.28,321,44.28Zm11.15-10.62c0,6.06-5.15,9.42-11.15,9.42s-10.86-3.36-10.86-9.42V29.28h7.44v4c0,2.52,1.56,3.84,3.42,3.84s3.35-1.44,3.35-3.84A7.65,7.65,0,0,0,322,27.48l-6.3-6.3c-4.32-4.32-5.58-6.06-5.58-11.76S314.64,0,321,0s10.85,3.78,10.85,9.42V12.3h-7.5V10.62c0-3-1.56-4.68-3.35-4.68a3.36,3.36,0,0,0-3.42,3.3c0,1.92.48,3.24,2.21,5.22l7.5,8.64C330.29,26.46,332.15,28.74,332.15,33.66ZM321.6,14.94v-1.5c0-2.64-1.27-4.26-2.82-4.56A2.26,2.26,0,0,1,321,7.14c1.38,0,2.27,1.38,2.27,3.54v2.76h5.82v1.68h-7.32Z"/></svg>