<svg id="Layer_1" data-name="Layer 1" xmlns="http://www.w3.org/2000/svg" viewBox="0 0 212.76 45.96"><defs><style>.cls-1{fill:#6a0f1d;}</style></defs><title>Artboard 45</title><path class="cls-1" d="M8.7,43.68,7,45.36H0l8.58-42L10,2,1.38,43.68Zm9.84-10.92H11.28L9.84,42.54H2.76L11.4.54h7.5l8.64,42H20ZM26.4,43.68l-1.68,1.68h-7.5l-1.44-9.72H12L12.24,34h5.4L19,43.68ZM17.34,26.76,15.06,11.7h-.18L12.54,26.76Zm-2.4-8.22L16,25.74h-2.1l-.06-.42Z"/><path class="cls-1" d="M44.88,43.74A12.65,12.65,0,0,0,49.26,43a10.72,10.72,0,0,1-7.14,2.46H31v-42l1.68-1.68v42H44.88ZM56.1,30.54c0,6.72-4,12-11.22,12H33.78V.54H43.5c7,0,10.92,3.9,10.92,10.68,0,3.54-1.8,7.38-4.74,8.64C53.52,21.54,56.1,24.72,56.1,30.54Zm-14.82-14h.36c5.28,0,6.18-1,6.18-5,0-3.06-1-4.92-3.78-4.92H41.28Zm7.68,14c0-4.56-1.38-7.68-6.18-7.68h-1.5V36.48H43.8C46.8,36.48,49,33.9,49,30.54ZM45,14.28c0-2.58-.78-4.32-2.64-4.74V7.74H44c2.1,0,2.7,1.32,2.7,3.66,0,2-.06,3.3-1.74,3.72ZM47.82,30.6A5,5,0,0,1,46,34.74a9.09,9.09,0,0,0,.12-1.38c0-3.6-.9-6.36-3.78-7.26V24h.42C46.38,24,47.82,25.92,47.82,30.6Z"/><path class="cls-1" d="M64.8,24c-4.32-4.32-5.58-6-5.58-11.7a9.07,9.07,0,0,1,2.1-5.94,12.65,12.65,0,0,0-.42,3.12c0,6,1.62,8.22,5.94,12.54L73,28.26a6.72,6.72,0,0,1,2.22,5,2.43,2.43,0,0,1-1.68,2.64,8.66,8.66,0,0,0-2.4-5.58l-.48-.42V28.2H69ZM73,44.28a15.77,15.77,0,0,0,5.16-.84A12.75,12.75,0,0,1,70.2,46c-6.06,0-10.92-3.36-10.92-9.48V32.16H61v1.56C61,40,65.82,44.28,73,44.28ZM84.12,33.66c0,6.06-5.16,9.42-11.16,9.42S62.1,39.72,62.1,33.66V29.28h7.44v4c0,2.52,1.56,3.84,3.42,3.84s3.36-1.44,3.36-3.84a7.62,7.62,0,0,0-2.4-5.76l-6.3-6.3C63.3,16.86,62,15.12,62,9.42S66.6,0,73,0,83.82,3.78,83.82,9.42V12.3h-7.5V10.62c0-3-1.56-4.68-3.36-4.68a3.36,3.36,0,0,0-3.42,3.3c0,1.92.48,3.24,2.22,5.22l7.5,8.64C82.26,26.46,84.12,28.74,84.12,33.66ZM73.56,14.94v-1.5c0-2.64-1.26-4.26-2.82-4.56A2.26,2.26,0,0,1,73,7.14c1.38,0,2.28,1.38,2.28,3.54v2.76h5.82v1.68H73.74Z"/><path class="cls-1" d="M90.3,43.68h5.82v1.74h-7.5v-42H90.3ZM98.88.54v42h-7.5V.54Z"/><path class="cls-1" d="M105.36,43.74h5.82v1.68h-7.5v-42h1.68ZM128.94.54v42h-7.5l-7.38-24h-.12v24h-7.5V.54h7.92l7,23.34h.12V.54Zm-8.34,43.2h5.58v1.68h-7.5l-3.6-11.7v-8.1Zm-.24-26.82-1.68-5.7V3.42h1.68Z"/><path class="cls-1" d="M141.78,43.68h5.76v1.68H140v-36h-7.68v-6H134V7.68h7.74ZM158.1.54v6h-7.74v36h-7.5v-36h-7.68v-6Zm-6.6,7.14h3.78V9.36H151.5Z"/><path class="cls-1" d="M162.18,43.74H168v1.68h-7.5v-42h1.68Zm24-43.2v42h-7.5V22.86h-7.92V42.54h-7.5V.54h7.5V16.86h7.92V.54Zm-8.64,43.2h5.82v1.68h-7.5V25.68h-4V24h5.64Zm0-28h-1.68V3.42h1.68Z"/><path class="cls-1" d="M192.66,43.68h17.28v1.74H191v-42h1.68Zm20.1-7.2v6.06h-19V.54h18.12V6.6H201.3V16.86h7.56v6H201.3V36.48ZM202.38,9.42V7.68h6.72V9.42Zm0,16.26V24h3.72v1.68Z"/></svg>