<svg id="Layer_1" data-name="Layer 1" xmlns="http://www.w3.org/2000/svg" viewBox="0 0 337.98 45.96"><defs><style>.cls-1{fill:#6a0f1d;}</style></defs><title>Artboard 52</title><path class="cls-1" d="M13.92,43.74A12.65,12.65,0,0,0,18.3,43a10.72,10.72,0,0,1-7.14,2.46H0v-42L1.68,1.74v42H13.92Zm11.22-13.2c0,6.72-4,12-11.22,12H2.82V.54h9.72c7,0,10.92,3.9,10.92,10.68,0,3.54-1.8,7.38-4.74,8.64C22.56,21.54,25.14,24.72,25.14,30.54Zm-14.82-14h.36c5.28,0,6.18-1,6.18-5,0-3.06-1-4.92-3.78-4.92H10.32Zm7.68,14c0-4.56-1.38-7.68-6.18-7.68h-1.5V36.48h2.52C15.84,36.48,18,33.9,18,30.54ZM14,14.28c0-2.58-.78-4.32-2.64-4.74V7.74h1.68c2.1,0,2.7,1.32,2.7,3.66,0,2-.06,3.3-1.74,3.72ZM16.86,30.6a5,5,0,0,1-1.8,4.14,9.09,9.09,0,0,0,.12-1.38c0-3.6-.9-6.36-3.78-7.26V24h.42C15.42,24,16.86,25.92,16.86,30.6Z"/><path class="cls-1" d="M30.24,43.74h15.6v1.68H28.56v-42h1.68Zm18.42-7.2v6H31.32V.54h7.5v36Z"/><path class="cls-1" d="M53.76,43.68H71v1.74h-19v-42h1.68Zm20.1-7.2v6.06h-19V.54H73V6.6H62.4V16.86H70v6H62.4V36.48ZM63.48,9.42V7.68H70.2V9.42Zm0,16.26V24H67.2v1.68Z"/><path class="cls-1" d="M77.94,43.74h5.82v1.68h-7.5v-42h1.68ZM101.52.54v42H94l-7.38-24h-.12v24H79V.54h7.92l7,23.34H94V.54Zm-8.34,43.2h5.58v1.68h-7.5l-3.6-11.7v-8.1Zm-.24-26.82-1.68-5.7V3.42h1.68Z"/><path class="cls-1" d="M122.64,43.68a10.12,10.12,0,0,0,3-.48,8.77,8.77,0,0,1-5.82,2.22h-13.5v-42H108V43.68h14.64Zm9.3-31.14v18c0,6.42-2.82,12-9.3,12h-13.5V.54h13.5a9,9,0,0,1,8.76,7A22.62,22.62,0,0,1,131.94,12.54Zm-7.08,0c0-3.36-.72-5.94-3.78-5.94h-4.44V36.48h4.44c3.06,0,3.78-2.58,3.78-5.94Zm-1.14.06v18c0,3.36-.78,4.44-1.8,4.8.06-.66.12-1.32.12-2V15.42c0-3.42-.72-6-3.72-6h-.6V7.68h3.36C122.52,7.68,123.72,8.34,123.72,12.6Z"/><path class="cls-1" d="M138.12,43.68H155.4v1.74h-19v-42h1.68Zm20.1-7.2v6.06h-19V.54h18.12V6.6H146.76V16.86h7.56v6h-7.56V36.48ZM147.84,9.42V7.68h6.72V9.42Zm0,16.26V24h3.72v1.68Z"/><path class="cls-1" d="M176.94,43.68a10.12,10.12,0,0,0,3-.48,8.77,8.77,0,0,1-5.82,2.22h-13.5v-42h1.68V43.68h14.64Zm9.3-31.14v18c0,6.42-2.82,12-9.3,12h-13.5V.54h13.5a9,9,0,0,1,8.76,7A22.62,22.62,0,0,1,186.24,12.54Zm-7.08,0c0-3.36-.72-5.94-3.78-5.94h-4.44V36.48h4.44c3.06,0,3.78-2.58,3.78-5.94ZM178,12.6v18c0,3.36-.78,4.44-1.8,4.8.06-.66.12-1.32.12-2V15.42c0-3.42-.72-6-3.72-6H172V7.68h3.36C176.82,7.68,178,8.34,178,12.6Z"/><path class="cls-1" d="M207.12,24c-4.32-4.32-5.58-6-5.58-11.7a9.07,9.07,0,0,1,2.1-5.94,12.65,12.65,0,0,0-.42,3.12c0,6,1.62,8.22,5.94,12.54l6.18,6.24a6.72,6.72,0,0,1,2.22,5,2.43,2.43,0,0,1-1.68,2.64,8.66,8.66,0,0,0-2.4-5.58l-.48-.42V28.2h-1.68Zm8.16,20.28a15.77,15.77,0,0,0,5.16-.84A12.75,12.75,0,0,1,212.52,46c-6.06,0-10.92-3.36-10.92-9.48V32.16h1.74v1.56C203.34,40,208.14,44.28,215.28,44.28Zm11.16-10.62c0,6.06-5.16,9.42-11.16,9.42s-10.86-3.36-10.86-9.42V29.28h7.44v4c0,2.52,1.56,3.84,3.42,3.84s3.36-1.44,3.36-3.84a7.62,7.62,0,0,0-2.4-5.76l-6.3-6.3c-4.32-4.32-5.58-6.06-5.58-11.76S208.92,0,215.28,0s10.86,3.78,10.86,9.42V12.3h-7.5V10.62c0-3-1.56-4.68-3.36-4.68a3.36,3.36,0,0,0-3.42,3.3c0,1.92.48,3.24,2.22,5.22l7.5,8.64C224.58,26.46,226.44,28.74,226.44,33.66ZM215.88,14.94v-1.5c0-2.64-1.26-4.26-2.82-4.56a2.26,2.26,0,0,1,2.22-1.74c1.38,0,2.28,1.38,2.28,3.54v2.76h5.82v1.68h-7.32Z"/><path class="cls-1" d="M244.68,44.28a16.71,16.71,0,0,0,4.74-.72,11.55,11.55,0,0,1-7.5,2.4c-8.34,0-11.28-5.16-11.28-9.42V12.3a9,9,0,0,1,2.1-5.94,13.93,13.93,0,0,0-.42,3.12V33.72C232.32,38.94,236.1,44.28,244.68,44.28ZM255.54,9.42V33.66c0,4.26-3.36,9.42-10.86,9.42-8.28,0-11.22-5.16-11.22-9.36V9.42c0-4.26,2.94-9.42,11.22-9.42C252.18,0,255.54,5.16,255.54,9.42Zm-7.5,0A3.54,3.54,0,0,0,241,9.36V33.54a3.6,3.6,0,0,0,3.72,3.54c2.16,0,3.36-2.28,3.36-3.54ZM247,9.48V33.6a2.88,2.88,0,0,1-1.68,2.34V12.3a3.76,3.76,0,0,0-3.12-3.48,2.63,2.63,0,0,1,2.52-1.68A2.53,2.53,0,0,1,247,9.48Z"/><path class="cls-1" d="M266.76,43.68h5.76v1.68H265v-36h-7.68v-6H259V7.68h7.74ZM283.08.54v6h-7.74v36h-7.5v-36h-7.68v-6Zm-6.6,7.14h3.78V9.36h-3.78Z"/><path class="cls-1" d="M298,44.28a14,14,0,0,0,4.74-.78A11.62,11.62,0,0,1,295.2,46c-8.34,0-11.34-5.16-11.34-9.48V12.3a8.66,8.66,0,0,1,2.22-5.82,8.56,8.56,0,0,0-.54,3V33.72C285.54,38.94,289.38,44.28,298,44.28Zm11-31.62h-7.56V9.48A3.71,3.71,0,0,0,298,6a3.63,3.63,0,0,0-3.72,3.48V33.6A3.63,3.63,0,0,0,298,37.08a3.71,3.71,0,0,0,3.42-3.48V30.42H309v3.24c0,4.32-3.42,9.42-11,9.42-8.34,0-11.34-5.1-11.34-9.42V9.42c0-4.32,3-9.42,11.34-9.42,7.56,0,11,5.1,11,9.42Zm-2.82,2.88h-7.56V12.36a3.65,3.65,0,0,0-3.12-3.48A2.61,2.61,0,0,1,298,7.2a2.53,2.53,0,0,1,2.28,2.34v4.32h7.56Zm-7.56,17.7,1.68-1.68v2.1a2.76,2.76,0,0,1-1.68,2.28Z"/><path class="cls-1" d="M314,43.74h5.82v1.68h-7.5v-42H314ZM338,.54v42h-7.5V22.86h-7.92V42.54h-7.5V.54h7.5V16.86h7.92V.54Zm-8.64,43.2h5.82v1.68h-7.5V25.68h-4V24h5.64Zm0-28h-1.68V3.42h1.68Z"/></svg>