<svg id="Layer_1" data-name="Layer 1" xmlns="http://www.w3.org/2000/svg" viewBox="0 0 216 143.22"><defs><style>.cls-1{fill:none;}.cls-1,.cls-2,.cls-7{fill-rule:evenodd;}.cls-3{opacity:0.7;}.cls-4{fill:#2e3193;}.cls-5{fill:#ed1f24;}.cls-6{fill:#fff;}.cls-7{fill:#212a59;}</style></defs><title>Artboard 2</title><path class="cls-1" d="M175.13,21.9v2.91A49.47,49.47,0,0,0,170,25.93c-.06-1,0-1.91,0-3.11C171.69,22.52,173.25,22.05,175.13,21.9Z"/><path class="cls-1" d="M141,23a32.83,32.83,0,0,1,3.58,6.28c-.71.29-1.25.74-2,1-1.08-1.83-1.91-3.91-3-5.7A7.27,7.27,0,0,0,141,23Z"/><path class="cls-1" d="M168.05,23.29c-.09.78-.07,2-.07,3.11-2,.61-3.58,1.08-5.49,1.59-.08-1.09,0-2,0-3.25C164.33,24.16,166.18,23.7,168.05,23.29Z"/><path class="cls-1" d="M210,23.35c-.36,6.9-.76,12.66-1.52,19.53-1.05,0-2-.09-2.72-.13.48-6.6,1.15-12.27,1.33-19.2A13.26,13.26,0,0,1,210,23.35Z"/><path class="cls-1" d="M205.37,23.55c-.24,6.39-.68,12.87-1.45,19.13a18.41,18.41,0,0,1-3-.13c.62-5.95,1.24-12.15,1.39-18.87C203.45,23.71,204.36,23.58,205.37,23.55Z"/><path class="cls-1" d="M200.34,23.82c0,6.58-.63,12-1.25,18.73-1.59,0-2.58,0-4.17,0,.59-5.19,1.23-12.43,1.59-18.47C197.91,24,199.23,24,200.34,23.82Z"/><path class="cls-1" d="M194.59,24.28c-.27,6.2-.79,12.26-1.46,18.27-1.21.07-2.59.22-3.9.2.43-6.18,1.08-12.16,1.25-18.07C191.45,24.51,193.15,24.37,194.59,24.28Z"/><path class="cls-2" d="M47.85,24.74c.36.24-.07.76-.07,1.06C47.6,25.36,47.94,25.25,47.85,24.74Z"/><path class="cls-1" d="M188.76,24.88c-.38,5.93-.56,12.31-1.32,18.06-1.61,0-2.76.33-4.24.34.42-5.6.86-11.8,1.13-17.81C185.88,25.22,187.36,25,188.76,24.88Z"/><path class="cls-1" d="M160.83,25.27c0,1.26.06,2.16,0,3.31a46.64,46.64,0,0,0-4.76,1.79c-.2-1.23,0-2.49-.14-3.64C157.69,26.24,159,25.63,160.83,25.27Z"/><path class="cls-1" d="M181.22,43.54c-1.75.17-3.39.46-5,.73.44-5.86.52-11.75.72-17.61,1.88-.32,3.37-.62,5.23-.92C182.19,31.64,181.6,37.11,181.22,43.54Z"/><path class="cls-1" d="M174.4,44.53c-1.69.28-3.34.59-5,.86.11-5.67.31-11.83.46-17,1.78-.4,3.46-.91,5.23-1.32C174.91,33.33,174.69,37.39,174.4,44.53Z"/><path class="cls-1" d="M154.34,31c-1.81.68-3.6,1.74-5.29,2.32.16-1.39,0-2.5.07-3.78,1.65-.77,3.38-1.47,5.09-2.18A15.38,15.38,0,0,1,154.34,31Z"/><path class="cls-1" d="M167.85,28.91c.11,5.24-.22,11-.27,16.88-1.85.22-3.62.88-5.29,1.06.12-5.77,0-10.56.2-16.15A55.19,55.19,0,0,1,167.85,28.91Z"/><path class="cls-2" d="M56.65,29.77c.07.2.26.17.33.2,0,.27-.14,0-.33.07Z"/><path class="cls-2" d="M57.45,30.1c.19.19.18.2.39.4-.2.05-.19-.11-.39-.06.09-.12.06-.16-.14-.14C57.34,30.22,57.43,30.2,57.45,30.1Z"/><path class="cls-1" d="M147.33,30.44c.45,1.25.11,2.45.26,3.77-1.6.8-3,1.85-4.56,2.65,0-1.82,0-2.65-.07-4A34.52,34.52,0,0,1,147.33,30.44Z"/><path class="cls-1" d="M160.7,31.3c.38,5.55,0,10.07.06,16-1.59.37-3.14.78-4.63,1.26-.1-5.5-.07-10.62-.2-15.42C157.6,32.61,159.07,31.87,160.7,31.3Z"/><path class="cls-1" d="M141.17,33.94c0,1.5,0,2.56.07,3.91-1.41.6-2.47,1.54-4,2,.1-1,0-2.34.06-3.57A17,17,0,0,1,141.17,33.94Z"/><path class="cls-1" d="M154.41,49c-1.75.48-3.39,1.07-5.16,1.53-.05-4.37-.12-8.79-.13-14.17,1.56-1.07,3.51-1.36,5.09-2.45C154.67,39.27,154.32,43,154.41,49Z"/><path class="cls-1" d="M143.29,52.41c-.06-4.29-.21-8.72-.26-12.71,1.41-.91,3.17-1.46,4.43-2.51.36,3.93.14,9,.2,13.76A29.47,29.47,0,0,1,143.29,52.41Z"/><path class="cls-1" d="M131.44,37.38c-6.44,3-14.14,6.12-22.3,6.82-4.89.42-10.78.94-15.69,1.06-1.56,0-2.09.5-1.45,2.05a8,8,0,0,0,1.58-.06c.15,1.25.72,2.73.8,3.84-2.54-.71-1.79,2.94.59,1.85.77,3.08,1.61,5.54,2.39,8.27A1.12,1.12,0,1,0,98,63.33c.8,2.17,1.36,4.18,2.25,6.22a8.26,8.26,0,0,1-1.26.13c-.24.31-.17.53-.2,1,.37.71,1,.7,2.12.66a16.53,16.53,0,0,1,.73,2c1.49.93,1.24-1.23.73-2,.41,0,1,.1,1.65.07.1,1.07,1,3.47,2,1.79a6.76,6.76,0,0,1-.47-1.86c.82,0,1.69,0,2.65,0,.33.67.12,1.87.86,2.12,1-.3.69-1.36.6-2.18h2.38c-.12,3,2.52,2.44,1.46-.07.68.06,1.76,0,2.64,0a6.48,6.48,0,0,0,.53,2.25c1.44.26,1-1.46.93-2.25.86-.11,1.85-.09,2.78-.13-.53,3.2,2.47,2.37,1.59,0,1.2-.05,2.18,0,3.64-.13C118.35,78.19,110.59,85,103,92c-.3-.11-.47-.36-.79-.46,1.26-3.65,2.62-7.73,3.9-11.32a21.53,21.53,0,0,0,3-.33c.07-.84.37-2-.06-2.65-4.42.37-9,.32-12.45,1.26-.17.84.06,1.58-.06,2.45,1.33.3,2.68-.18,4.17-.14-.89,3.09-2.27,6.53-3.25,9.53a10.6,10.6,0,0,0-2.58.34C89,73.45,81.77,58.08,74.59,42.35,92.88,40.05,113.27,38.54,131.44,37.38Z"/><path class="cls-1" d="M135.75,40.63a28.87,28.87,0,0,1-4.44,2.12c0-1.16-.1-1.68-.06-3a22.2,22.2,0,0,0,4.16-2.18C135.77,38.54,135.46,39.69,135.75,40.63Z"/><path class="cls-1" d="M129.52,40.56c.06,1,0,1.73.14,2.91-1.43.48-2.49,1-4,1.39-.17-.86,0-2.16-.2-2.78C126.8,41.63,128.22,40.87,129.52,40.56Z"/><path class="cls-1" d="M141.64,52.94c-1.22.39-2.56.67-3.71,1.12-.28-3.62-.43-7.46-.53-11.71,1.28-.57,2.58-1.13,3.77-1.79C141.62,44.62,141.49,49,141.64,52.94Z"/><path class="cls-1" d="M124.1,45.39a36.75,36.75,0,0,1-3.78,1.19c-.12-1.27-.12-1.72-.19-2.91,1.23-.4,2.6-.65,3.77-1.12A11.46,11.46,0,0,1,124.1,45.39Z"/><path class="cls-1" d="M136.14,54.53c-1.41.38-2.66.79-4.23,1.12-.17-3.44-.38-7.12-.47-10.72a28.75,28.75,0,0,0,4.17-1.85C136,46.52,135.86,50.75,136.14,54.53Z"/><path class="cls-1" d="M71.61,43.61c7,15.83,14.18,31.57,19.92,48.45a14.41,14.41,0,0,0-4.7,6,62.69,62.69,0,0,0-7.21-.27c1.94-17.2-5.11-32.48-17-39.84C65.56,53.13,68.77,48.56,71.61,43.61Z"/><path class="cls-1" d="M118.47,44.07c.1,1,.18,2.24.2,3a18.54,18.54,0,0,1-4,1.19c-.12-1.19-.29-2.18-.33-3.24C115.71,44.66,117.09,44.36,118.47,44.07Z"/><path class="cls-1" d="M198.76,44.6c-.55,6.41-1.7,14-2.52,20-1.24.13-2.6.3-3.9.46.71-6.88,1.64-13.09,2.31-20.32C195.93,44.57,197.4,44.79,198.76,44.6Z"/><path class="cls-1" d="M203.72,44.73c-.75,6.65-1.6,12.93-2.38,19.06a13.64,13.64,0,0,1-3.25.47c.87-6.6,1.8-13,2.52-19.59Z"/><path class="cls-1" d="M192.87,44.73c-.59,6.89-1.47,13.94-2.26,20.45-1.39.22-2.52.28-4,.47.89-6.65,1.59-14.4,2.38-20.59C189.86,44.76,191.57,45,192.87,44.73Z"/><path class="cls-1" d="M208.22,44.93c-.57,6-1.41,11.7-2.25,18.14a22.07,22.07,0,0,1-2.91.52c.85-6.12,1.61-12.4,2.45-18.79h.13C206.32,44.83,207.2,44.83,208.22,44.93Z"/><path class="cls-1" d="M187.11,45.06h.13c-.55,6.74-1.33,13.63-2.45,20.79-1.26.11-2.25.15-3.44.26.7-7,1.2-13.47,1.72-20.65C184.5,45.3,185.68,45.26,187.11,45.06Z"/><path class="cls-1" d="M112.85,45.26c.13,1.05.26,2.17.39,3.38-1.2.27-2.38.57-3.64.79-.22-1.29-.32-2.21-.53-3.57C110.48,45.66,111.59,45.38,112.85,45.26Z"/><path class="cls-1" d="M179.63,66.24c-1.57.19-3.41.19-4.77.4.35-6.23.91-13.59,1.19-20.25,1.46-.29,3.15-.42,5-.73C180.89,52.61,180.17,59.12,179.63,66.24Z"/><path class="cls-1" d="M108.21,49.76c-1.34.18-2,.32-3.31.53-.25-1.29-.49-2.59-.73-3.9,1.18-.06,2.43-.29,3.51-.33C107.81,47.46,108.17,48.28,108.21,49.76Z"/><path class="cls-1" d="M102.65,46.52a24.54,24.54,0,0,1,.86,3.9,20.5,20.5,0,0,1-3.57.4c-.24-1.46-.58-2.5-.73-4C100.39,46.77,101.55,46.68,102.65,46.52Z"/><path class="cls-1" d="M174.27,46.72c-.23,6.54-.76,13.15-1.06,20-1.29.14-2.88.19-4.44.33.07-6.78.22-12.48.53-19.46C170.92,47.25,172.52,46.91,174.27,46.72Z"/><path class="cls-1" d="M97.89,47c.23,1.23.69,2.78.79,4-1,.07-1.89,0-2.91.14a35.78,35.78,0,0,1-.86-4C95.74,47.16,96.86,47,97.89,47Z"/><path class="cls-1" d="M124.1,47.64c.46,3.42.24,6.38.66,9.87-1.14.07-2.45.54-3.71.72-.21-3.32-.41-6.16-.59-9.53C121.77,48.45,122.83,48,124.1,47.64Z"/><path class="cls-1" d="M167.38,48h.14c-.15,6.63-.26,12.79-.47,19.2-1.76.07-3.18.1-5,.33,0-5.59.12-11.79.2-18.27C163.89,48.72,165.66,48.37,167.38,48Z"/><path class="cls-1" d="M118.8,49.23c.3,3.16.46,6,.66,9.33-1.22.2-2.13.42-3.44.6-.43-3.07-.73-6.14-1.06-8.87C116.22,50,117.79,49.59,118.8,49.23Z"/><path class="cls-1" d="M160.63,49.63c.29,5.42-.09,12.37-.06,17.94-1.54,0-2.91.21-4.31.19-.09-5.32-.09-11.3-.13-16.87C157.61,50.45,159.18,50.1,160.63,49.63Z"/><path class="cls-1" d="M113.51,50.69c.41,2.8.71,5.32,1.12,8.67a28.55,28.55,0,0,1-3.37.46c-.24-2.62-.91-5.63-1.33-8.4C111.18,51.23,112.26,50.88,113.51,50.69Z"/><path class="cls-1" d="M154.48,67.9c-1.8.21-3.48.07-5.23.39.09-4.92-.1-10.07.06-15.15,1.54-.72,3.47-1,5-1.72C154.59,57,154.5,62.57,154.48,67.9Z"/><path class="cls-1" d="M108.61,51.68c.53,3,.94,5.24,1.39,8.41-1.1,0-2,.34-2.91.33-.61-2.58-1.18-5.57-1.72-8.28C106.38,52.05,107.36,51.81,108.61,51.68Z"/><path class="cls-1" d="M105.7,60.62c-1.23.17-2,.25-3.31.33-.76-2.71-1.45-5.45-2-8.21,1.09,0,2.26-.28,3.44-.4C104.62,55.18,105.06,57.72,105.7,60.62Z"/><path class="cls-1" d="M99.08,52.81c.68,2.83,1.25,5.52,2,8.27a11.65,11.65,0,0,0-2.38.2,83.31,83.31,0,0,1-2.45-8.34C97.25,52.87,98.23,52.86,99.08,52.81Z"/><path class="cls-1" d="M147.59,53.6c.33,4.45.11,10.16.2,14.63-1.6.18-2.78.15-4.23.26,0-4.37-.17-9.5-.2-13.63C144.66,54.6,146.14,54.05,147.59,53.6Z"/><path class="cls-1" d="M141.9,68.56c-1.15,0-2.24.12-3.51.13-.21-4-.29-7.67-.46-12.11,1.18-.45,2.54-.73,3.77-1.13C141.91,59.62,142,64.86,141.9,68.56Z"/><path class="cls-1" d="M57.91,60.15C49.43,73.5,40.07,87.09,30.31,99.6a10,10,0,0,0,.2,1.13c15.74-.57,28.79-.78,44.61-.47-2.23,10.15-6.56,18.75-13.37,24.89-6.38,5.76-15.21,11.61-26.81,11.12-19.59-.83-31.64-16.49-31.37-36.14.28-20.19,11.91-33.78,26.54-40.9C38,55.59,50.6,55.56,57.91,60.15ZM60,116.08c.17,0,.28,0,.26-.2-.08,0-.09-.08-.2-.06S60,115.94,60,116.08Z"/><path class="cls-1" d="M130.38,58.56c.24,3.62.37,6.58.67,10.33-1.12.23-2.83.13-4.24.26,0-3.23-.32-6.25-.53-9.72C127.84,59.25,129.13,58.72,130.38,58.56Z"/><path class="cls-1" d="M125.49,69.15c-1.23,0-2.45,0-3.64.14-.29-2.64-.44-5.81-.67-8.81a30.43,30.43,0,0,0,3.51-.72C125.21,62.73,125.18,65.93,125.49,69.15Z"/><path class="cls-1" d="M60.23,61.48c10.82,6.92,17.4,20.07,15.35,36.27-13.49,0-26.8,0-41.36.66C43.18,86.39,52.09,74.32,60.23,61.48Z"/><path class="cls-1" d="M114.9,61.54c.38,2.63.62,5.27,1.06,7.75-.6.23-2,0-2.92.2-.24-2.41-1-5.18-1.32-7.48C112.83,61.88,114,61.7,114.9,61.54Z"/><path class="cls-1" d="M110.26,62.2c.72,2.32.91,4.76,1.46,7.22-1,.1-1.49,0-2.51.07-.71-2.24-1.07-4.54-1.66-6.95A23.8,23.8,0,0,0,110.26,62.2Z"/><path class="cls-1" d="M106.29,62.87c.44,2.29.95,4.5,1.53,6.68-1-.09-1.93,0-3-.06-.58-2-1.26-4.15-1.86-6.42A14.52,14.52,0,0,1,106.29,62.87Z"/><path class="cls-1" d="M101.66,63.13c.59,2.19,1.23,4.33,1.85,6.49-.7-.09-1.19,0-1.85-.07-.74-2.06-1.57-4-2.18-6.22C100.18,63.24,101,63.21,101.66,63.13Z"/><path class="cls-1" d="M104.84,79.35c-1.19,3.93-2.58,7.66-3.78,11.58a14.55,14.55,0,0,0-2.25-.53c1.39-4.12,2.3-8,4.17-11.52C103.68,78.55,104.6,78.69,104.84,79.35Z"/><path class="cls-1" d="M95.57,109.59c.71-3.27,4.8-8.24,1-10.72-4,.07-3.94,6.69-5.69,9.53-3-2.1-3.14-8.83-1-11.78a9.42,9.42,0,0,1,10.72-4C108.57,95.88,105.1,111,95.57,109.59Z"/><path class="cls-1" d="M90.74,118.07c-.61,0-1.79.24-2.38.26.07-.77,1-2.19,1-3.24,2.51-4.81,3.55-10.92,6.29-15.16,2.24.38.7,3.32.2,4.57C94.07,108.85,92.47,113.6,90.74,118.07Z"/><g class="cls-3"><path class="cls-1" d="M48.31,24.15c0-.08,0-.19-.06-.2,0,.3-.41.42-.27.59,0-.14.23-.16.27-.13-.33.2,0,1.35-.6,1.46.34.8.2,2.52,1.39,2.78s2.41-1,3.84-.8c2.67.37,5.29,3.33,8.54,3.51a11.42,11.42,0,0,0,6.22-1.45c4.55-2.49,11.65-2.43,13.57-7.55-.18-.13-.21-.41-.33-.6-5.57-1.1-11.17.48-16.75.6-5.11.11-9.53,0-14.36-.07,0,0-.05-.07-.07,0A5.44,5.44,0,0,0,48.31,24.15Z"/></g><path class="cls-4" d="M96.43,59.62,96.35,54c2.3,0,5-.06,7.77-.08,23.4-.21,62.56-.55,103.8-6.55l.81,5.55c-41.62,6.05-81,6.39-104.56,6.6Z"/><path class="cls-1" d="M47.78,25.8c0-.3.43-.82.07-1.06C47.94,25.25,47.6,25.36,47.78,25.8Z"/><path class="cls-1" d="M56.65,30c.19-.1.36.2.33-.07-.07,0-.26,0-.33-.2Z"/><path class="cls-5" d="M99.52,69.71l-.08-5.61,7.47-.08c22.51-.2,60.19-.54,99.87-6.54l.83,5.55c-40.06,6-78,6.39-100.65,6.6C104.26,69.65,101.71,69.67,99.52,69.71Z"/><path class="cls-1" d="M57.31,30.3c.2,0,.23,0,.14.14.2-.05.19.11.39.06-.21-.2-.2-.21-.39-.4C57.43,30.2,57.34,30.22,57.31,30.3Z"/><path class="cls-1" d="M120.26,69.22a25.07,25.07,0,0,1-3,.07c-.29-2.81-.64-5.09-1-8,1.09-.19,2.13-.42,3.31-.52C119.91,64.25,119.94,66.26,120.26,69.22Z"/><rect class="cls-6" x="95.17" y="56.81" width="1.82" height="4.07" transform="translate(-11.8 26.34) rotate(-14.72)"/><rect class="cls-6" x="98.3" y="66.35" width="1.82" height="4.07" transform="translate(-14.12 27.45) rotate(-14.72)"/><path class="cls-7" d="M150,9c-2.43,1-5.71,1-9,1.22A14.71,14.71,0,0,0,139.5,13c-.72.22-1.15-.41-1.67-.61a9.68,9.68,0,0,1,.52-2.34c-2.29-.35-6.11-1.09-4.71-4.28a13.83,13.83,0,0,1,5-3.94c1.36-.66,5-2.48,6.83-1.61s4.24,5.08,4.61,7.33A3.3,3.3,0,0,1,150,9Zm-6.6-7.47c1.29,1.78,2.34,5,4,6.56.44.41,1.19-.09,1.79.07C147.48,5.78,147,.62,143.36,1.49Zm-1.49.78c-2.46,1.24-5.27,2.16-6.68,4.39,2.7-1.07,4.93-1.75,7.79-2.77A7.48,7.48,0,0,0,141.87,2.27Z"/><path class="cls-7" d="M48.08,24.19c0-.08.07,0,.07,0,4.82-.12,9.24-.12,14.35-.4,5.57-.3,11.12-2.06,16.72-1.14.13.19.17.47.35.59-1.75,5.17-8.85,5.35-13.32,8a11.49,11.49,0,0,1-6.17,1.66c-3.25-.08-6-2.95-8.64-3.23-1.44-.15-2.5,1.15-3.82.92s-1.11-1.94-1.47-2.74c.58-.12.23-1.27.54-1.47,0,0-.27,0-.26.14-.15-.17.31-.31.25-.6.08,0,.06.11.07.19A5.31,5.31,0,0,1,48.08,24.19Z"/><path class="cls-7" d="M140,20.74c1.29,2.34,3,4.29,4.13,6.75C162,17.74,186,14.6,207.81,14c1.28,0,2.66-.62,3.58.15a2.81,2.81,0,0,1-.23,1.26,2.41,2.41,0,0,1-1.31.24c.09,1.11,0,1.69,0,2.52,1-.13,2,1,1,1.82-.35-.1-.73.11-1.12,0,0,6.81-.38,13-.89,19.7.19.16.62.07.87.17.45.45.5,1.65-.07,2-.29,0-.42-.19-.8-.11-.74,5.7-1.11,11.72-1.8,17.87.5.11.86-.14,1.32-.24,1.31.79.44,2.84-1.24,2.69.08.54,0,3.15-1.36,3-.91-.37-.92-1.79-.62-2.63-.86.26-1.92.33-2.83.55,1.37,1,2.12,2.63,3.56,3.53,7.93,8.2,12.54,24.89,8.69,39.12a39.17,39.17,0,0,1-5.07,13.21c-6.39,12-16.83,21-31.87,23.75a31.6,31.6,0,0,1-11.58.37c-16.75-2.24-28.21-15.8-30.56-33.7-2.11-16,4.61-29.6,12.24-38.94-.15-.26-.06-.76-.1-1.12a26.5,26.5,0,0,0-4,.19c.8,2.69-2.12,3.29-1.66.12-1,0-2.52.12-3.57.18.77,2.74-2.1,3.12-1.71.13-1.37,0-2.88.11-4,.19-.08.66.3,2-.39,2.4-1.24.14-1.27-1.35-1.26-2.28-2.12-.23-3.3,1.75-4.54,3.06-6.75,7.16-14,14.22-20.91,21,5.41,7.07.66,19.49-8.9,19.49-.27,0-.65-.22-.93-.1-1.31.56-1,3.81-1.83,4.7.42.15,1.27-.17,1.65-.06.39,1.05-.46,2.27-.89,3.14-4.67.36-8.93,2.12-12.79,1.94,0-1.1.5-2.06.5-3a47.58,47.58,0,0,1,5.8-1A77.75,77.75,0,0,0,91,111.79c-2.78-2-4.65-6.29-4-10.53-2.5-.19-4.65,0-6.82-.11-3.92,21.11-16.71,37.28-38,41.5a33,33,0,0,1-17.6-1.55,9.14,9.14,0,0,1-3.89-1.59C12.9,135.89,7.28,129.59,4,121.44c-9.84-20.69.07-47,14.63-57.36,9-8.74,28.06-13,41.13-6.1,1-1.35,1.74-3,2.7-4.39-2.55-2.27-4.7-5-7.32-7.18-.21.07-.05.5-.31.54-15.26,1.13-31.32,3.8-46.93,6.82a8.32,8.32,0,0,1-.75-2.83,245.54,245.54,0,0,1,29.66-4.27c5.2-.74,10.65-1.33,16.76-1.87,1.84-.16,2.47,1.08,3.78,2.26,2.05,1.87,3.54,3.77,5.48,5.72,2.25-3.58,4.32-7.33,6.4-11.07-1.05-2.35-2.3-4.49-3.34-6.84.67-.71,2-.54,3.11-.3,1.06,1.78,2,3.69,3,5.6,19.64-3.12,39.93-4.79,59.3-7a21.88,21.88,0,0,0,4.49-.48c1.43-.47,2.56-2.07,4-2.71-1-1.91-2.06-3.69-3.09-5.53-4.52,2.61-10.69,2.08-16.4,3-.69,1.15-2.93,3.12-4,1.12-1.69.64-5.43,4.13-6.07.59-1.72.95-6.09,2.89-6.7-.18-.49-2.5,2-4.54,3.89-4.82,6.75-1,14.47-2.39,21.15-3.21,2.15-.26,4.45-.2,5.71-1.71.79-3.49-4.9-2.36-7.76-2.13a19.15,19.15,0,0,0-2.17.27c-1.21.4-3,2.91-4.27,1.27-1.53.57-2.81,1.45-4.45,1.6-.53-.26-.55-1.06-1.1-1.29-1.2.39-5.6,2.86-6.14.59-.43-1.82,1.23-4.11,2.16-5,2.31-2.3,8.11-1.81,12-2.24,2.21-.25,5.3-.67,7.79-.79C136.08,11.17,142,14.62,140,20.74Zm-.53-2c.69-6.17-8.92-6.86-13.82-5.58a18.52,18.52,0,0,0-.83,2.88c3.1-.63,12-1.7,10.82,2.89-.34,1.36-2.22,2.56-3.89,2.78-2.89.37-6.79.85-9.56,1.23-.23,1.28-1,2.07-1.35,3.23C127.85,25,138.6,26.13,139.42,18.77Zm66.13-2.87a14.79,14.79,0,0,0-.05,2.58c.76-.08,1.8-.06,2.78-.22a10.22,10.22,0,0,1,.12-2.46A12.35,12.35,0,0,0,205.55,15.9Zm-4.89.29a15.9,15.9,0,0,0,0,2.78,25.33,25.33,0,0,1,3.16-.37A23.53,23.53,0,0,0,203.7,16C202.8,16,201.69,16.18,200.66,16.19Zm-5.74.51a21.34,21.34,0,0,0,0,2.65c1.31-.24,2.63-.18,3.82-.39a18.28,18.28,0,0,0-.08-2.58C197.58,16.48,196,16.59,194.92,16.7Zm-6,.66c0,.91,0,1.68,0,2.58,1.44-.2,2.55-.28,4-.39-.05-.78,0-1.72,0-2.65C191.44,17.07,190.32,17.13,188.91,17.36Zm-6.07.73c0,.9-.06,1.73,0,2.65,1.35,0,3.06-.49,4.28-.54a10.4,10.4,0,0,0-.08-2.64C185.48,17.75,184.22,17.82,182.84,18.09Zm-7.44,1.23a14.84,14.84,0,0,0,0,2.85c1.68-.49,3.71-.64,5.26-1.1.1-.7,0-1.72,0-2.71C179.07,18.7,177.16,18.91,175.4,19.32Zm-7.1,1.49c.08,1.2,0,2.14.1,3.11a51.6,51.6,0,0,1,5.12-1.29c0-1.12-.05-1.9-.09-2.91C171.56,19.94,170,20.46,168.3,20.81Zm-30.38,2.71c1.19,1.75,2.08,3.8,3.23,5.59.73-.28,1.25-.75,1.95-1.06a33,33,0,0,0-3.77-6.16A7.88,7.88,0,0,1,137.92,23.52Zm23-.55c0,1.26,0,2.16.11,3.25,1.9-.58,3.49-1.1,5.44-1.77,0-1.07-.1-2.33,0-3.11C164.54,21.81,162.71,22.33,160.88,23Zm44.55-2.63c0,6.93-.44,12.61-.7,19.22l2.72,0c.54-6.89.75-12.66.88-19.57A12.86,12.86,0,0,0,205.43,20.34Zm-4.82.28c.06,6.72-.36,12.94-.78,18.9a19.45,19.45,0,0,0,3,0c.56-6.29.8-12.78.83-19.17C202.7,20.45,201.79,20.61,200.61,20.62Zm-5.75.59c-.16,6.05-.57,13.3-1,18.51,1.6-.09,2.58-.13,4.17-.14.4-6.71.85-12.18.65-18.76C197.58,21,196.26,21.05,194.86,21.21Zm-6,.79c0,5.92-.44,11.91-.67,18.1,1.32,0,2.69-.21,3.9-.33.48-6,.8-12.1.86-18.3C191.52,21.61,189.83,21.8,188.86,22Zm-6.12,1c-.08,6-.31,12.23-.55,17.83,1.48,0,2.61-.38,4.22-.46.58-5.78.55-12.17.74-18.11C185.75,22.39,184.28,22.7,182.74,23ZM154.4,25.17c.16,1.15,0,2.42.25,3.64a45.47,45.47,0,0,1,4.7-1.95c0-1.15-.07-2.05-.1-3.3C157.47,24,156.14,24.62,154.4,25.17Zm26.16-1.84c-1.85.37-3.33.71-5.19,1.09,0,5.86.09,11.76-.16,17.62,1.64-.32,3.26-.66,5-.89C180.39,34.71,180.8,29.22,180.56,23.33Zm-7,1.55c-1.76.47-3.42,1-5.19,1.49,0,5.18,0,11.35.09,17,1.69-.33,3.32-.69,5-1C173.49,35.21,173.58,31.15,173.53,24.88Zm-20.83,1c-1.69.77-3.4,1.52-5,2.35-.06,1.28.17,2.37,0,3.77,1.68-.63,3.43-1.75,5.22-2.49A15.46,15.46,0,0,0,152.7,25.89Zm8.38,3c0,5.59.26,10.37.32,16.15,1.66-.24,3.41-.95,5.26-1.24-.15-5.93,0-11.64-.28-16.87A53.34,53.34,0,0,0,161.08,28.93Zm-19.45,2.75c.09,1.38.12,2.22.2,4,1.57-.85,2.9-1.94,4.48-2.79-.2-1.31.1-2.53-.39-3.77A36.1,36.1,0,0,0,141.63,31.68Zm13-.09c.28,4.79.42,9.91.69,15.4,1.47-.52,3-1,4.59-1.4-.25-5.94,0-10.47-.58-16C157.7,30.21,156.25,31,154.61,31.59Zm-18.49,3.78c0,1.23.12,2.52,0,3.57,1.49-.55,2.52-1.53,3.9-2.18-.1-1.35-.18-2.4-.19-3.9A17,17,0,0,0,136.12,35.37Zm16.79-2.93c-1.54,1.13-3.49,1.49-5,2.61.19,5.38.4,9.79.59,14.15,1.76-.51,3.37-1.16,5.11-1.69C153.32,41.47,153.54,37.75,152.91,32.44Zm-6,17.21c-.21-4.71-.16-9.83-.64-13.75-1.23,1.09-3,1.7-4.35,2.66.19,4,.47,8.4.68,12.69A29.59,29.59,0,0,0,146.91,49.65ZM73.6,43.42C81.29,58.91,89,74,95.41,91.06A10.38,10.38,0,0,1,98,90.64c.88-3,2.15-6.51,2.94-9.63-1.49,0-2.83.53-4.17.27.09-.87-.15-1.6,0-2.45,3.45-1,8-1.15,12.39-1.66.46.62.2,1.8.16,2.64a21,21,0,0,1-3,.43c-1.16,3.63-2.39,7.75-3.54,11.44.33.09.5.33.81.43C111,84.9,118.5,77.82,125.53,70.28c-1.45.18-2.44.16-3.63.25,1,2.34-2,3.27-1.59,0-.92.07-1.91.09-2.77.22.06.79.59,2.49-.86,2.28a6.38,6.38,0,0,1-.6-2.23c-.88,0-2,.12-2.64.09,1.14,2.47-1.48,3.1-1.46.11l-2.38.08c.12.82.42,1.87-.52,2.2-.76-.22-.59-1.43-.93-2.09-1,0-1.83.09-2.65.09a6.44,6.44,0,0,0,.52,1.83c-.94,1.72-1.9-.65-2-1.72-.62,0-1.24,0-1.65,0,.53.8.85,2.95-.67,2.07a17.05,17.05,0,0,0-.79-2c-1.09.08-1.75.11-2.14-.59,0-.47-.06-.69.17-1a9.43,9.43,0,0,0,1.25-.17c-1-2-1.58-4-2.45-6.15A1.11,1.11,0,1,1,97,61.54c-.86-2.71-1.78-5.14-2.65-8.2-2.35,1.17-3.21-2.45-.65-1.83-.12-1.1-.73-2.56-.92-3.81a8.64,8.64,0,0,1-1.59.12c-.68-1.53-.17-2,1.39-2.1,4.9-.28,10.78-1,15.65-1.57,8.13-1,15.73-4.37,22.07-7.53C112.14,38.36,91.81,40.53,73.6,43.42Zm60.64-6.8a22.6,22.6,0,0,1-4.1,2.32c0,1.37.13,1.89.17,3a28.88,28.88,0,0,0,4.36-2.26C134.35,38.79,134.63,37.63,134.24,36.62Zm-9.84,4.89c.26.6.09,1.91.29,2.77,1.53-.46,2.58-1,4-1.52-.14-1.18-.14-1.9-.23-2.91C127.16,40.21,125.76,41,124.4,41.51Zm15.69-2c-1.17.69-2.45,1.29-3.71,1.9.24,4.25.52,8.09.91,11.7,1.14-.5,2.46-.82,3.67-1.25C140.68,47.89,140.68,43.51,140.09,39.48ZM122.89,42c-1.14.51-2.51.81-3.73,1.25.11,1.18.13,1.63.29,2.9a38.36,38.36,0,0,0,3.73-1.31A11.1,11.1,0,0,0,122.89,42Zm11.73.15a29.51,29.51,0,0,1-4.11,2c.2,3.6.53,7.26.81,10.7,1.56-.39,2.8-.84,4.2-1.26C135.12,49.83,135.16,45.6,134.62,42.17ZM62.14,59.42c12.13,7,19.67,22,18.29,39.27a66.67,66.67,0,0,1,7.22,0,14.38,14.38,0,0,1,4.5-6.17c-6.28-16.68-14-32.17-21.48-47.77C68,49.82,64.93,54.49,62.14,59.42Zm51.31-14.64c.08,1.06.28,2,.43,3.23a18.29,18.29,0,0,0,3.93-1.32c0-.74-.16-2-.29-3C116.14,44.06,114.78,44.4,113.45,44.78Zm80.23-2.87c-.44,7.24-1.17,13.48-1.66,20.38,1.31-.2,2.65-.42,3.89-.59.62-6,1.53-13.63,1.87-20.06C196.43,41.88,195,41.71,193.68,41.91Zm5.95-.26c-.5,6.64-1.22,13-1.88,19.66a14,14,0,0,0,3.23-.57c.59-6.15,1.23-12.45,1.76-19.13ZM188,42.42c-.58,6.21-1,14-1.71,20.65,1.5-.23,2.63-.33,4-.59.58-6.53,1.23-13.61,1.58-20.51C190.6,42.23,188.9,42.09,188,42.42Zm16.66-.8h-.13c-.63,6.41-1.18,12.72-1.84,18.87a22.56,22.56,0,0,0,2.9-.62c.63-6.46,1.28-12.23,1.66-18.2C206.23,41.6,205.35,41.63,204.66,41.62ZM182.13,43c-.29,7.19-.58,13.67-1,20.7,1.19-.15,2.17-.22,3.43-.38.88-7.19,1.44-14.1,1.77-20.85h-.13C184.73,42.73,183.55,42.81,182.13,43Zm-73.95,2.8c.25,1.35.38,2.27.65,3.55,1.25-.26,2.42-.59,3.61-.91-.17-1.2-.34-2.31-.51-3.36C110.68,45.25,109.59,45.57,108.18,45.81Zm16.65.72c.3,3.31.53,6.51.78,9.9a25.68,25.68,0,0,0,4.07-1c-.31-3.88-.5-6.81-.87-10.51C127.52,45.46,126.17,46,124.83,46.53Zm55.25-3.25c-1.8.37-3.49.55-4.93.89-.08,6.66-.39,14-.54,20.28,1.35-.25,3.2-.32,4.75-.55C179.67,56.76,180.18,50.23,180.08,43.28ZM106.8,46.05c-1.08.08-2.33.36-3.5.45.28,1.3.56,2.59.86,3.88,1.27-.26,2-.41,3.29-.64C107.36,48.26,107,47.45,106.8,46.05Zm-8.44,1.07c.19,1.46.57,2.49.85,4a20.85,20.85,0,0,0,3.56-.52,25.09,25.09,0,0,0-1-3.87C100.69,46.87,99.54,47,98.36,47.12Zm70.08-1.54c-.09,7-.05,12.69.1,19.46,1.56-.19,3.14-.28,4.42-.47.08-6.85.4-13.47.41-20C171.63,44.8,170,45.2,168.44,45.58Zm-74.37,2a34.89,34.89,0,0,0,1,3.94c1-.17,1.88-.13,2.9-.23-.14-1.19-.65-2.73-.92-3.94C96,47.31,94.9,47.55,94.07,47.53Zm25.58.75c.29,3.37.59,6.19.91,9.51,1.25-.22,2.54-.73,3.68-.85-.53-3.47-.41-6.43-1-9.83C122,47.45,121,48,119.65,48.28Zm41.83-.82c.13,6.47.2,12.67.39,18.26,1.77-.28,3.19-.36,4.95-.49,0-6.41-.09-12.57-.16-19.2h-.13C164.82,46.48,163.06,46.89,161.48,47.46Zm-47.27,2.59c.42,2.72.82,5.77,1.35,8.83,1.3-.22,2.2-.47,3.42-.71-.31-3.3-.56-6.16-1-9.3C117,49.26,115.45,49.67,114.21,50.05Zm41.17-.74c.22,5.57.41,11.54.68,16.86,1.39,0,2.76-.31,4.29-.33-.2-5.57,0-12.52-.51-17.93C158.4,48.42,156.85,48.83,155.38,49.31Zm-46.16,2c.51,2.76,1.27,5.74,1.6,8.36a28,28,0,0,0,3.36-.58c-.52-3.33-.9-5.84-1.41-8.63C111.53,50.72,110.46,51.11,109.22,51.34Zm44.39-1.44c-1.54.73-3.46,1.12-5,1.88,0,5.08.36,10.23.42,15.15,1.75-.38,3.43-.3,5.22-.57C154.13,61,154,55.47,153.61,49.9Zm-48.93,2.31c.63,2.69,1.3,5.66,2,8.22,1,0,1.8-.37,2.9-.43-.55-3.15-1-5.33-1.66-8.35C106.66,51.82,105.69,52.09,104.68,52.21Zm-1.51.25c-1.19.15-2.35.45-3.43.51.63,2.74,1.4,5.46,2.25,8.14,1.27-.12,2.08-.23,3.3-.44C104.56,57.8,104,55.27,103.17,52.46Zm-7.52.84a83.29,83.29,0,0,0,2.71,8.26,12.39,12.39,0,0,1,2.38-.28c-.89-2.72-1.55-5.39-2.32-8.2C97.57,53.16,96.59,53.2,95.65,53.3Zm47.09.39c.17,4.14.47,9.26.64,13.62,1.45-.16,2.63-.16,4.23-.4-.24-4.46-.21-10.17-.68-14.61C145.5,52.8,144,53.39,142.74,53.69Zm-1.63.65c-1.22.44-2.57.76-3.74,1.25.32,4.43.51,8.09.86,12.09,1.26-.05,2.35-.2,3.5-.25C141.72,63.73,141.45,58.5,141.11,54.34ZM29.7,61.73C15.31,69.33,4.12,83.29,4.5,103.48c.36,19.64,12.92,34.9,32.53,35.1,11.61.11,20.24-6,26.43-12,6.6-6.35,10.66-15.09,12.55-25.3-15.82.2-28.86.83-44.57,1.91a9.7,9.7,0,0,1-.23-1.12c9.34-12.82,18.26-26.71,26.3-40.32C50.05,57.4,37.49,57.84,29.7,61.73Zm105.84-5.62c-1.36.47-2.77.82-4,1.19.4,4,.53,7.17,1.08,10.83,1.3-.19,2.74-.14,4-.33C136.15,63.31,136.15,60,135.54,56.11Zm-9.72,2.7c.32,3.47.69,6.48.85,9.71,1.4-.18,3.11-.13,4.22-.4-.41-3.74-.64-6.7-1-10.3C128.65,58,127.38,58.58,125.82,58.81Zm-1.57.38a30.84,30.84,0,0,1-3.49.85c.33,3,.58,6.15.95,8.77,1.19-.14,2.41-.16,3.63-.25C124.93,65.35,124.86,62.15,124.25,59.19Zm-5.06,1.23c-1.18.14-2.21.41-3.29.63.44,2.85.87,5.11,1.25,7.91a25.05,25.05,0,0,0,3-.16C119.7,65.85,119.61,63.84,119.19,60.42ZM35.07,100.76c14.53-1.15,27.84-1.59,41.32-2C77.92,82.5,70.91,69.58,59.87,63,52.15,76.11,43.64,88.46,35.07,100.76Zm76.28-38.9c.43,2.29,1.24,5,1.57,7.44.87-.22,2.32,0,2.9-.3-.51-2.46-.84-5.09-1.31-7.7C113.62,61.48,112.46,61.7,111.35,61.86Zm-4.15.67c.67,2.4,1.1,4.68,1.88,6.89,1-.13,1.52,0,2.51-.15-.62-2.44-.89-4.87-1.69-7.16A24.48,24.48,0,0,1,107.2,62.53Zm-4.54.68c.66,2.25,1.42,4.39,2.06,6.35,1,.06,2-.09,3,0-.64-2.16-1.22-4.35-1.73-6.63A14.85,14.85,0,0,0,102.66,63.21Zm-3.5.37c.68,2.18,1.58,4.11,2.38,6.15.67.06,1.15-.06,1.86,0-.7-2.14-1.4-4.26-2.07-6.42C100.63,63.42,99.86,63.47,99.16,63.58Zm92.54,1c-.1,1.32.21,3.35-1.42,3-.57-.6-.17-1.87-.16-2.85-1.24.17-2.66.39-4,.53.05,1.51-.41,4-1.9,2.65,0-1,.16-1.46.18-2.39-1.31.1-2.45.28-3.49.37,0,1-.36,1.64-.38,2.6a1.48,1.48,0,0,1-.85.36c-.79-.7-.28-1.64-.42-2.77-1.5.09-3.06.34-4.69.48-.29.74.19,2.59-.63,2.87-1.39.47-1.1-1.65-1.08-2.68-1.46.11-2.79.35-4.3.41,0,1.3.35,2.65-1,2.94-1-.4-.74-1.76-.75-2.76-1.64.12-3.24.24-5,.5.18,1.61.15,3.42-1.38,2.36.07-.72-.13-1.51-.07-2.31-1.21.11-2.23.15-3.31.3,3.41,13.1,9.5,24.58,17.37,33.14-1.39,2-2.8-.08-3.95-1.26a57.21,57.21,0,0,1-12-17.29,118.35,118.35,0,0,1-4.72-12.63,45.58,45.58,0,0,0-12.63,43.39c3.33,10,9,18.41,18.2,22.19a31.44,31.44,0,0,0,13.06,2.49,38.56,38.56,0,0,0,23.42-9,46.11,46.11,0,0,0,15.63-26.4c2.32-12-.68-24.43-7-32.22-2.2-2.25-4.3-4.64-7.16-6.33-.39.83-.38,3.12-1.86,2,0-.68.38-1.67.12-2.32C194.07,64.33,192.81,64.37,191.7,64.62ZM103.17,79c-1.76,3.54-2.55,7.48-3.8,11.64a15.18,15.18,0,0,1,2.27.46c1.07-4,2.34-7.73,3.4-11.7A1.33,1.33,0,0,0,103.17,79Zm-1.94,13.77a9.39,9.39,0,0,0-10.58,4.38c-2.06,3-1.74,9.74,1.37,11.74,1.66-2.9,1.4-9.51,5.38-9.71,3.88,2.35,0,7.45-.64,10.75C106.32,111,109.3,95.83,101.23,92.79Zm-4.38,12.06c.47-1.27,1.91-4.26-.34-4.56-2.6,4.33-3.44,10.47-5.79,15.35,0,1-.84,2.51-.89,3.28.59,0,1.76-.31,2.37-.34C93.78,114.06,95.23,109.26,96.85,104.85Z"/><path class="cls-1" d="M129.72,45.59c.25,3.71.34,6.64.53,10.53a26.66,26.66,0,0,1-4.1.92c-.15-3.4-.26-6.6-.46-9.93C127.05,46.62,128.41,46.14,129.72,45.59Z"/><path class="cls-1" d="M136.74,68.76c-1.23.15-2.67,0-4,.2-.43-3.67-.47-6.88-.73-10.86,1.24-.33,2.66-.63,4-1.06C136.56,61,136.46,64.26,136.74,68.76Z"/></svg>