<svg id="Layer_1" data-name="Layer 1" xmlns="http://www.w3.org/2000/svg" viewBox="0 0 147.84 45.96"><defs><style>.cls-1{fill:#6a0f1d;}</style></defs><title>Artboard 44</title><path class="cls-1" d="M1.68,43.68H7.5v1.74H0v-42H1.68ZM25.14,12.54c0,8.7-5.28,13.14-10.8,13.14-.48,0-3.54,0-4-.06V42.54H2.82V.54h11.7C21.72.54,25.14,5.82,25.14,12.54Zm-7.14,0c0-3.36-.78-5.94-3.72-5.94h-4V19.26h1.5C16.62,19.26,18,18.72,18,12.54Zm-1.14.06c0,3.66-.36,4.92-1.8,5.34a15.34,15.34,0,0,0,.12-2.52c0-3.36-.72-6-3.72-6L11.4,7.68h2.88C15.6,7.68,16.86,8.34,16.86,12.6ZM18,26.22a10.27,10.27,0,0,1-6.6,2.28V26.82C15.42,26.82,15.72,26.88,18,26.22Z"/><path class="cls-1" d="M31.86,43.68l-1.68,1.68h-7l8.58-42L33.12,2,24.54,43.68ZM41.7,32.76H34.44L33,42.54H25.92l8.64-42h7.5l8.64,42H43.2Zm7.86,10.92-1.68,1.68h-7.5l-1.44-9.72H35.16L35.4,34h5.4l1.38,9.72ZM40.5,26.76,38.22,11.7H38L35.7,26.76Zm-2.4-8.22,1.08,7.2h-2.1L37,25.32Z"/><path class="cls-1" d="M58.8,24c-4.32-4.32-5.58-6-5.58-11.7a9.07,9.07,0,0,1,2.1-5.94,12.65,12.65,0,0,0-.42,3.12c0,6,1.62,8.22,5.94,12.54L67,28.26a6.72,6.72,0,0,1,2.22,5,2.43,2.43,0,0,1-1.68,2.64,8.66,8.66,0,0,0-2.4-5.58l-.48-.42V28.2H63ZM67,44.28a15.77,15.77,0,0,0,5.16-.84A12.75,12.75,0,0,1,64.2,46c-6.06,0-10.92-3.36-10.92-9.48V32.16H55v1.56C55,40,59.82,44.28,67,44.28ZM78.12,33.66c0,6.06-5.16,9.42-11.16,9.42S56.1,39.72,56.1,33.66V29.28h7.44v4c0,2.52,1.56,3.84,3.42,3.84s3.36-1.44,3.36-3.84a7.62,7.62,0,0,0-2.4-5.76l-6.3-6.3C57.3,16.86,56,15.12,56,9.42S60.6,0,67,0,77.82,3.78,77.82,9.42V12.3h-7.5V10.62c0-3-1.56-4.68-3.36-4.68a3.36,3.36,0,0,0-3.42,3.3c0,1.92.48,3.24,2.22,5.22l7.5,8.64C76.26,26.46,78.12,28.74,78.12,33.66ZM67.56,14.94v-1.5c0-2.64-1.26-4.26-2.82-4.56A2.26,2.26,0,0,1,67,7.14c1.38,0,2.28,1.38,2.28,3.54v2.76h5.82v1.68H67.74Z"/><path class="cls-1" d="M89.46,43.68h5.76v1.68h-7.5v-36H80v-6h1.68V7.68h7.74ZM105.78.54v6H98v36h-7.5v-36H82.86v-6Zm-6.6,7.14H103V9.36H99.18Z"/><path class="cls-1" d="M109.86,43.68h5.82v1.74h-7.5v-42h1.68ZM118.44.54v42h-7.5V.54Z"/><path class="cls-1" d="M128.52,24c-4.32-4.32-5.58-6-5.58-11.7A9.07,9.07,0,0,1,125,6.36a12.65,12.65,0,0,0-.42,3.12c0,6,1.62,8.22,5.94,12.54l6.18,6.24a6.72,6.72,0,0,1,2.22,5,2.43,2.43,0,0,1-1.68,2.64,8.66,8.66,0,0,0-2.4-5.58l-.48-.42V28.2h-1.68Zm8.16,20.28a15.77,15.77,0,0,0,5.16-.84A12.75,12.75,0,0,1,133.92,46C127.86,46,123,42.6,123,36.48V32.16h1.74v1.56C124.74,40,129.54,44.28,136.68,44.28Zm11.16-10.62c0,6.06-5.16,9.42-11.16,9.42s-10.86-3.36-10.86-9.42V29.28h7.44v4c0,2.52,1.56,3.84,3.42,3.84S140,35.64,140,33.24a7.62,7.62,0,0,0-2.4-5.76l-6.3-6.3c-4.32-4.32-5.58-6.06-5.58-11.76S130.32,0,136.68,0s10.86,3.78,10.86,9.42V12.3H140V10.62c0-3-1.56-4.68-3.36-4.68a3.36,3.36,0,0,0-3.42,3.3c0,1.92.48,3.24,2.22,5.22L143,23.1C146,26.46,147.84,28.74,147.84,33.66ZM137.28,14.94v-1.5c0-2.64-1.26-4.26-2.82-4.56a2.26,2.26,0,0,1,2.22-1.74c1.38,0,2.28,1.38,2.28,3.54v2.76h5.82v1.68h-7.32Z"/></svg>