<svg id="Layer_1" data-name="Layer 1" xmlns="http://www.w3.org/2000/svg" viewBox="0 0 92.7 45.42"><defs><style>.cls-1{fill:#6a0f1d;}</style></defs><title>Artboard 49</title><path class="cls-1" d="M1.68,43.14H7.5v1.74H0v-42H1.68Zm11-18c-1.08,0-2-.06-2.34-.06V42H2.82V0H15.36C22.56,0,26,5.28,26,12c0,6.24-2.7,10.26-6.3,12.06L27.6,42H19.8Zm0-6.42c4.8,0,6.18-.54,6.18-6.72,0-3.36-.78-5.94-3.72-5.94h-4.8V18.72Zm5-6.66c0,3.66-.36,4.92-1.8,5.34A15.34,15.34,0,0,0,16,14.88c0-3.36-.72-6-3.72-6h-.9V7.14h3.72C16.44,7.14,17.7,7.8,17.7,12.06ZM24.06,43.2l.72,1.68H17L11.4,31.68v-5.4h.54L19.08,43.2Z"/><path class="cls-1" d="M31.92,33.18c0,5.22,3.78,10.56,12.36,10.56A14.26,14.26,0,0,0,49,43a11.57,11.57,0,0,1-7.5,2.46c-8.34,0-11.28-5.1-11.28-9.42V2.88h1.68ZM55.14,0V33.18c0,4.2-3.36,9.36-10.86,9.36-8.28,0-11.22-5.16-11.22-9.36V0h7.5V33.12a3.54,3.54,0,0,0,7.08,0V0ZM44.88,35.4V2.88h1.68v30.3A2.72,2.72,0,0,1,44.88,35.4Z"/><path class="cls-1" d="M61.68,43.2h5.76v1.68h-7.5v-42h1.74ZM92.7,0V42H85.2V16.08L80.34,42H75.12L70.38,16.08h-.12V42h-7.5V0H72.9l4.8,25.14h.12L82.62,0ZM74.22,43.2h3.66l-.3,1.68H72.3l-1-5.22V27.72Zm3.54-23.52-.6-3L79.8,2.88h1.14ZM84.12,43.2h5.82v1.68h-7.5V37l1.68-9.24Z"/></svg>