<svg id="Layer_1" data-name="Layer 1" xmlns="http://www.w3.org/2000/svg" viewBox="0 0 485.33 45.96"><defs><style>.cls-1{fill:#6a0f1d;}</style></defs><title>Artboard 18</title><path class="cls-1" d="M8.7,43.68,7,45.36H0l8.58-42L10,2,1.38,43.68Zm9.84-10.92H11.28L9.84,42.54H2.76L11.4.54h7.5l8.64,42H20ZM26.4,43.68l-1.68,1.68h-7.5l-1.44-9.72H12L12.24,34h5.4L19,43.68ZM17.34,26.76,15.06,11.7h-.18L12.54,26.76Zm-2.4-8.22L16,25.74h-2.1l-.06-.42Z"/><path class="cls-1" d="M44.88,43.74A12.65,12.65,0,0,0,49.26,43a10.72,10.72,0,0,1-7.14,2.46H31v-42l1.68-1.68v42H44.88ZM56.1,30.54c0,6.72-4,12-11.22,12H33.78V.54H43.5c7,0,10.92,3.9,10.92,10.68,0,3.54-1.8,7.38-4.74,8.64C53.52,21.54,56.1,24.72,56.1,30.54Zm-14.82-14h.36c5.28,0,6.18-1,6.18-5,0-3.06-1-4.92-3.78-4.92H41.28Zm7.68,14c0-4.56-1.38-7.68-6.18-7.68h-1.5V36.48H43.8C46.8,36.48,49,33.9,49,30.54ZM45,14.28c0-2.58-.78-4.32-2.64-4.74V7.74H44c2.1,0,2.7,1.32,2.7,3.66,0,2-.06,3.3-1.74,3.72ZM47.82,30.6A5,5,0,0,1,46,34.74a9.09,9.09,0,0,0,.12-1.38c0-3.6-.9-6.36-3.78-7.26V24h.42C46.38,24,47.82,25.92,47.82,30.6Z"/><path class="cls-1" d="M73.26,44.28A16.71,16.71,0,0,0,78,43.56,11.55,11.55,0,0,1,70.5,46c-8.34,0-11.28-5.16-11.28-9.42V12.3a9,9,0,0,1,2.1-5.94,13.93,13.93,0,0,0-.42,3.12V33.72C60.9,38.94,64.68,44.28,73.26,44.28ZM84.12,9.42V33.66c0,4.26-3.36,9.42-10.86,9.42C65,43.08,62,37.92,62,33.72V9.42C62,5.16,65,0,73.26,0,80.76,0,84.12,5.16,84.12,9.42Zm-7.5,0a3.54,3.54,0,0,0-7.08-.06V33.54a3.6,3.6,0,0,0,3.72,3.54c2.16,0,3.36-2.28,3.36-3.54Zm-1.08.06V33.6a2.88,2.88,0,0,1-1.68,2.34V12.3a3.76,3.76,0,0,0-3.12-3.48,2.63,2.63,0,0,1,2.52-1.68A2.53,2.53,0,0,1,75.54,9.48Z"/><path class="cls-1" d="M90.3,33.72c0,5.22,3.78,10.56,12.36,10.56a14.26,14.26,0,0,0,4.74-.78A11.57,11.57,0,0,1,99.9,46c-8.34,0-11.28-5.1-11.28-9.42V3.42H90.3ZM113.52.54V33.72c0,4.2-3.36,9.36-10.86,9.36-8.28,0-11.22-5.16-11.22-9.36V.54h7.5V33.66a3.54,3.54,0,0,0,7.08,0V.54Zm-10.26,35.4V3.42h1.68v30.3A2.72,2.72,0,0,1,103.26,35.94Z"/><path class="cls-1" d="M126.36,43.68h5.76v1.68h-7.5v-36h-7.68v-6h1.68V7.68h7.74ZM142.68.54v6h-7.74v36h-7.5v-36h-7.68v-6Zm-6.6,7.14h3.78V9.36h-3.78Z"/><path class="cls-1" d="M170.1,43.74a12.65,12.65,0,0,0,4.38-.78,10.72,10.72,0,0,1-7.14,2.46H156.18v-42l1.68-1.68v42H170.1Zm11.22-13.2c0,6.72-4,12-11.22,12H159V.54h9.72c7,0,10.92,3.9,10.92,10.68,0,3.54-1.8,7.38-4.74,8.64C178.74,21.54,181.32,24.72,181.32,30.54Zm-14.82-14h.36c5.28,0,6.18-1,6.18-5,0-3.06-1-4.92-3.78-4.92H166.5Zm7.68,14c0-4.56-1.38-7.68-6.18-7.68h-1.5V36.48H169C172,36.48,174.18,33.9,174.18,30.54Zm-4-16.26c0-2.58-.78-4.32-2.64-4.74V7.74h1.68c2.1,0,2.7,1.32,2.7,3.66,0,2-.06,3.3-1.74,3.72ZM173,30.6a5,5,0,0,1-1.8,4.14,9.09,9.09,0,0,0,.12-1.38c0-3.6-.9-6.36-3.78-7.26V24H168C171.6,24,173,25.92,173,30.6Z"/><path class="cls-1" d="M186.42,43.68h5.82v1.74h-7.5v-42h1.68ZM195,.54v42h-7.5V.54Z"/><path class="cls-1" d="M205.08,24c-4.32-4.32-5.58-6-5.58-11.7a9.07,9.07,0,0,1,2.1-5.94,12.65,12.65,0,0,0-.42,3.12c0,6,1.62,8.22,5.94,12.54l6.18,6.24a6.72,6.72,0,0,1,2.22,5,2.43,2.43,0,0,1-1.68,2.64,8.66,8.66,0,0,0-2.4-5.58l-.48-.42V28.2h-1.68Zm8.16,20.28a15.77,15.77,0,0,0,5.16-.84A12.75,12.75,0,0,1,210.48,46c-6.06,0-10.92-3.36-10.92-9.48V32.16h1.74v1.56C201.3,40,206.1,44.28,213.24,44.28ZM224.4,33.66c0,6.06-5.16,9.42-11.16,9.42s-10.86-3.36-10.86-9.42V29.28h7.44v4c0,2.52,1.56,3.84,3.42,3.84s3.36-1.44,3.36-3.84a7.62,7.62,0,0,0-2.4-5.76l-6.3-6.3c-4.32-4.32-5.58-6.06-5.58-11.76S206.88,0,213.24,0,224.1,3.78,224.1,9.42V12.3h-7.5V10.62c0-3-1.56-4.68-3.36-4.68a3.36,3.36,0,0,0-3.42,3.3c0,1.92.48,3.24,2.22,5.22l7.5,8.64C222.54,26.46,224.4,28.74,224.4,33.66ZM213.84,14.94v-1.5c0-2.64-1.26-4.26-2.82-4.56a2.26,2.26,0,0,1,2.22-1.74c1.38,0,2.28,1.38,2.28,3.54v2.76h5.82v1.68H214Z"/><path class="cls-1" d="M235.74,43.68h5.76v1.68H234v-36h-7.68v-6H228V7.68h7.74ZM252.06.54v6h-7.74v36h-7.5v-36h-7.68v-6Zm-6.6,7.14h3.78V9.36h-3.78Z"/><path class="cls-1" d="M256.14,43.68H262v1.74h-7.5v-42h1.68Zm11-18c-1.08,0-2-.06-2.34-.06V42.54h-7.5V.54h12.54c7.2,0,10.62,5.28,10.62,12,0,6.24-2.7,10.26-6.3,12.06l7.92,17.94h-7.8Zm0-6.42c4.8,0,6.18-.54,6.18-6.72,0-3.36-.78-5.94-3.72-5.94h-4.8V19.26Zm5-6.66c0,3.66-.36,4.92-1.8,5.34a15.34,15.34,0,0,0,.12-2.52c0-3.36-.72-6-3.72-6h-.9V7.68h3.72C270.9,7.68,272.16,8.34,272.16,12.6Zm6.36,31.14.72,1.68H271.5l-5.64-13.2v-5.4h.54l7.14,16.92Z"/><path class="cls-1" d="M298.14,44.28a16.71,16.71,0,0,0,4.74-.72,11.55,11.55,0,0,1-7.5,2.4C287,46,284.1,40.8,284.1,36.54V12.3a9,9,0,0,1,2.1-5.94,13.93,13.93,0,0,0-.42,3.12V33.72C285.78,38.94,289.56,44.28,298.14,44.28ZM309,9.42V33.66c0,4.26-3.36,9.42-10.86,9.42-8.28,0-11.22-5.16-11.22-9.36V9.42c0-4.26,2.94-9.42,11.22-9.42C305.64,0,309,5.16,309,9.42Zm-7.5,0a3.54,3.54,0,0,0-7.08-.06V33.54a3.6,3.6,0,0,0,3.72,3.54c2.16,0,3.36-2.28,3.36-3.54Zm-1.08.06V33.6a2.88,2.88,0,0,1-1.68,2.34V12.3a3.76,3.76,0,0,0-3.12-3.48,2.63,2.63,0,0,1,2.52-1.68A2.53,2.53,0,0,1,300.42,9.48Z"/><path class="cls-1" d="M337.2,43.38A12.48,12.48,0,0,1,329,46a9.39,9.39,0,0,1-7-2.7L323.88,41l.06.12a10.52,10.52,0,0,0,7.92,3.06A15.83,15.83,0,0,0,337.2,43.38Zm6-42.84V33.66c0,4.32-3.06,9.42-11.34,9.42-3.24,0-5.76-1.14-7-2.7l3.72-4.44a5.34,5.34,0,0,0,3.3,1.14,3.74,3.74,0,0,0,3.78-3.48V.54ZM332.82,35.82V3.42h1.68V33.66A2.53,2.53,0,0,1,332.82,35.82Z"/><path class="cls-1" d="M349.68,43.68H367v1.74H348v-42h1.68Zm20.1-7.2v6.06h-19V.54h18.12V6.6H358.32V16.86h7.56v6h-7.56V36.48ZM359.4,9.42V7.68h6.72V9.42Zm0,16.26V24h3.72v1.68Z"/><path class="cls-1" d="M379.5,43.68l-1.68,1.68h-7l8.58-42L380.76,2l-8.58,41.64Zm9.84-10.92h-7.26l-1.44,9.78h-7.08l8.64-42h7.5l8.64,42h-7.5Zm7.86,10.92-1.68,1.68H388l-1.44-9.72H382.8L383,34h5.4l1.38,9.72Zm-9.06-16.92L385.86,11.7h-.18l-2.34,15.06Zm-2.4-8.22,1.08,7.2h-2.1l-.06-.42Z"/><path class="cls-1" d="M403.44,43.74h5.82v1.68h-7.5v-42h1.68ZM427,.54v42h-7.5l-7.38-24H412v24h-7.5V.54h7.92l7,23.34h.12V.54Zm-8.34,43.2h5.58v1.68h-7.5l-3.6-11.7v-8.1Zm-.24-26.82-1.68-5.7V3.42h1.68Z"/><path class="cls-1" d="M439.86,43.68h5.76v1.68h-7.5v-36h-7.68v-6h1.68V7.68h7.74ZM456.17.54v6h-7.73v36h-7.5v-36h-7.68v-6Zm-6.59,7.14h3.77V9.36h-3.77Z"/><path class="cls-1" d="M468.17,43.74h5.58v1.68H466.5V29.1L457.8,3.42h2.58l7.79,23ZM485.33.54l-8.82,25.68V42.54h-7.2V26.22L460.56.54h7.38L473,20.76,478,.54ZM473,16.38l-.54-2,2.64-11h1Z"/></svg>