<svg id="Layer_1" data-name="Layer 1" xmlns="http://www.w3.org/2000/svg" viewBox="0 0 450.77 45.96"><defs><style>.cls-1{fill:#6a0f1d;}</style></defs><title>Artboard 53</title><path class="cls-1" d="M5.58,24C1.26,19.68,0,18,0,12.3A9.07,9.07,0,0,1,2.1,6.36a12.65,12.65,0,0,0-.42,3.12c0,6,1.62,8.22,5.94,12.54l6.18,6.24a6.72,6.72,0,0,1,2.22,5,2.43,2.43,0,0,1-1.68,2.64,8.66,8.66,0,0,0-2.4-5.58l-.48-.42V28.2H9.78Zm8.16,20.28a15.77,15.77,0,0,0,5.16-.84A12.75,12.75,0,0,1,11,46C4.92,46,.06,42.6.06,36.48V32.16H1.8v1.56C1.8,40,6.6,44.28,13.74,44.28ZM24.9,33.66c0,6.06-5.16,9.42-11.16,9.42S2.88,39.72,2.88,33.66V29.28h7.44v4c0,2.52,1.56,3.84,3.42,3.84s3.36-1.44,3.36-3.84a7.62,7.62,0,0,0-2.4-5.76l-6.3-6.3C4.08,16.86,2.82,15.12,2.82,9.42S7.38,0,13.74,0,24.6,3.78,24.6,9.42V12.3H17.1V10.62c0-3-1.56-4.68-3.36-4.68a3.36,3.36,0,0,0-3.42,3.3c0,1.92.48,3.24,2.22,5.22L20,23.1C23,26.46,24.9,28.74,24.9,33.66ZM14.34,14.94v-1.5c0-2.64-1.26-4.26-2.82-4.56a2.26,2.26,0,0,1,2.22-1.74c1.38,0,2.28,1.38,2.28,3.54v2.76h5.82v1.68H14.52Z"/><path class="cls-1" d="M31.08,43.68H36.9v1.74H29.4v-42h1.68ZM39.66.54v42h-7.5V.54Z"/><path class="cls-1" d="M46.14,43.74H52v1.68h-7.5v-42h1.68ZM69.72.54v42h-7.5l-7.38-24h-.12v24h-7.5V.54h7.92l7,23.34h.12V.54Zm-8.34,43.2H67v1.68h-7.5l-3.6-11.7v-8.1Zm-.24-26.82-1.68-5.7V3.42h1.68Z"/><path class="cls-1" d="M88.38,44.22a14.51,14.51,0,0,0,4.5-.66A11.26,11.26,0,0,1,85.56,46c-8.34,0-11.34-5.16-11.34-9.48V12.3a9,9,0,0,1,2.1-5.88,13.42,13.42,0,0,0-.42,3.06V33.72C75.9,38.94,79.74,44.22,88.38,44.22ZM99.3,12.66H91.74V9.48A3.65,3.65,0,0,0,88.38,6a3.75,3.75,0,0,0-3.84,3.48V33.6a3.75,3.75,0,0,0,3.84,3.48c2.76,0,4.2-2,4.2-5.46V25.26h-4.2v-6H99.3v13c0,5.64-3.42,10.86-10.92,10.86C80,43.08,77,38,77,33.66V9.42C77,5.1,80,0,88.38,0,95.88,0,99.3,5.1,99.3,9.42ZM89.82,34.5V28.14H85.68v-6H87.3v4.32h4.2v5.22c0,2.22-.6,3.54-1.8,4.08A8.17,8.17,0,0,0,89.82,34.5Zm-.84-19V12.36A3.77,3.77,0,0,0,85.8,8.88a2.61,2.61,0,0,1,2.58-1.74,2.58,2.58,0,0,1,2.28,2.4v4.32h5.88v1.68Z"/><path class="cls-1" d="M105.48,43.74h15.6v1.68H103.8v-42h1.68Zm18.42-7.2v6H106.56V.54h7.5v36Z"/><path class="cls-1" d="M129,43.68h17.28v1.74h-19v-42H129Zm20.1-7.2v6.06h-19V.54h18.12V6.6H137.64V16.86h7.56v6h-7.56V36.48ZM138.72,9.42V7.68h6.72V9.42Zm0,16.26V24h3.72v1.68Z"/><path class="cls-1" d="M164.34,43.74h5.76v1.68h-7.5v-42h1.74Zm31-43.2v42h-7.5V16.62L183,42.54h-5.22L173,16.62h-.12V42.54h-7.5V.54h10.14l4.8,25.14h.12L185.28.54Zm-18.48,43.2h3.66l-.3,1.68H175l-1-5.22V28.26Zm3.54-23.52-.6-3,2.64-13.8h1.14Zm6.36,23.52h5.82v1.68h-7.5V37.5l1.68-9.24Z"/><path class="cls-1" d="M207.48,43.68l-1.68,1.68h-7l8.58-42L208.74,2l-8.58,41.64Zm9.84-10.92h-7.26l-1.44,9.78h-7.08l8.64-42h7.5l8.64,42h-7.5Zm7.86,10.92-1.68,1.68H216l-1.44-9.72h-3.78L211,34h5.4l1.38,9.72Zm-9.06-16.92L213.84,11.7h-.18l-2.34,15.06Zm-2.4-8.22,1.08,7.2h-2.1l-.06-.42Z"/><path class="cls-1" d="M231.42,43.74H247v1.68H229.74v-42h1.68Zm18.42-7.2v6H232.5V.54H240v36Z"/><path class="cls-1" d="M257.58,43.68h5.76v1.68h-7.5v-36h-7.68v-6h1.68V7.68h7.74ZM273.9.54v6h-7.74v36h-7.5v-36H251v-6Zm-6.6,7.14h3.78V9.36H267.3Z"/><path class="cls-1" d="M292.68,24c-4.32-4.32-5.58-6-5.58-11.7a9.07,9.07,0,0,1,2.1-5.94,12.65,12.65,0,0,0-.42,3.12c0,6,1.62,8.22,5.94,12.54l6.18,6.24a6.72,6.72,0,0,1,2.22,5,2.43,2.43,0,0,1-1.68,2.64,8.66,8.66,0,0,0-2.4-5.58l-.48-.42V28.2h-1.68Zm8.16,20.28a15.77,15.77,0,0,0,5.16-.84A12.75,12.75,0,0,1,298.08,46c-6.06,0-10.92-3.36-10.92-9.48V32.16h1.74v1.56C288.9,40,293.7,44.28,300.84,44.28ZM312,33.66c0,6.06-5.17,9.42-11.16,9.42S290,39.72,290,33.66V29.28h7.44v4c0,2.52,1.56,3.84,3.42,3.84s3.36-1.44,3.36-3.84a7.62,7.62,0,0,0-2.4-5.76l-6.3-6.3c-4.32-4.32-5.58-6.06-5.58-11.76S294.48,0,300.84,0s10.85,3.78,10.85,9.42V12.3H304.2V10.62c0-3-1.56-4.68-3.36-4.68a3.36,3.36,0,0,0-3.42,3.3c0,1.92.48,3.24,2.22,5.22l7.5,8.64C310.14,26.46,312,28.74,312,33.66ZM301.44,14.94v-1.5c0-2.64-1.26-4.26-2.82-4.56a2.26,2.26,0,0,1,2.22-1.74c1.38,0,2.28,1.38,2.28,3.54v2.76h5.82v1.68h-7.32Z"/><path class="cls-1" d="M330.35,44.28a14,14,0,0,0,4.74-.78A11.62,11.62,0,0,1,327.53,46c-8.34,0-11.33-5.16-11.33-9.48V12.3a8.61,8.61,0,0,1,2.22-5.82,8.56,8.56,0,0,0-.54,3V33.72C317.88,38.94,321.71,44.28,330.35,44.28Zm11-31.62h-7.56V9.48A3.71,3.71,0,0,0,330.35,6a3.63,3.63,0,0,0-3.72,3.48V33.6a3.63,3.63,0,0,0,3.72,3.48,3.71,3.71,0,0,0,3.42-3.48V30.42h7.56v3.24c0,4.32-3.42,9.42-11,9.42C322,43.08,319,38,319,33.66V9.42C319,5.1,322,0,330.35,0c7.56,0,11,5.1,11,9.42Zm-2.82,2.88H331V12.36a3.65,3.65,0,0,0-3.12-3.48,2.61,2.61,0,0,1,2.52-1.68,2.53,2.53,0,0,1,2.28,2.34v4.32h7.56ZM331,33.24l1.68-1.68v2.1A2.76,2.76,0,0,1,331,35.94Z"/><path class="cls-1" d="M357.47,44.28a16.71,16.71,0,0,0,4.74-.72,11.55,11.55,0,0,1-7.5,2.4c-8.33,0-11.27-5.16-11.27-9.42V12.3a9,9,0,0,1,2.09-5.94,13.93,13.93,0,0,0-.42,3.12V33.72C345.11,38.94,348.89,44.28,357.47,44.28ZM368.33,9.42V33.66c0,4.26-3.36,9.42-10.86,9.42-8.28,0-11.22-5.16-11.22-9.36V9.42c0-4.26,2.94-9.42,11.22-9.42C365,0,368.33,5.16,368.33,9.42Zm-7.5,0a3.54,3.54,0,0,0-7.08-.06V33.54a3.6,3.6,0,0,0,3.72,3.54c2.16,0,3.36-2.28,3.36-3.54Zm-1.08.06V33.6a2.88,2.88,0,0,1-1.68,2.34V12.3A3.76,3.76,0,0,0,355,8.82a2.63,2.63,0,0,1,2.52-1.68A2.53,2.53,0,0,1,359.75,9.48Z"/><path class="cls-1" d="M379.55,43.68h5.76v1.68h-7.5v-36h-7.68v-6h1.68V7.68h7.74ZM395.87.54v6h-7.74v36h-7.5v-36H373v-6Zm-6.6,7.14h3.78V9.36h-3.78Z"/><path class="cls-1" d="M410.81,44.28a14,14,0,0,0,4.74-.78A11.62,11.62,0,0,1,408,46c-8.34,0-11.33-5.16-11.33-9.48V12.3a8.61,8.61,0,0,1,2.22-5.82,8.57,8.57,0,0,0-.55,3V33.72C398.33,38.94,402.17,44.28,410.81,44.28Zm11-31.62h-7.56V9.48A3.71,3.71,0,0,0,410.81,6a3.63,3.63,0,0,0-3.72,3.48V33.6a3.63,3.63,0,0,0,3.72,3.48,3.71,3.71,0,0,0,3.42-3.48V30.42h7.56v3.24c0,4.32-3.42,9.42-11,9.42-8.34,0-11.33-5.1-11.33-9.42V9.42c0-4.32,3-9.42,11.33-9.42,7.56,0,11,5.1,11,9.42ZM419,15.54h-7.56V12.36a3.65,3.65,0,0,0-3.12-3.48,2.61,2.61,0,0,1,2.52-1.68,2.53,2.53,0,0,1,2.28,2.34v4.32h7.56Zm-7.56,17.7,1.68-1.68v2.1a2.76,2.76,0,0,1-1.68,2.28Z"/><path class="cls-1" d="M426.77,43.74h5.82v1.68h-7.5v-42h1.68Zm24-43.2v42h-7.5V22.86h-7.92V42.54h-7.5V.54h7.5V16.86h7.92V.54Zm-8.64,43.2H448v1.68h-7.5V25.68h-4V24h5.64Zm0-28h-1.68V3.42h1.68Z"/></svg>