<svg id="Layer_1" data-name="Layer 1" xmlns="http://www.w3.org/2000/svg" viewBox="0 0 225.96 45.96"><defs><style>.cls-1{fill:#6a0f1d;}</style></defs><title>Artboard 30</title><path class="cls-1" d="M1.68,43.68H7.44v1.74H0v-42H1.68ZM20.82.54V6.6H10.26V16.86h7.56v6H10.26V42.54H2.76V.54H20.82ZM11.34,7.68h6.72V9.42H11.34Zm0,16.32H15v1.68H11.34Z"/><path class="cls-1" d="M24.9,43.68h5.82v1.74h-7.5v-42H24.9Zm11-18c-1.08,0-2-.06-2.34-.06V42.54H26V.54H38.58c7.2,0,10.62,5.28,10.62,12,0,6.24-2.7,10.26-6.3,12.06l7.92,17.94H43Zm0-6.42c4.8,0,6.18-.54,6.18-6.72,0-3.36-.78-5.94-3.72-5.94h-4.8V19.26Zm5-6.66c0,3.66-.36,4.92-1.8,5.34a15.34,15.34,0,0,0,.12-2.52c0-3.36-.72-6-3.72-6h-.9V7.68h3.72C39.66,7.68,40.92,8.34,40.92,12.6Zm6.36,31.14L48,45.42H40.26l-5.64-13.2v-5.4h.54L42.3,43.74Z"/><path class="cls-1" d="M66.9,44.28a16.71,16.71,0,0,0,4.74-.72,11.55,11.55,0,0,1-7.5,2.4c-8.34,0-11.28-5.16-11.28-9.42V12.3A9,9,0,0,1,55,6.36a13.93,13.93,0,0,0-.42,3.12V33.72C54.54,38.94,58.32,44.28,66.9,44.28ZM77.76,9.42V33.66c0,4.26-3.36,9.42-10.86,9.42-8.28,0-11.22-5.16-11.22-9.36V9.42C55.68,5.16,58.62,0,66.9,0,74.4,0,77.76,5.16,77.76,9.42Zm-7.5,0a3.54,3.54,0,0,0-7.08-.06V33.54a3.6,3.6,0,0,0,3.72,3.54c2.16,0,3.36-2.28,3.36-3.54Zm-1.08.06V33.6a2.88,2.88,0,0,1-1.68,2.34V12.3a3.76,3.76,0,0,0-3.12-3.48A2.63,2.63,0,0,1,66.9,7.14,2.53,2.53,0,0,1,69.18,9.48Z"/><path class="cls-1" d="M84,43.74h5.76v1.68h-7.5v-42H84ZM115,.54v42h-7.5V16.62l-4.86,25.92H97.44L92.7,16.62h-.12V42.54h-7.5V.54H95.22L100,25.68h.12L104.94.54ZM96.54,43.74h3.66l-.3,1.68H94.62l-1-5.22V28.26Zm3.54-23.52-.6-3,2.64-13.8h1.14Zm6.36,23.52h5.82v1.68h-7.5V37.5l1.68-9.24Z"/><path class="cls-1" d="M127.14,43.68l-1.68,1.68h-7l8.58-42L128.4,2l-8.58,41.64ZM137,32.76h-7.26l-1.44,9.78H121.2l8.64-42h7.5l8.64,42h-7.5Zm7.86,10.92-1.68,1.68h-7.5l-1.44-9.72h-3.78l.24-1.68h5.4l1.38,9.72Zm-9.06-16.92L133.5,11.7h-.18L131,26.76Zm-2.4-8.22,1.08,7.2h-2.1l-.06-.42Z"/><path class="cls-1" d="M161.76,44.22a14.51,14.51,0,0,0,4.5-.66,11.26,11.26,0,0,1-7.32,2.4c-8.34,0-11.34-5.16-11.34-9.48V12.3a9,9,0,0,1,2.1-5.88,13.42,13.42,0,0,0-.42,3.06V33.72C149.28,38.94,153.12,44.22,161.76,44.22Zm10.92-31.56h-7.56V9.48A3.65,3.65,0,0,0,161.76,6a3.75,3.75,0,0,0-3.84,3.48V33.6a3.75,3.75,0,0,0,3.84,3.48c2.76,0,4.2-2,4.2-5.46V25.26h-4.2v-6h10.92v13c0,5.64-3.42,10.86-10.92,10.86-8.34,0-11.4-5.1-11.4-9.42V9.42c0-4.32,3.06-9.42,11.4-9.42,7.5,0,10.92,5.1,10.92,9.42ZM163.2,34.5V28.14h-4.14v-6h1.62v4.32h4.2v5.22c0,2.22-.6,3.54-1.8,4.08A8.17,8.17,0,0,0,163.2,34.5Zm-.84-19V12.36a3.77,3.77,0,0,0-3.18-3.48,2.61,2.61,0,0,1,2.58-1.74A2.58,2.58,0,0,1,164,9.54v4.32h5.88v1.68Z"/><path class="cls-1" d="M178.86,43.68h17.28v1.74h-19v-42h1.68Zm20.1-7.2v6.06H180V.54h18.12V6.6H187.5V16.86h7.56v6H187.5V36.48ZM188.58,9.42V7.68h6.72V9.42Zm0,16.26V24h3.72v1.68Z"/><path class="cls-1" d="M206.64,24c-4.32-4.32-5.58-6-5.58-11.7a9.07,9.07,0,0,1,2.1-5.94,12.65,12.65,0,0,0-.42,3.12c0,6,1.62,8.22,5.94,12.54l6.18,6.24a6.72,6.72,0,0,1,2.22,5,2.43,2.43,0,0,1-1.68,2.64,8.66,8.66,0,0,0-2.4-5.58l-.48-.42V28.2h-1.68Zm8.16,20.28a15.77,15.77,0,0,0,5.16-.84A12.75,12.75,0,0,1,212,46c-6.06,0-10.92-3.36-10.92-9.48V32.16h1.74v1.56C202.86,40,207.66,44.28,214.8,44.28ZM226,33.66c0,6.06-5.16,9.42-11.16,9.42s-10.86-3.36-10.86-9.42V29.28h7.44v4c0,2.52,1.56,3.84,3.42,3.84s3.36-1.44,3.36-3.84a7.62,7.62,0,0,0-2.4-5.76l-6.3-6.3c-4.32-4.32-5.58-6.06-5.58-11.76S208.44,0,214.8,0s10.86,3.78,10.86,9.42V12.3h-7.5V10.62c0-3-1.56-4.68-3.36-4.68a3.36,3.36,0,0,0-3.42,3.3c0,1.92.48,3.24,2.22,5.22l7.5,8.64C224.1,26.46,226,28.74,226,33.66ZM215.4,14.94v-1.5c0-2.64-1.26-4.26-2.82-4.56a2.26,2.26,0,0,1,2.22-1.74c1.38,0,2.28,1.38,2.28,3.54v2.76h5.82v1.68h-7.32Z"/></svg>