<svg id="Layer_1" data-name="Layer 1" xmlns="http://www.w3.org/2000/svg" viewBox="0 0 364.25 45.96"><defs><style>.cls-1{fill:#6a0f1d;}</style></defs><title>Artboard 24</title><path class="cls-1" d="M1.68,43.68H7.5v1.74H0v-42H1.68ZM25.14,12.54c0,8.7-5.28,13.14-10.8,13.14-.48,0-3.54,0-4-.06V42.54H2.82V.54h11.7C21.72.54,25.14,5.82,25.14,12.54Zm-7.14,0c0-3.36-.78-5.94-3.72-5.94h-4V19.26h1.5C16.62,19.26,18,18.72,18,12.54Zm-1.14.06c0,3.66-.36,4.92-1.8,5.34a15.34,15.34,0,0,0,.12-2.52c0-3.36-.72-6-3.72-6L11.4,7.68h2.88C15.6,7.68,16.86,8.34,16.86,12.6ZM18,26.22a10.27,10.27,0,0,1-6.6,2.28V26.82C15.42,26.82,15.72,26.88,18,26.22Z"/><path class="cls-1" d="M42.48,44.28a16.71,16.71,0,0,0,4.74-.72,11.55,11.55,0,0,1-7.5,2.4c-8.34,0-11.28-5.16-11.28-9.42V12.3a9,9,0,0,1,2.1-5.94,13.93,13.93,0,0,0-.42,3.12V33.72C30.12,38.94,33.9,44.28,42.48,44.28ZM53.34,9.42V33.66c0,4.26-3.36,9.42-10.86,9.42-8.28,0-11.22-5.16-11.22-9.36V9.42C31.26,5.16,34.2,0,42.48,0,50,0,53.34,5.16,53.34,9.42Zm-7.5,0a3.54,3.54,0,0,0-7.08-.06V33.54a3.6,3.6,0,0,0,3.72,3.54c2.16,0,3.36-2.28,3.36-3.54Zm-1.08.06V33.6a2.88,2.88,0,0,1-1.68,2.34V12.3A3.76,3.76,0,0,0,40,8.82a2.63,2.63,0,0,1,2.52-1.68A2.53,2.53,0,0,1,44.76,9.48Z"/><path class="cls-1" d="M59.52,43.68h5.82v1.74h-7.5v-42h1.68ZM83,12.54c0,8.7-5.28,13.14-10.8,13.14-.48,0-3.54,0-4-.06V42.54h-7.5V.54h11.7C79.56.54,83,5.82,83,12.54Zm-7.14,0c0-3.36-.78-5.94-3.72-5.94h-4V19.26h1.5C74.46,19.26,75.84,18.72,75.84,12.54Zm-1.14.06c0,3.66-.36,4.92-1.8,5.34A15.34,15.34,0,0,0,73,15.42c0-3.36-.72-6-3.72-6l-.06-1.74h2.88C73.44,7.68,74.7,8.34,74.7,12.6Zm1.14,13.62a10.27,10.27,0,0,1-6.6,2.28V26.82C73.26,26.82,73.56,26.88,75.84,26.22Z"/><path class="cls-1" d="M88.26,33.72c0,5.22,3.78,10.56,12.36,10.56a14.26,14.26,0,0,0,4.74-.78A11.57,11.57,0,0,1,97.86,46c-8.34,0-11.28-5.1-11.28-9.42V3.42h1.68ZM111.48.54V33.72c0,4.2-3.36,9.36-10.86,9.36-8.28,0-11.22-5.16-11.22-9.36V.54h7.5V33.66a3.54,3.54,0,0,0,7.08,0V.54Zm-10.26,35.4V3.42h1.68v30.3A2.72,2.72,0,0,1,101.22,35.94Z"/><path class="cls-1" d="M118,43.74h15.6v1.68H116.28v-42H118Zm18.42-7.2v6H119V.54h7.5v36Z"/><path class="cls-1" d="M147.12,43.68l-1.68,1.68h-7l8.58-42L148.38,2,139.8,43.68ZM157,32.76H149.7l-1.44,9.78h-7.08l8.64-42h7.5l8.64,42h-7.5Zm7.86,10.92-1.68,1.68h-7.5l-1.44-9.72h-3.78l.24-1.68h5.4l1.38,9.72Zm-9.06-16.92L153.48,11.7h-.18L151,26.76Zm-2.4-8.22,1.08,7.2h-2.1l-.06-.42Z"/><path class="cls-1" d="M171.06,43.68h5.82v1.74h-7.5v-42h1.68Zm11-18c-1.08,0-2-.06-2.34-.06V42.54h-7.5V.54h12.54c7.2,0,10.62,5.28,10.62,12,0,6.24-2.7,10.26-6.3,12.06L197,42.54h-7.8Zm0-6.42c4.8,0,6.18-.54,6.18-6.72,0-3.36-.78-5.94-3.72-5.94h-4.8V19.26Zm5-6.66c0,3.66-.36,4.92-1.8,5.34a15.34,15.34,0,0,0,.12-2.52c0-3.36-.72-6-3.72-6h-.9V7.68h3.72C185.82,7.68,187.08,8.34,187.08,12.6Zm6.36,31.14.72,1.68h-7.74l-5.64-13.2v-5.4h.54l7.14,16.92Z"/><path class="cls-1" d="M227,43.68a10.12,10.12,0,0,0,3-.48,8.77,8.77,0,0,1-5.82,2.22h-13.5v-42h1.68V43.68H227Zm9.3-31.14v18c0,6.42-2.82,12-9.3,12h-13.5V.54H227a9,9,0,0,1,8.76,7A22.62,22.62,0,0,1,236.34,12.54Zm-7.08,0c0-3.36-.72-5.94-3.78-5.94H221V36.48h4.44c3.06,0,3.78-2.58,3.78-5.94Zm-1.14.06v18c0,3.36-.78,4.44-1.8,4.8.06-.66.12-1.32.12-2V15.42c0-3.42-.72-6-3.72-6h-.6V7.68h3.36C226.92,7.68,228.12,8.34,228.12,12.6Z"/><path class="cls-1" d="M242.52,43.68h5.82v1.74h-7.5v-42h1.68ZM251.1.54v42h-7.5V.54Z"/><path class="cls-1" d="M261.18,24c-4.32-4.32-5.58-6-5.58-11.7a9.07,9.07,0,0,1,2.1-5.94,12.65,12.65,0,0,0-.42,3.12c0,6,1.62,8.22,5.94,12.54l6.18,6.24a6.72,6.72,0,0,1,2.22,5,2.43,2.43,0,0,1-1.68,2.64,8.66,8.66,0,0,0-2.4-5.58l-.48-.42V28.2h-1.68Zm8.16,20.28a15.77,15.77,0,0,0,5.16-.84A12.75,12.75,0,0,1,266.58,46c-6.06,0-10.92-3.36-10.92-9.48V32.16h1.74v1.56C257.4,40,262.2,44.28,269.34,44.28ZM280.5,33.66c0,6.06-5.17,9.42-11.16,9.42s-10.86-3.36-10.86-9.42V29.28h7.44v4c0,2.52,1.56,3.84,3.42,3.84s3.36-1.44,3.36-3.84a7.62,7.62,0,0,0-2.4-5.76l-6.3-6.3c-4.32-4.32-5.58-6.06-5.58-11.76S263,0,269.34,0s10.85,3.78,10.85,9.42V12.3H272.7V10.62c0-3-1.56-4.68-3.36-4.68a3.36,3.36,0,0,0-3.42,3.3c0,1.92.48,3.24,2.22,5.22l7.5,8.64C278.64,26.46,280.5,28.74,280.5,33.66ZM269.94,14.94v-1.5c0-2.64-1.26-4.26-2.82-4.56a2.26,2.26,0,0,1,2.22-1.74c1.38,0,2.28,1.38,2.28,3.54v2.76h5.82v1.68h-7.32Z"/><path class="cls-1" d="M286.67,43.74h5.82v1.68H285v-42h1.67Zm24-43.2v42h-7.5V22.86h-7.92V42.54h-7.5V.54h7.5V16.86h7.92V.54ZM302,43.74h5.82v1.68h-7.5V25.68h-4V24H302Zm0-28h-1.68V3.42H302Z"/><path class="cls-1" d="M317.16,43.68h17.27v1.74H315.48v-42h1.68Zm20.09-7.2v6.06h-19V.54h18.12V6.6H325.79V16.86h7.56v6h-7.56V36.48ZM326.87,9.42V7.68h6.72V9.42Zm0,16.26V24h3.72v1.68Z"/><path class="cls-1" d="M344.94,24c-4.32-4.32-5.58-6-5.58-11.7a9.07,9.07,0,0,1,2.1-5.94A12.65,12.65,0,0,0,341,9.48c0,6,1.62,8.22,5.94,12.54l6.17,6.24a6.72,6.72,0,0,1,2.22,5,2.43,2.43,0,0,1-1.68,2.64,8.66,8.66,0,0,0-2.4-5.58l-.48-.42V28.2h-1.68Zm8.15,20.28a15.77,15.77,0,0,0,5.16-.84A12.75,12.75,0,0,1,350.33,46c-6.06,0-10.91-3.36-10.91-9.48V32.16h1.74v1.56C341.16,40,346,44.28,353.09,44.28Zm11.16-10.62c0,6.06-5.16,9.42-11.16,9.42s-10.85-3.36-10.85-9.42V29.28h7.43v4c0,2.52,1.56,3.84,3.42,3.84s3.36-1.44,3.36-3.84a7.62,7.62,0,0,0-2.4-5.76l-6.3-6.3c-4.31-4.32-5.57-6.06-5.57-11.76S346.73,0,353.09,0,364,3.78,364,9.42V12.3h-7.5V10.62c0-3-1.56-4.68-3.36-4.68a3.36,3.36,0,0,0-3.42,3.3c0,1.92.48,3.24,2.22,5.22l7.5,8.64C362.39,26.46,364.25,28.74,364.25,33.66ZM353.69,14.94v-1.5c0-2.64-1.26-4.26-2.81-4.56a2.24,2.24,0,0,1,2.21-1.74c1.38,0,2.28,1.38,2.28,3.54v2.76h5.82v1.68h-7.32Z"/></svg>