<svg id="Layer_1" data-name="Layer 1" xmlns="http://www.w3.org/2000/svg" viewBox="0 0 188.22 45.96"><defs><style>.cls-1{fill:#6a0f1d;}</style></defs><title>Artboard 17</title><path class="cls-1" d="M14.16,44.28a14,14,0,0,0,4.74-.78A11.62,11.62,0,0,1,11.34,46C3,46,0,40.8,0,36.48V12.3A8.66,8.66,0,0,1,2.22,6.48a8.56,8.56,0,0,0-.54,3V33.72C1.68,38.94,5.52,44.28,14.16,44.28Zm11-31.62H17.58V9.48A3.71,3.71,0,0,0,14.16,6a3.63,3.63,0,0,0-3.72,3.48V33.6a3.63,3.63,0,0,0,3.72,3.48,3.71,3.71,0,0,0,3.42-3.48V30.42h7.56v3.24c0,4.32-3.42,9.42-11,9.42-8.34,0-11.34-5.1-11.34-9.42V9.42C2.82,5.1,5.82,0,14.16,0c7.56,0,11,5.1,11,9.42Zm-2.82,2.88H14.76V12.36a3.65,3.65,0,0,0-3.12-3.48A2.61,2.61,0,0,1,14.16,7.2a2.53,2.53,0,0,1,2.28,2.34v4.32H24Zm-7.56,17.7,1.68-1.68v2.1a2.76,2.76,0,0,1-1.68,2.28Z"/><path class="cls-1" d="M41.28,44.28A16.71,16.71,0,0,0,46,43.56a11.55,11.55,0,0,1-7.5,2.4c-8.34,0-11.28-5.16-11.28-9.42V12.3a9,9,0,0,1,2.1-5.94,13.93,13.93,0,0,0-.42,3.12V33.72C28.92,38.94,32.7,44.28,41.28,44.28ZM52.14,9.42V33.66c0,4.26-3.36,9.42-10.86,9.42-8.28,0-11.22-5.16-11.22-9.36V9.42C30.06,5.16,33,0,41.28,0,48.78,0,52.14,5.16,52.14,9.42Zm-7.5,0a3.54,3.54,0,0,0-7.08-.06V33.54a3.6,3.6,0,0,0,3.72,3.54c2.16,0,3.36-2.28,3.36-3.54Zm-1.08.06V33.6a2.88,2.88,0,0,1-1.68,2.34V12.3a3.76,3.76,0,0,0-3.12-3.48,2.63,2.63,0,0,1,2.52-1.68A2.53,2.53,0,0,1,43.56,9.48Z"/><path class="cls-1" d="M58.32,43.74h5.82v1.68h-7.5v-42h1.68ZM81.9.54v42H74.4L67,18.54H66.9v24H59.4V.54h7.92l7,23.34h.12V.54Zm-8.34,43.2h5.58v1.68h-7.5L68,33.72v-8.1Zm-.24-26.82-1.68-5.7V3.42h1.68Z"/><path class="cls-1" d="M94.74,43.68h5.76v1.68H93v-36H85.32v-6H87V7.68h7.74ZM111.06.54v6h-7.74v36h-7.5v-36H88.14v-6Zm-6.6,7.14h3.78V9.36h-3.78Z"/><path class="cls-1" d="M116.28,43.68l-1.68,1.68h-7l8.58-42L117.54,2,109,43.68Zm9.84-10.92h-7.26l-1.44,9.78h-7.08L119,.54h7.5l8.64,42h-7.5ZM134,43.68l-1.68,1.68h-7.5l-1.44-9.72h-3.78l.24-1.68h5.4l1.38,9.72Zm-9.06-16.92L122.64,11.7h-.18l-2.34,15.06Zm-2.4-8.22,1.08,7.2h-2.1l-.06-.42Z"/><path class="cls-1" d="M150.9,44.28a14,14,0,0,0,4.74-.78A11.62,11.62,0,0,1,148.08,46c-8.34,0-11.34-5.16-11.34-9.48V12.3A8.66,8.66,0,0,1,139,6.48a8.56,8.56,0,0,0-.54,3V33.72C138.42,38.94,142.26,44.28,150.9,44.28Zm11-31.62h-7.56V9.48A3.71,3.71,0,0,0,150.9,6a3.63,3.63,0,0,0-3.72,3.48V33.6a3.63,3.63,0,0,0,3.72,3.48,3.71,3.71,0,0,0,3.42-3.48V30.42h7.56v3.24c0,4.32-3.42,9.42-11,9.42-8.34,0-11.34-5.1-11.34-9.42V9.42c0-4.32,3-9.42,11.34-9.42,7.56,0,11,5.1,11,9.42Zm-2.82,2.88H151.5V12.36a3.65,3.65,0,0,0-3.12-3.48A2.61,2.61,0,0,1,150.9,7.2a2.53,2.53,0,0,1,2.28,2.34v4.32h7.56Zm-7.56,17.7,1.68-1.68v2.1a2.76,2.76,0,0,1-1.68,2.28Z"/><path class="cls-1" d="M171.9,43.68h5.76v1.68h-7.5v-36h-7.68v-6h1.68V7.68h7.74ZM188.22.54v6h-7.74v36H173v-36H165.3v-6Zm-6.6,7.14h3.78V9.36h-3.78Z"/></svg>